<mxfile host="app.diagrams.net" agent="Mozilla/5.0 (Windows NT 10.0; Win64; x64) AppleWebKit/537.36 (KHTML, like Gecko) Chrome/129.0.0.0 Safari/537.36" version="24.7.17">
  <diagram name="Page-1" id="e7e014a7-5840-1c2e-5031-d8a46d1fe8dd">
    <mxGraphModel dx="1434" dy="706" grid="1" gridSize="10" guides="1" tooltips="1" connect="1" arrows="1" fold="1" page="1" pageScale="1" pageWidth="1169" pageHeight="826" background="none" math="0" shadow="0">
      <root>
        <mxCell id="0" />
        <mxCell id="1" parent="0" />
        <object label="" id="vnlumn0CQnSYay_lhR-u-41">
          <mxCell style="shape=image;imageAspect=0;aspect=fixed;verticalLabelPosition=bottom;verticalAlign=top;image=data:image/png,iVBORw0KGgoAAAANSUhEUgAAA9UAAAK5CAYAAACxCw2KAAAAAXNSR0IArs4c6QAAAARnQU1BAACxjwv8YQUAAAAJcEhZcwAAEnQAABJ0Ad5mH3gAAP+lSURBVHhe7J0HgFxV1cfP9pot6b33XkkDQgKhd6kCIlVFEBAbKKh8KigoqBSlSu+990AglBAS0nvvu9lNsr3Od39n3gvDsum7k5nZ88Mx+96defW+++7/nnPPiQs4xDAMwzAMwzAMwzCMvSbe+9cwDMMwDMMwDMMwjL3ERLVhGIZhGIZhGIZh7CMmqg3DMAzDMAzDMAxjHzFRbRiGYRiGYRiGYRj7iIlqwzAMwzAMwzAMw9hHTFQbhmEYhmEYhmEYxj5iotowDMMwDMMwDMMw9hET1YZhGIZhGIZhGIaxj5ioNgzDMAzDMAzDMIx9xES1YRiGYRiGYRiGYewjJqoNwzAMwzAMwzAMYx8xUW0YhmEYhmEYhmEY+4iJasMwDMMwDMMwDMPYR0xUG4ZhGIZhGIZhGMY+YqLaMAzDMAzDMAzDMPYRE9WGYRiGYRiGYRiGsY+YqDYMwzAMwzAMwzCMfcREtWEYhmEYhmEYhmHsIyaqDcMwDMMwDMMwDGMfMVFtGIZhGIZhGIZhGPuIiWrDMAzDMAzDMAzD2EdMVBuGYRiGYRiGYRjGPmKi2jAMwzAMwzAMwzD2ERPVhmEYhmEYhmEYhrGPmKg2DMMwDMMwDMMwjH3ERLVhGIZhGIZhGIZh7CMmqg3DMAzDMAzDMAxjH4kLOLy/DcMwDKNJsH37dpk/f77+Cx06dJD+/ftLXFycLscClZWVsnTpUlm7dq23JkiPHj30AwUFBbJlyxbp2LGjpKWl6bpoYMWKFZKSkiI5OTmybt06vX/p6eleqUhhYaGsWrVKBg4cKImJid7afWfNmjW6/RYtWnhrDMMwDOMbzFJtGIZhNCmKi4tlypQp8tVXX8myZctk8eLF8tprr8kHH3wgNTU13rein5KSEj3Pjz76SM+Tz6JFi+SFF16QefPm6XfKyspUVFdVVelyNMBAwPvvvy9FRUX699tvv63/hoLofvTRR6W8vNxbs3/k5eXJO++8IxUVFd4awzAMw/iGhD84vL8NwzAMI+ZZvny5is0zzjhDDj/8cBk5cqRaqJ955hkZPXq0WiT5zpNPPimvv/66WkJ79eolSUlJKqoQqQ8//LB+B4GONbhLly4yffp0tQq3a9dOqqurVaizXaybiNd3331XHn/8cf1eVlaWtGzZUgUt31uyZIk89dRT+m+bNm2kWbNm+ttp06bJAw88IJ999pnU1tbqthMSEmT16tVy++23y4cffijr16+Xzp07S2pqqneGQRCUHPuYMWPk5JNPllGjRum5cmyI0j59+uh3Nm7cKG3bttXzQ3BzHdgu59K+fXu9HojWe+65R9577z3dHx+2gxWYY8Tq//zzz+sxlJaW7rh2bCczM1OPm+19+umnO77LObD9xx57TN58803dB+fBcewMBj0+/vhjvaacD54GDBT07dtXr6nPhg0bZM6cOXLYYYfpd9gf58ZASvfu3fWYcNSr7z5zfVeuXKnnxfEz6DJixAi9N/n5+Tus/IZhGIbhY5ZqwzAMo0mBWEXAISYhPj5exebPfvYzFbO4+iKmEFgnnniiWnxfeeUVFbWzZ89WUTd+/HgVV1hDv/76ay1DoPFBrCE4Wb9p0yYtmzp1qgrRY489VoYNGyZvvfWW7h/Bh6hGiB599NFqfWX7iF1EHGJz8uTJMm7cOBWJWJixwt533306IMBvfKGPcN8dCMaDDjpIxS8iEpG4YMEC2bZtm4p6hC7nzPmx/08++US2bt0qDz30kLqHsz+E7csvv6znxnHzN78/5phj9Fpybrhjs51OnTrJvffeq99lX1h7uTaIXc7lL3/5i/Tu3VvGjh2r144Bil2BxRiLO7/ZEzg+rieWeK49v7v77rv1nu7sPnP/uA5c065du+r1ol4grNkW2zQMwzCMUExUG4ZhGE0KrMqHHHKI/OlPf1IheNZZZ6lg9a2UiEksmYceeqgK4FNOOUVmzpypc3QRdFg6KcOq3a9fP/3NrmB+74wZM1QcY12dOHGiHgNWU8jNzdXjQbwNHTpUxSfiGosx6xCcBx98sPzwhz9UUYi7M4Ia4Us5x8I+sM7uCcnJyWohRuj6YHE+6aST5NJLL9Vzxrrds2fPHdZuhOSZZ56pwpLzxvLsg5AePny4DBkyRAYPHiznn3/+jsEDjhMRjfBHrPoWZrY/YMAAPQ7OjfNAwDLQsCsXfEQ1xxpqld4VbItBAa4x15ZBgauuukq3sbP7zPky8IInAefF4AnXDGv+5s2btdwwDMMwQjFRbRiGYTQpsNLiDv3SSy+pxRfBdeWVV8p1112n7ty4J//jH/+QSZMmqXDlu7gYY+1E1OGejchiO4jM3QXCwsUbSzXine0h4nDd9oOkIUrZHkKObSE+EbNYbRGarOc7GRkZ+n1ckzlWxCifH/zgB/L555+rRXxPYZvsx4dlLNH8y2DDUUcdJf/73/802Bniu3nz5pKdna3fRdC2bt1a/wb/uIEBBgKI4TqNCD/77LNViPpQjns3v+FfhDvrWObf0GOqD64/wcl25SIeCtcMN/enn35ar/urr76q9w2xvbP77F9HjoePD9eHe7+ngxeGYRhG08FEtWEYhtGkwFUZyy4CDjdl3IFxWcaiuXDhQrVQXn311eoajPszH+bk4sqMyEKQ+eIPK+zu4DdYZZ977rkd2+NzzjnneN/4Lr5Qrbt9X4zecsst39rWnXfeqQJ1T2BwAIswAtEHIckAw3nnnadCnjnGF110kQpkjiP0nPnuzqzJWPMR/IjXP/7xjypmQ/ezP7BPBiJCg6ox2MA1qXs8fIfj5tpj6Wcu+80336zu3Zwjrua7us/1wcAHAzCGYRiGURcT1YZhGEaTAqsuVthQCyoWWSywCDTcfLHOIrwBV+xZs2apqERwYalk/jIu0cybRvj6IhhLN8v8i3hHgCLemJOLkEP88SH4FW7eOwNrKi7JzDtme3ywUHNMBOXCnZxj4JhYRxnW7d3B8XAuiFNcr304F7aB8ETsM7+Y8+T7XA+s7cxBZn9Yi+tzgea7zFXHPf7aa69Vd3q22VARsxHIXEvwBT6WaAKp4ZbvD0DwL+foW8GZH8254GKPh0C3bt30mu3sPvvbqQvXm+0w0GAYhmEYoVj0b8MwDKNJgRszYg9BjLgl+BjBv1q1aqWuwIhrlpnzjAs2860RX+Q8RhwT2AvXYT6IW4Qe1lDEI27PiE8swczZHTRokIpLBDcRt7Hksl8s4ohaLK1EA8eNm/m9lLMv5v8iTnEb5xgQexwHx4jVmyBaHLt//Oyb7SHGfRDZHB/HyXb5HnOGicLNvG5EJ8HTWEaoI7Q5Z77LsfMvohVxjxUfiy7nRhnL5PXGFZtzZp40LuIIz7lz5+pxcdxcZ64lc5OBgQXOjXNlwADRy76xLFPGdeK8uS71wfa5dsxlxx3bt6JzTXHdZt+cM4MEzGHnXn/xxRcaeZ3tc63ZN2Ucb333mW0jnrk2nLt/TRHfRD9nHv6ezuk2DMMwmgYmqg3DMIwmBZZNrJWIMd9NGDdw5hFjhaQc8epbLJk/jJBiPYKMYFtYchGUfB8rNYG3cA1GbPE7ApERURxXaoQ42+D3iF9+wxxeAmDhyo0o5/v8zQd3aayobI/fIWB9yzWCmv0iPBHBfB/rOYG+/DnPPv5cbf7lHPmwjKBGyIK/f7aB+GdffIfj5pwQ6gQlI0Aa14pz5Zg4h44dO+p1Q5zyfY6Rc+UaIH45X+Yxc558j/1wXfmb/fJ9ts15cox8n3PnPNhPffA7hLN/bfgdv+GacE9YZrsnnHCCnhPnzPGxnvvC/Tv++OP1WHZ1nzk/tsvxsQ1gv2yHe8dggGEYhmH4xAV8HyrDMAzDMPYKInRjlb7iiiu8NbEHFluCujEXGcGJxZv5x37KrHBClwVrM5bl73//+97axodBAuacc84MgBiGYRhGKDan2jAMwzCMnYI1F2stIvbUU0+VBx54QFNlhc7JDhdYsLHYY/HHnT5c4PaNK3+4BxEMwzCM6MAs1YZhGIZhGIZhGIaxj5il2jAMwzAMwzAMwzD2ERPVhmEYhmEYhmEYhrGPmKg2DMMwDMMwDMMwjH3ERLVhGIZhGIZhGIZh7CMmqg3DMAzDMAzDMAxjHzFRbRiGYRiGYRiGYRj7iIlqwzAMwzAMwzAMw9hHTFQbhmEYhmEYhmEYxj5iotowDMMwDMMwDMMw9hET1YZhGIZhGIZhGIaxj5ioNgzDMAzDMAzDMIx9xES1YRiGYRiGYRiGYewjcQGH93fEs2rVKvnss89k2bJlUlxcLJmZmdKjRw8ZM2aMdO7cWeLi4rxvGoZhGIZhGIZhGEbjExWi+quvvpJ///vf8uKLL0plZaXU1NQIh42ITkhIkMTERDnppJPkF7/4hQwePNj7lWEYhmEYhmEYhmE0LhEtqsvKyuTRRx+VG2+8UQoKCqRr165ywgknyLBhwyQ3N1e2bt2qgvvll19WKzbcdNNNcumll0pqaqouG4ZhGIZhGIZhGEZjEbGietu2bfKf//xH7rjjDmnZsqVcdtllctFFF0l8/HengVdUVMjjjz8uN998swrtn/zkJ3LVVVdJTk6O9w3DMAzDMAzDMAzDaHgiUlQjkp9++mn5/e9/L0OGDJHf/va3ap3G1XtXzJw5U373u9/JnDlz1BX8wgsv1HnXhmEYhmEYhmEYhtEYRKSonjt3rpx99tmSnp4ut99+uwYi25MgZLW1tfLll1/Kz3/+cyktLZW77rpLf2sYhmEYhmEYhmEYjUFEptR67rnnZOPGjXLWWWephXpPo3rjGo5l++KLL5b8/Hx56623pKioyCs1DMMwDMMwDMMwjIYlIkX1Y489Jt27d5eTTz55rwOOpaSkyPjx41Vcv/POO7J582avxDAMwzAMwzAMwzAalogT1QsWLJA1a9bI8OHDpUuXLt7avQNBzu9nzZolhYWF3lrDMAzDMAzDMAzDaFgiTlTPmzdPkpOTpXfv3vVG+t4TCGjWoUMHtXKvXLlS81obhmEYhmEYhmEYRkMTcaKalFiI6aysLG/NvpGWlqbivLi4WCI0a5hhGIZhGIZhGIYR5UScqCYFFlG8id69P5CWq6qqSsX1ngY6MwzDMAzDMAzDMIy9IeJENW7flZWVsmLFCm/N3oOY3rBhg1RXV0u7du322Y3cMAzDMAzDMAzDMHZFxKnNPn36SOvWrWX27NkqjPcF0nExN5tAZ23atDFLtWEYhmEYhmEYhtEoRJyozsjIkBNOOEEWLVokU6ZM8dbuHfPnz5dPP/1UDj30UGnZsqW31jAMwzAMwzAMwzAaloj0i/7JT36iEbsfffRRTbG1N6xdu1buu+8+zVd97LHHSm5urldiGIZhGIZhGIZhGA1LXCACQ2OXlJTILbfcIjfeeKP88Ic/lD//+c86N3p38Lvf/OY3ctddd8kVV1yhv9/fKOKxQ0ACgRoprdog5dUbvXVGLBMvSZKe3EmSE5tLnPvPMAzDMAzDMIyGJyJFNaxZs0ZuuOEGeeqpp9Qd/He/+5107dpVmjVr5n0jCIdP2qzCwkK57rrr5Omnn5bjjz9e/vrXv0qvXr28bzVtyqu2yPL8x2XJ/KlSWVYpge1mvW8SJFRLfLPt0iynufTvc5a0yz1YEuMzvMLoIiC1UhuoktraCoaHvLVGLBMn8ZIQnyLxcUm6FMsEpEbfZTW1JVq7eU5rAuU6EMp1SIxPk+odZenuWahwn92Vxel2qmuLQ8oq3ae6nrI0t949X35ZQqZU1xSFlFVrOSQlNHNl/C7gylLd+pp6yxJcGcf/TVmWt81gmQRq3TlWalmyK6vyy+JS3Bp3LfaoLNuVbQ8pE1dWof9+uyzZrYnbeVlcvGtb3PXWsm/2F+/K4nZaluTKEnaUhZ47ZfFxie5+ltVTlqjlXFOuA/cw0qH95X5V6/nU7jj3Gnfu/nNao21zsIxz5LvfLQue+zdlya6sypXV1F/m6g51KFiW7MpKtSzelQW0vu6sjPrq3n+7LUtxZSWuzJW64/ymLMF9UndaluDKqvwyt33//cQ1SdxlWZorK97D37lSV8+/W0Z7SD3fjzK9vsF245uy4PMRLOO5rnDrU90nUX8XzXDvuNbfrpOuL7yj3n1TR7TMXaP66h1lwTaUMuoI9YeyOK9s9/WH+0L92VnZt++ZK3PHqHVEXJm7Z/XWn30u4/2RXqfMq3ffKft2/dm7sm/q1q7LOE7O3a11ZayrWwb8jmv1TfuT5v4u1WOnjPum989dW8rDScSKali6dKlarF9++WXJycmRk046SY444gi1Picmuka7ulry8/Nl6tSpKqYR15MmTVIx3q9fP28rTZvKmq3y5ZL/k6Xv58vG54dJ2fJWXonRFEjIrJCMPhukzYmzZcSkY6VPh/O9kuihqrpItpYtkG1FK2Xrlo1SUx3spBuxTWJSsuS0bC9ZGV0kO723CppYg/Z5e/FKKd1eKmUbUmVr0oduba3kVE6U4sSZUh2/VeIDmZJVNUa2Jr+vZdmVE6Q0cY5UxRe4sjTJrjpECpPf1bKsyoOlLHGRK8tzL/cU3U5hytvBsqpxUp6wTCrjN7myJMmtnCwFKW9qWTO3/YqEVa5sg+uBJkiLymNlS8prXtlBbv16V77OLYu0qDhRCpJflUBcjWRWjdB9VSSscSUBaVlximxJftkrG+aOv9Dtc1WwrPx7bpsvallG9RCpiStyZWT5CEir8tMlP+V5r2yQ22uZlLljdQfqys50Zc9qWXr1APftale2WMtal58teSlPe2V93bbipDRhoVd2juSlujKpkrTq3q5rlSwlifPdd2rdNs+W/FS3TVeWWt3TdTvTXdlcr8ztL9UdC2U13SUxkOXuxWwta1l+mmxJfUnLUmq6SlJtcylOmuWVnerKXvHKOklybRspSvpKy1pUnOzuw+vur0pJrmknqXEdJdBiubRs3ldaZA53nUJEf+RRXVMmxeVrpXhrgZRtSpKt8oXUxpXo+SXVtnbnPkMSAs3cte/n6uR8d0+LXVlHV9bWlX3plfV192SR1MRvd9ekvZYXJX3hyjLcfemrdZJ6nlzbzpV1cWWfuXqdrtukflS7es615D5tT/7EK+vr6txqV/fy9TjS3f3dlvyxPg/BsnWubLNX1teVfRQsq+kjFa6OV7lnIKm2lSsb4MqmuLJUSXNlVXGbpTJhg5ZRD3nmgmW9XdkWV7ZOEmtbSGb1UFf2nj5jaTW93Hlvdftcq2XNqoa7e/2OK0v2yor0WBNdXWlWPco9q295ZT3dtSx157jSKxvpyt52ZUleWYUrW+7Kcl3ZCH3GKaNOiqvvZQlLtSyzerh3LIleWcCVLZGE2hz3O8reD5bVdtVnm/aBOs2zuzX5A12X5so4ptLEBe6+ZLnfDZOK3BnSvFUXaZU5UlISozM2UXllnhSVufq72V3ngjhXfz7V+sO9LXN1knpHHUmr7uXVrTSvbKnWu2Adof5M9coG6P0K1ruWXv35UOsIfwfrZJ7Wg8zqwXp9410dSa/u78rWa71LdPcleM+4Lylum31d+xqsd1pWNUq2evWHfVfF+/XO3c+q0a5uBetPenUfPX7a3sTabFc2zpW94cqoP731WaRNpyyrarxr61/3ynqF1LssV3aIK3vNK3P1zrVR5YnL9NnlfRLcZrBuIcbLE5e6MvdO0rI3XVmCq1uu3gXitW5pWZUrS3bvFq1b3XTbwbqVocdCPacstbaLXtfSxHlemTuH5Hd0W5SxrRL3rqOMd9TWJFdfHam1ndy6bFc22/2brmXbkj7S40up7SAp8a0lvtUa174Oktz0/k5kh699jWhRDUQAf/3111VYz5o1SzZv3iwdO3bU/NNlZWUa6Zt50wMHDpSTTz5ZP0QPN1y9lBpZtuUR+eLpL2Tp38dJoNZcgJsqqR0KpduPZ8lxp/9eMpI7eWsjn8qq7bJk+auyYMbHUrggQcrXtJJAVfSPnBu7Jz61UlI7FUrzQaUyaMI46ZJ7ihPWOV5pbDBv7vMy890PpXhpjmyf1UVSu2xEF0r58naS3G6LxKdVSqAyUSrWtJbU7uuDZSvaSnKbQolPr3DPgnsmVraVtJ5O8LqyilVtJKnlNonPKJdAtStz20nrRVlAKla3lsTmRZKQWSZO4UjZ0g6S1nttsMw9V4k5xZLQzJUF4qRskXvH9gmWVa5tqesTskp0H6ULOkt6Hyei413ZupZuX2WSmO2Vze8i6X1XB8vWt3DHX6Hb1bJ5XSW9nxPYlG1sLvHJVZKYWxQsm9tN0vuv1LKqTbkSl1jjjnW7lpXM6SYZA7yyze7+u3+TWmwLln3dXTIGOWFOWV62HntSq61eWQ/JGOjKEmqlOj9LAjUJktS6MFg22/2ObVK2xZW5NiXJXVPOV/fX3x0nZQXNpLYiSZLbBstK53IO7vwo25optaUp7j4VBMvmce7uuriymm0ZUlOcJsnttwTLuC5cM8qK0tzvUiVzyErJ6VUth0y6XNr36ubViMihtqZW1q+eKzM/f0bWf1YjRXM6u+u+XeKSq6Vmqzu/klRJ7rBFAu76cF+SWm+VuJSqb869Q36wzN0X6mRcqivbni7V2zMkpWOe1uuqvBxJdNvkWee6cE1TOoWUufpKHdIydy9SumwOluVna73iGagpTnX3MNuVbdLnQX/n6iPPQK0rq8rPkZSuG4Nl7ndal90zQFllXq6kdtugZdWuLN6tp7zWnVulq4ep3V2Ze46oP+wrIatU73nlhhaS2mO9K4vXfXP8CW6fWra+paS65zHgnjHqFteLY6Wswj0v+jy6sirKklxZrisrS3ZlrYLPMWXuXONcXeH8g2Xudz3d8++XufrOdaNM9+eOxSklLYOklq6snDJ3nO4cKKsubCYBng93LwLlSVLB7/wyd931+XDPDmU8n82GrZLMPgUyaMQxMmDkkZKYFLRGRgsVpRUyd/4TMu/DmbLt61baTqZ0dvWHeuDOL7GVayfdfdM6Elp/3H1PbBGsd9QD6m9KV69ssytzbRZ1obYkRZdTurm65epI1SZX73K8ekc9cPsI1h93z9z3qDta70LumZa5+sp6rXeh99qVVbp9J2R49Y6yta6OePVHy9z7Qesd93N1m2B7Th1x9TUuxat3lLn3grbndevdt8pc/aEsMVjveHbLKWOb1BHqlms7qXeBikSvzB2LVxZwhVq33POpZRyn1jtXt2rjXd2qp4x6564dbQdlvKNSOXdXT6tdGxOoTNJ2WcvcO0rrq6NmW6bUuPqd3LYgWOauS6p7xmlra1z7wjabDV8mbfu1kDETz5OW7TtLuLJARbyo9sFqPWfOHI0KPnfuXHnppZdUSOMa3rdvXxk0aJC5e9cBN7Xpy2+QaVd0kpLFbby1RlOlzfe+lIlXDpU+HaPDWo071Mo1b8snz74l617o5V5S2dpRMZoQrvOY0XOTdD57uYw64WDplHOSuo9FO7itrV47Vd77yyLZ9JkTBdvTvBKjKZGYUyoDzq+VcT8YLq1zR3lrI4NNeTNl2oOzZMnrJVK+ztrepkhCerV0OKRKDvtde+ncbqK62UYDFdVbZPGMGfLp/Qtk8yfZUlMWXQMCxv7DoFRKi2oZ+etSGX3MCZKZ2tkraVyippXs2bOnnHLKKfKLX/xCLr74YnUBHzdunAYkO/XUU01Q10NVbZFUb0t2Hbbo74Qa+0/5mlwpKNq7aPoHkuqaEpk/72VZ+0wfqViXa526pkhtnJQsaSNrnussy76aLyXl67yC6KagaI7M/vh9J6jTTFA3Yaq3psvSN4tk3vo7vTWRQkDmLX1Eln+wVcpWW9vbVKkpTZRNcypk7sefSmHRYm9t5LNp63R3zB9L3ufNTFA3UWizyjcny8K3NsjC5U95axufqGspmUudmZkpCQkJkpycrMtG/TBRP1ATx/vRMKSmhAAcZd5S5FNWtVGKCgqlclO2t8ZokgTitA5sWVIh5RUF3sroprB4seTNSpDaCnt/NXVKl7aRbSsJolTsrTnwEKiosHihlCxv4a0xmipVBRmSNyNNSksKvTWRT0n1SsmfFy/VJZEZq8AIH9u+6Cx5a4nrER5s+NEwjIikrHKT1G6PrTm0xr6hcx7LiFgajPoc7cRVp0rl5lydU2c0bdSiMvVw91fk1AWiJAc2dtfnzmjaMO+2dm0PiS/q4K2JbIglFCjNkkBxM/V0Mpo2VVszJH7lwd5S42NvdMMwIpSA/s8wgPAfsVIdUip6SlxxawseaSgph78oJZVEUI8MkuKbSdzqYd6S0ZRhbmpV66+kosV0b01kQwqphELXvpZaphsjSOnQf3l/NT4mqg3DMAwjjBRnTJNAy2XaYTUMqUoR8mFHCuU1+RIY+oq3ZDR14moT3Sc65iYT4LS6w6dSm7PSW2M0aeLc/6rDF1fKRLVhGIZhhJH42jSRGjqpZqk2RKqX9pfkhMiJHREniU5ZZ3pLRlMGb5r4kvaSUBYd7t9x/FedqgMBhoF7W9KGsd5C42Oi2jAMwzDCiLp/F5n7txEkLrVUA4tGCknxGSJrhnpLRpPGNVGB+Er9RAVx8RKP+3eJuX8bQQLJ272/Gp+w5qnOy8uTv/zlL7Jt2zZvzb6Rn58v77//vvTo0UOGDh2qkcD3lfj4eLnvvvu8pdiCOVpfzrxTPr2qq1RsauatNZoqmQPWyui/rpeD+//TWxPZbNz2obz32OOy9NZDvTVGUyUpp1Q6n7NQJl1wsrRvfoi3NnpZvOo5ee/3KyXvEyesLV1Rk2fwPc/KpINvluzUPt6aA0tlzVZ5+fHrZd7vx3hrjKYKU1RaHTdXjvzdEOnR8vve2siFwamFy5+Wd67dIIVftvHWGk2WONe+PnGnnHLQNG9F4xJWUb18+XKZMGGCbNiwwVuz79TU1Kggjovbv5F+UnKVl5d7S7GFiWojFBPVRrQSa6J6/rq7Zcr/bZL897tLoNoiLDd1Bt70kRx1yrWSmdzVW3NgKaveLK+9eanM+9np3hqjqRIXH5DWR62Uo343TLq1O85bG7kwp3rBpjvl3V9sk63TenhrjabMsHtflRMPf8JbalzCOkTepUsX+frrr2Xjxo379XnzzTelffv2csUVV8jKlSvr/c6eftatW+cdnWEYhmE0PonVrYJzVgPm/m2IVM0aK6mJkeOuGi/JIoUdvSWjKcMUFaJpJxX18tZENhja4kpbSlxlhrfGaOokLz/e+6vxCauoxk27efPm0rJly/365OTk6LbS0tKkRYsW9X5nTz/83jAMwzDCRWpFH4kramdzqg0lZdJLUlK51ls68CQnZEncypHektGUwf27uvVMqWj+pbcmsiGlVmKBa19LWntrjKZO2ZA7vb8aH5vMZRhGVJOemyLtBjSXDkNbfvMZ0kJadGsmiSkJktkqTdr0y5W0nBTvF7snISlecjtlum1k6d8NSWbrNHe8uZLZMtVbEyQh2e2zc6a06pUtrfvkSBv3qQvn2rZ/rmS1C1+KiKS0RD2Wb11fPoNb6HFwnTmmtOxkPXbOoaGvWaxRnPGxBFotsZRaRpDq5AhLqZUngeEvektGUycukOA+0RFNG/fvqo6fSG3uCm+N0aSJc/+r+XZfqzGxno9hGFFNz0Pbyel3HiKHXTlIRp/fRz8H/2SAHP/n0dLj4HYy7PTucsYdB0v3cW29X+yejOapcshlA+TI64ZLuvu7IelxSPB4R57b21sTBAF/zA0j5ejrR8jQ07rLoJO+O7+y54T2ctY9E2Tk98Pniteye5acett4OfUf43ZcXz6jzustnYa3kl4TO7hr3ENa982Vk/46RiZcMUgyW6Z5vzbqI77W1akaOqlmqTacpl7WT5LiIyylVoW5zxoE/vJSapVGS0otR3WKpdQygmhKrfAFXDRRbRhG1FO2rVLe//vX8vzVn+jnzf+boev7HdNZMlqmSlxCnPSc2F4FH4K729hvooJ2c2KbdZQhFrG2thvU3P2bo1bYAcd21t9j/fa/d9AP+khOh2Cns1XvbDn4x8H143/UX9oP3vWUkhXTNsqWlUUq8v1tAOI1p1OmLH5/neQv3S5b15bo+uz2GTL2on66/e7j20picrDZjk90x+T2Nf7S/lo27pJ+apEndmN8Yrx0Gd1aBwYoG3lOrx2Wes7NP4+xF/dTMb8ncNz+9eXz4i8/lXmvrXLHWSyFq4uluvzbKYFyOma469RbDnX7OeSnA6XPEcE5mngODP1edzn08oF6DEPc302NlMoeElfcWsTcvw1IrHL/FzleC4nx6SJrhnhLRpPGiZKAuLY9LnJSvu2SuARJ2Ora19KW3gqjqRNIqPD+anxMVBuGEXPUVNRI0cZSSUyNV1fk5PQkdefetqFExd04J37b9M1RkTrhZwNVSG9dX6IWYsRpRotUqSqrlionFEsKyqXj0JZy+K+GSueRraTKbbvvUR1VKHYc1lIO+9lg6TO5o5RsKZd2/ZuryGV7O2P7hlJZ9flmJ6AzpMeh7XVdWk6yivGK4ipZ9cVm6e+EPJZg3L0Pu3qw+147dcNu4YR3kjsX6DC4pQpTPfZ1JU5Et3EieqAK6m7j2sjEqwY7wZ9Dn0iGnNpdBXabvrm6vqsT3OXbK92/bXQgoFmbfXcn73d0ZxnnxHl2iEs65zbukv7S98hOer64unNdBp7QRQad2FVGfL+XVLvrmJiaoOvrs8rHMtUJBSLJJa4DGLbkG0YEk9hzvlTW7F+q0YakNlDpHuL13pLRlCH6d23meqlOj5w5/7smIIHUAgkkBQelDaOq3afeX42PiWrDMGKKuPg4nfOLgMxbss0J6VIVyHNfWSVfP7dClk3dILkdM9UNG7GJ6vzkv/Nd2XL5+oUVKqCZ94wFFkG48rPNMuLsnpLlhOfnDy2WLx5aJPNeWy2dhreU/sd0lvaDmkvR5lL56qml8vbNX8nUu+ZK0aYy72jqZ/WXeVJZXK3iFxD8nUe0kvVfb5Hizd5v40R6H95BOrv9LHx7rXx89zy1DFc64Q0DnThNaZYkXz6+RL5+frnMenaZtOqZJcPP6KHHm5CcINMfWSyf3b9Ard8I/77u08YJ7YJVxfq7N2/80p3TIiewdz+S22dyJ7nwmSP1c8FTk2Xyb4ZJVtv6xXjnka31Hky9c67Mem6ZfHrfAinKK9PrjaDnHuk5/WeevPiLabL2q3zvl02DqqQNEkhzIspEteGoLWglCXF7HvOhsakJuPagxUpvyWjSBOIkrqqZxFftmUfTgSYQqJXazI0SSCny1hhNnYSiTt5fjY+JasMwop7MVqly7kOT5JrPT5Wff3qqnPjXMWqVnv/6GnVLrq2ulbLCoHCsLHGi1AlWBGF2h3QVzr6QXfTOWqmurJWUjG/Px2rdK8cJ5zJ1gcbCunVNsVSW1ai1F8tyr8M6yM8+PEkmXD5IyrZW6vpdsXZmviz7eIMKTKy5nUe0lpTMJFn5+SYp2eIL3Dhp2y9Xj2e7O5fyokrZvGir+9cdv9NibfvlSMdhreTsew/T8z7hL2OkeddmktU+Q1p0zVKX7HWz8qWytNqJ6CJ3DQJS4q7B2llb1CJ/+bsnyPCzeuq5V7lz2R3L3fE+fdlU/Txz+VSZ6kR+sRPK9YGLd/MumXLavw+Raz47VS5+4WjpeWh7FdOb3Dlggb/ouaPkgicmu3XxUuiuZ1MisbqlSIWl1DKCVM0aI6lJkZRSK0lka3TMoTUaF02ptbVHlKXUamEptYwdJK+I0ZRahmEYjUFxXrk8ev778vfRz7vPc3LLiGfl8YumSN6Srd436ocXcKitsLZ2J5ZDT/sE/PIA/waktiYgr1z7ufxt+LOy5P11MvCkrnLJi0erRdj/TX0g8pc7gY6rdq/D2kv7oS0kb9k22bRwq9t0cB/8nPnR4K/jn4B3xBzLKifCHzzzHT3vvw1/Rv7c70l575ZZwfNyX/Z+FvyhHm+tPHPFVPn3pJdljRP2o3/YRy595Ri1tu8OrP2I6OCnXMq3Ver514s7bqz195/2lh7brQc9JzcNekrvEXPf/3XYS/L+rbMks02a/PDJI+R7t49Xwd1USCvvL3Hb2ltKLUNJmfhKhKXUypa45eEL7mNELppSq9UsqWgejFMS6WhKrS0DJK54zwOTGrFN2eC7vb8aHxPVhmE0SYq3lKuVupkTdunNg66XfSZ11EBgdS23W5Zvl2atUqXrmDaa+gprcHJ6oorjFj2yJKNFirx2w3R57IIPZNv6Eg1qltos2ft1/WAVX/NVvnQd20Yt0qun56lF2QfxvNGJ7PiEOLWqsz/cu1Mzk1S05i/bLuluv1ntgpG2sf626pmt87MLVhepSznztJm3nNMxmOaqtiqg30F0P3/VJ/LCz6epVb3zqNZ6Xg1FSX65/tv7sA4qlgmqhhWdYyKAGX/Pen653DrqOVkyZb2m4WKOe1OhKPMjCbRebCm1jCA1Se6RjpzumKbUGvGct7RzaDOyO2RoMEUGCH1IZdjCPeO0raHr9xVS99FmsN19gbaPNpApQQRz5MMxA+0rx0nbtLvt8z3iWjQktOst3TvEPy5iZJCeEFKzkrWsWev9z6bANchu765jl72/jlGXUqvTR1LbfJm3xmjSuL5SXE34ptaYqDYMo0mydU2JzH5xhSS5Dsa4S/tLv6M7ydDTu8vaWfmy9MP1GlEcgdrloNby5RNLpLSwQqNZDz+jpww8oausn1Mg62Zt0RRYp94+Xvod1UnnaWPRRSgSnKv3pA47nXcM819bJek5KeqivXF+gbfWIyCyEOE9I0/6Tu6kkboJCoabOMx5eaVUllTLsNN66L4nXTNEjvvTKGk3sLnO7+ZlMvL7PWXUub11PvXSDzfIpgWFcuLNo+X4Px+kvyHyORblJR+sk7b9m+vx+x26/WH1l5tlw7wCvZ5c18EnddN0W6QCI8L6af86WIa568gxEPWcY9s4v9D7dewTV+te8pZSy/CoXt5XkhIiZ84q1j6p3H3wQrIXTL52mBz+iyGuHfum3UAAn/rP8TL+0gHahu4vE68aIt+7bfweZyoIBVFPQMrjXdt49A0jZMLPBsnJt4zVKULEfSArwvgfD5Bj/zhKsz3sCoIqnnHnId7S/sO7gaCNp/xjnKaEnPTzweq1Q3YGBhJoj79//2Ey+oI+3i/2HbJgTPz5EG3/GcTcU4IptdpKQlkwqGakoy2qptTatwEYI8Zw/ajEjaO9hcYn4Q8O7++oYf369fLUU0/J4MGDZcKECZKUFOxkGt+mqma7rN84Xda+mSM1JZETBMU4MCS33i4dJxdJ51bHeGsim+KKVbJizhwpmNbFW1M/dJqwtq6fXaDRs+uS4MpLCoJziYu3lOn3S/MrZN3X+WodZq40HT86iBvmFsiMJ5aqGzaClTd0SnqSzHt1leQt366WAyzCeYu3yfRHF8tGJ1K3b3TbTIhTiw0u1wvedEJ4Zr607JktR147XCNz8/36yFu6TV2oV32xyYnnfI02DliXSavFHO7N7repruOXkpmownODE/MIbY6dfXNM7LuqtEZmPrNMA6ttXV0s29x+ybFNMDOuzef/W6jzrLEiJ6Yk6nxyznGuE+ebF23TqNxjXOeN4wgNtIalGbfxDfMK3TF99zyw7LPdNV/luetfrdeE49uyjHMLBmHjOFZ9tklmPrvcnc9WqamqlWzXocxqny5r3HkQIK6+e+eTkFol2YPzpduwvtIsbdf1IRoozt8uy94sk9J1TnDYvOomT6txW6T3iIOcsN5zsdO4xMnCd1dK3me7zp1NW8jAXMC1YQSAZHAQEHBMgdm+vlQH2LqNbRsMujiilVp6S117zPOO5ZeBwh4Ht5VOriy9Rap6BWGdJeMBA5rEnWjbP1cHPxe9t073OfD4rq6sjXoEVZRU6fZ2Rqpr/yZeM0TbsXdumunawUWyeWGhDDq5m3Rx+8RjiWPLapehA6m0cRwTMSA4pvaDm2s8CrIbMJiKpw1xOTgOsifQZhOvg785Zo6FJ3rIaT2k25i20mFYC7USE7tix/QhB4OXpDok08OsZ5bLOzfPdO+ONToFif2oZ5Hbb+dRrdzvsNZnaLaJDNeWluSXaawNgmryewJDthuYKzVuXbFr3/W6Msh7cDs9h4yWafqe417xvljywXp937EfMj/U166H0qxbmfSc0FZysqOg7XUXv2B1oSx/q1LKNu3/gI4R/XQ4epP07jvZW2pcTFTHMCaqjVBiVVQzxxeL8c5EGe7YiDzfJRmxyTLzgqFgZZETr5tk+ccbNSo3gcZg+8Zg6ivWMSWZDmLo95hTDAQtW/HJRl1Peb7rFCIas9qmaaeHKNv+d+tCZ4ljQSz7ghoQ9wQzAz8YGtvHXXylOyaid9NBw10c4R3c98Zgbmt3rJQhdP0yomv7Lu1bVhTJcu94V366SYOEIezbDWiuc5xnOeGLtd2HDiTHsrOOF6J/1fTNmlJs3ddbNOI6wdy4vv5xsz/Oie1yfTkeXe8+nNOuBDXEmqjO3z5blk/Nk9K1aSaqDWn3wynSudPBkpoYGbl1a2rLZNHC1yXvo3bemvrZE1GNZ82YC/tq+1ZaUK6ePrg8V2yvkmFn9NCYEgwuMvg2yIk82nNcs7EoI2Tzlm5XKzhtMO3M2Iv6SqsewTSCeMHQxq6fvWWnwSHZFyn7SEm48rNN2q4z7Yf2kQE+jqvDoBaS5L5Hu9R+SEvdR/GmMteO12jGAizk/I5pOgjUpVPWq9gefmYPPXbavFE/6C0jzu6l7wYGKPsd1VmPsU2fHCfQ20mha7PJROHDdBeyNHB+nz+4UKrctaMdLlhZrO067TICuKsT5mnZKTo4wVSh3hM7yJblReoSfugVg3SaEZkquN4MPtAO8/fgU7rpYCnXkuOhTcYyzjZpg0f/sK+07p2j74DQaUd1iUsISNrAZdLt8DRpnj7IWxvJBCR/20xZNqVAyjdYsDJDpOUFz0q/Dhd5S42LuX8bhmE0AoWrS9T6QGcqGlj60QZ576+ztFNmNC5VSeskkLbV9Vi/sVwZTZfawpYRlVKrOuDagNYNMye13QAnRJunyDLXvpDi77Xrp8vCt9ZIy17Zat2d/ugSXT/1rnlS6MQhmQlwHyfuA4NuXz2xRIMbvvvXmeoRhEhFyM56brm8+tsv5NMHFjqRuHNLNdkSvnxsiQ4AHPd/B8l5jxyuLtwIS9IsMiCbt2y7DgAwwEmWA4JPfnTnXPnqqWU6UIi7NIOyW1Zs133NfWWleuXUB8dN7I2ybRUyz23/3b/Nkg//NUcKnIgPheNB4CLuqyu+ia1AlgdSIDJAq95StQFZ4wQ15zD94cWSnJmk1mem1HA9PrpjjpaRFjK3czN1J2faEd5JM55cIh+5fb/5fzN2eEslpibqNBzuyWu/+0KnOu0STamVGV0ptZqtl0DKdm+N0dRJKO7o/dX4mKg2DMNoBIo2laoFJVqgw4jrttH4JFa3EKnIMCu1oVR9PVpSkyLDSg3BlFoNM4d2rROl1ZU1Opf3R68eq/OWSauHBZugWcf8YaRc8cFJctHzR6n7NEEjEY5MOcGDBQs1wpMpObhQI6iHn91TLnnpaBlwXBdZPX1zMM3gTiCY5KJ318rD574nT/34Q/Vc6nlYBzn73glOZI/yvvUNpC3E2kzcCfaBe/XeBFtjChCeOZ2Gt5LzHj1cJl49WF2v66YfRBDjko7Ltp7kTmB7JQXl6n2Eazn/4gmQ2yVT3cEZJPjZlJPkpFvG6mAE15RrSyBLAlOWbq3QwQKCV0Lr3tnSum9O0KtoJ95HoexIqVXcw1sT2TCoEVfWXOKqdh8TwGgaJK841vur8TFRbew5rv9HdMrzHpkkv1t0ttyw5Pv672FXDdaGrKFg9PpnH5wo4y7p761peIgEeuo/xsl188/S8+BD8BJecsznOvu+CfL9ByZqsKk9pfPIVnLBk5Pl4B8PkJSMJDnrnglywdNHaieBACkXPnOkuqoZhtG0SSsfJHHbOmqH1TBSJrwmJZXrvKUDT3JCjsQtOdhb2jk7tGA91Ti4ygnMqRvkrqNek6d/OlXnEZ9861g5//HDpZ3nqvzERVPkn4e+KP885EX565Bn5H9nvSsb59YJ2uiBO/XzV0+TB057W/KXbNOAXtfOOUNz/e8UdyC4VRdvLtXpMS//+jP5y4AnZf4bq6XPER1VyIdCwDL6NV1GtZb3b/1aZj27TN3A9xSm9GCZJm3hnJdW6Pzsy94+XsZe0u9b16mipNoJ6hrJbJX6HdFOP4TPzohzX6ccazbXlut327gXNJXkFw8tcoVxKr7rk+oa/2J6np43rvu7I5hS62upyJ3prYlsNKVWnuuTFkVHYDWj8SkbdI/3V+NjotrYI+IS4jSC5kk3j5GKomp9YdzY63HNNcu8osN/NVRdmZizg2AlnQbBkxiNZR1zkvjwN+sA4YlblV/G95PdusxWaRKfFK/Bo1LdSzgxOUEjYTLCrdtwf9dHUmrCt7aX0ylT51GFwouINEOMmpMW6d6T3tDzePryqeqydaI7P+ZWgabhcNtgW8z38rfFMbLs74e/Off03FQNMIVbl56L2w7BVfjdJ/+ZL89d+YlaAjk/yhlR9o8zOSO4bYJK5er6ZnouBBNB2PvXzNgzuF6ZrdP0Ovr3ieWGhHpAXWfQhPtPPeD+NTSkPyE4jn8e/of64UcCb0iCqVcy1Bqys3pHfaVuct4NOJ7WZCjKnCKB1ovCllJL08C5tpd7GjoASptJW0SbtatOfCh8jzrP7+q2r6FQjwiYpOmA9qKOUKdD23E+WODYFtvcG0LfP7S3zbtkSkaLVD1ffX4a4XndJ2oT3SWKnAepvGazBEY97S3tHCzJJZvL9Zqm5aTofaZ+sIybMRZpBC3t5MZ5BfKviS+rmzLf5V0ZqKnVfgVtHNWSOdTcZ97/9cH3qHe4YD9x6Yfy4i+m6fpdpePrNaGD/OSN42TClYO/VV/VCu6EZ2gb2qpXjrqXL3CC++9jn9c53JTXZzTg2FlPIEyOK8mdr1pJXRl9lATXb5ly+2xNs4jrdZs+ud+6wwh85lO3HdBc23f/2pG9gYjfp//7YO1H1Qeu67irc61w4wbqMtshgBmxK6jfCYnueNx2aau5J6Du66+uUtdyrOi04bsjLhDvPtERTVtTanWeIrXNl3pr9h36aqHtEB+uK+/+3aFtj6sH+lzsAuqk/76tp5o1KtTb0L6sejl4baL2O1yZn240auG5qg1fwDoLVBbDNGSgskzXII++oK8Kzim3fa2RiYG0QglJ7oXiHkBSA2G1HnVuL53zQzARgoAc9bsR0v/oTjLguM7S5/AOkr+sSKrLajR4CSkkOg5vpQE7CAhSXV6tI7u4KPEyK3cvD9ycDv/lUOk1sYO6exHMBHem0IifNAT8njlTiObBJ3WVkef2lsqiKnVxIoomkON32Ok9pLV7cX5w22xZNysYDIrAHwTyQMjjjsX+yedL9FFGwUmlhPsW0ZY5v0k/HyLdnAhnn6N/2Ecf3A5DWkqnka305UUnotPwltp5y3Bim+iiw8/qqSmNCC5y8I/7e9E528rIc3rriDXbPugHfeRod73aD2qhc6OGn9lTGz2NbF2y62BOuyNWA5XVhY4N1/6IXw8LRngd3UavI+lJiCwbGtl6f6BenPL3sRooBosNkVxxQ2zoOdR0suhg9T+msz5XPSe018+4i/vpi2/Tgq1adxsKBnHGXdLPiaF02bLSPRchAdR8iLo70j0HPFfMgyRQUWMSc4HKts2RlVNKpHSVEwNhsFa37pWtbrbtB7aQFZ9u1EB6gIvqybeOkzTXsSa6+57UIwZDx/+ovxz604HqYkpApfqg3Trm+pEagRj32z2tIwOO7aJeQ13HttXATNT1vkd2lH6TO0mRayN5fhFqewId1VNvGy/Dzgy2+UShTk5PUAvdcX8cqW16JKRya9E/IP1GHhIx0b9rastl8YJ3JO/t3t6a+iG4FvCebO465cC7k4BdCL8Fb67WwWrqHuKNdzrvvXz3vp39wnL3vk3Vdpl3OR16+gpZrt1B7NLu8d6jXvr3mxzOWJLxZmOgv59rgxOS4uSzBxdpILH6IGAibRnBwhA4DHYjVod8r7tGwWY+d+u+ufqMIDh5Z+c44UQ9oy72mthe23cs7ohYUg9S7+MT4vUYNVd3++D2eRcsemetpmgc4d73mIp5xngWvn6ezAffuFsTWI2o4Xi44Y7O9ULQEyQtJTNZo5QT+I1BB/owuJQj8ugfERgTt/fu49tJB9ffqXLP7dBTumufAQFfWVztrlFr3SaD9Cf8ZYw+47wvuA8Ez9zmRDnvR64H88rVDb0+XPOU1TFBeo3rHR3Rv6VW8rZ/LSveqZDytTsfbNkTqGtHXjdc3expj2iLRrn+Gm0g97K+d6NPhrtXp7n3Nv1iAnbujK5jWsuJN42Rlu75IYbAnrZt+wvP4sDju8hxNx6kqeX6HN5R4xlQxwi+2qJrlpz93wn6PBCEMJrpOD5Bevc90ltqXExUxzANKqrdgzb0tB4aOXnx++ulwpvDxMuPxp3GIDkzUSNTktLh+as+UcF9lGuQtq8vkdd//6UGxOjsXr50yIn427Zfjix4a628d8ss3R4vCITj18+t0BcC/7INXlAb5myRN2+coflseQnjRs28Jw3k4chsmaYNH9t94/fTtcHjZY7A5Xv+8fJSHepepsyzWvj2mh0RoYF98ZKlw8k+GHlmn+Qy7uc6dbyMtriXKaN3RFX+4PY5mkaIholIprOeWRYc5X5rjQYHoaGqLK2RV377uZ4zqSsI1sJ60i29fsN0mfn0MtfRaxO0bNPIHddFln28QV645lM9RtJ6MNeVNEkmqvcMOjmTfzVMXwZv//krtYxgJWFuXC/3Ulz8btDNsvOo1hp5lnpDmhesKowaEzmV+8V6Bny4N3Si6CBRn7jf/La961ARPZW5ftQx6g0dMTp+1E8EMB0qrCikail3dQRLQm/38kLo89s2rjOHJY0I5DuDckTA567jSLCeOS+t1A+dOzpcDHARvbXD0BbSZ1JHPWamaSCQ6Kwy0kw94rvUPUbF6aTxUuUZoUyvgXupcy7x8XFqZcE1k+OlThNdFgFNehoGEyhnfiPHjSWSAS+mTbA9oohTzr7pIJC2BXGERaa1q/fsh5zfoRHGd0esieqi/K2y7K0yKV3r2uUwzKtmoKS7E7e0g7RBvqjGgkVHkcEmyqhn1A9cQ7lf1HnuMyCOuc88Gwz6URdo97H4UacRrNQv6h4WcO5z70nttc0l6jP7YMCTnOkdh7VSqyAd+7odU56Jtu5D+/jpfQu0rq/6Ik+fXyw/Na5dbOueKdIzMXiGdY961teJNZ4rhA7LiB6iHnPMPP+0y+Smp85Sr9sPai4rPt2k0fBV2LjrwLPDc8l7wX+3hINWo7dKn1EHSWJ85EQrXvjeCsn7bPeiRCNVry7WekPOeQaUWUa4EfGf+cQINjIL5LoyrvfXzy3XSNu4cyPa+B3Cc617nxIcDDFIvUBUU0foZwAinnaFOsW2eCeSApEI1juDus5xVLv2xveiw/MBofPRHXPVssv+aA8Z3Ea81rrfcEwcN88LIgNxr9kVHLmu/qyekSeF7tzxUENMr3HvANrV1TPyXX0rVLFKfaUeLnpnjYpt/7nzYX53/rJt+t5B1PM80sf64uHFsurzTeqlRzvOdeD5wU2c+r5u9hatu3rcrl/Swgln6jzPCvWcgS6+R13munKuWKe5plxz+jpEE+fYqOcMcpDlYWc061Kpz0dOTmdvTQTj6lPBGlJqVUjZpv3r9+q0Alf1Xr3+C/nsgYV6fbkHGEiok/Q36ddhMCKtGe2f35fAANTrsA5qsSbaPGkx6R/r94a4PqD7HoMmTImg78t2+buda5f4l2cI6EMQeI62ibaXus8zxwAP2/fbXfrA9BWB+t3niE7Bfoprc5kuwIBkKJ1HtNa85Rtc2/j0ZVM1nRvvZPrHDELR7+g0qpWeP/WedzZtbk/6TO5Y/P4C9Zx2l/OiH9HateuV7p3A4Bn79/u7FdtdH8i9YwhcSGT8jq6/wkAn36f+s336WvSB2T79CImLaxAjSIfJW6R3v8O9pcbFRHUM05CimhF/Ggk6JaSl8FNnhMIDQcedDjgpJxDQPKB0ghCidHaw/ma1zdA5R2yHh5iRWTrjzTs305cSAkajV7qGn99imaZD36Z/rjYqjOilN0/WlzKNFdAh5MXBy4x5Vjz4dPIZpSaqsS+qeflh8cOCjsjnpVQXRAiimjlPCGVefOTF5AW00L0YeTnywsLizfHw8NNRo3Hq7jql/E2AKtJ9IMzJcczIeqioxmKO4KOcPJQcl7pLOoEyxYl1OrKMZNMI06iYqN5zEtx9YsSVThIdDzopeAHQOeOlQ53p5urpQef21pdNsmvQqadYuOmMMDqt99/VGVz26JjzUiHFCi6EdC58SwoWivVztqinBJa7mqqADpJgBQFGtEe5/TDPjnqNVwMik047ng54aCD+6fDsDF5u7JM6xUvMhw4iLzn2z4vtkJ8M1G0hhjnmVj2y3fmU6EDCiHN6aWeU+kW95flF/I84q5cEPLE87Iye2ukr2VKhg2EMpPEMMYiwznXqqIc8VzxfpAvjpVnqnp9W7juTfjHUdSAztN7qoIR7kdPxQ8hN/s0wfc7pIHL+DDIwCOGLtT0h1kT1lm3zZPlH4UuptSeimnaPNEYMFtGR5z7RYUMEkT5o4s8Hq6WLutPHtc9sg/aWNo86ToCnlIxEGXVeb7U60sbSYaKTi2dRmqubh/x0gIoQ2vP+rv5wXLTjodYZRDWds8XvrVNLMiSmxOtAFYM1Wa4zOfzsXjqdg84lkZPxTGJ+LO05zx/HzeAuz0MHty2ef1wred7owHF+PL9rZm7RZ+Kg8/to55HO4Gj3d2pWioqrcNHuwg+kc8dISqlVLovmvy15H+1+zi3wjuR68U7lQypCf8Ca+rJ2Vv6OMt77fjpDvsN3/TJS9yHyaBvIw892fUEN1DnqKpYzvk9d3tWApA9iEmHt74cP1lkf2kwGytkn7TSDRXyHcyKgl38+WMNZx4f3CF4O/nFwjqQ7xNrNQELo9cCbqK6g9uG7DAr43+WdVeRZ3an/7JtzBgawMGJwXYD+Evvmd0Qt91Nj0XfgmfO3yTNG+8/7g/P2+29si+/tSlAHU2otlW5HpEZPSq2ts2XZB1ulfMP+BStDVNOGEI3dz4qx1Yld+qsMai98e60cduUgbW94b3Zybc2w03vquzIxKUH7wPyuzN2Poad219/RnpL6jHRyuEBgeMGIlNupmQ6+0x7R16a+ZbRI0zaZNpPtEPGdvgn1Ay/Hwad0V28HprnR50GI87wc/KMBKl4po31n4Hy9q//+OUDrPtlqnWawnyj4GHF47ugz0A/ivGlzOQ76HgyCjr+0v/aTcH9n2if9YDQBcYQGntBFt5Xo+rEMZLLM+wGBP9ydKx6ttLt4avbAWOSeW/rinCueq9RtvO+6uGvBeWCUwAOG59FvS/aVlhc+Yym1jMiCFwINMeIhMXnPqg0dfTpUNCK4K/FBTL92/RdafsJfRsuJfxvjOjct9GWlDf03708FIUv0yw3u5eVvY8o/Z6sFuW7eXDrvZ959qHauaByCgvnbG6x1DQ4vEI6NztXewig3bsUcO4FMVnkDAw0BLvS4mRVtDr5QEWJETTX2DgZiGOnnHh/12+Fy9n2HyfduH6+dNTwDuKaDXIOPwP7wn3PUWkHHY+xF/fSlSJWhbpGmhLQtuBli0cZ613tie+3sM1eOwRIdrKlTZ6nzvGAJGMP36Hwhfnmh8qKY+/JK+fiuuTLz2eUqLvYVtskzwxbISSruBTftvgXy2YMLNQUNFkNEBK6zdLa4JlPc+b7xxy+104VrIwNBH97hrsG/52qnjCkZjGwD9RqhxGAPVkoGIHg502nEshEKshDLCl4B815frYNojMbz4iUXrB/wJ2jp4dtNm8rkNRJIL3SXYt/vf2OA8MSqS72d8fgStYZQhxDNeDCQcu2LhxZrx5/OG7nPEQ9v3PilfPbAApn+6GKd4sKADG0wA1oFrv1f8PaaHe6weCZ9fPc8V09WqdW6+yG7Fm503NoNaKEDsogLOqwcC5YVjiU1K0k7jnRwea5wm8USzeDOnFdWSqnrSKp4cMKirrBB1NOx4zs8rzw7eCb1Paqjdl7DRW1hiwhLqVUm0maxt2Q0beIkripD4quaecuRjabUylorgdRvBqAbEiKx03fIaJGi3hm870hZ9sl/5qmLP+IU49LiD9a5tqpUNswpkEWubZr+2GJ992Lx5rsIaFysGfynj7t+dr57D89xbdg8HQRCJMcnxmk8HtrMz+5fKPNdm8d+6Udg5SWA3tfPr5D33Pv1zT/NUPHJQECLHlky85llMu3eBbpPBrwZeAyFgRaMRFiT6SOdfe9hMu5H/TXn+oK31uwwRhEHCGHL4HpVRbX2i/DEZBoR/YWeE+gbxOm+CcxH+4tF/5XrPtf2lOPY7q5Dq95OxLu+Od4TnMu0e+drf4zYBEAZfQ+8WvFQYjuI9wHHd1WBvz/El3Tw/mp8TFQbewSChA4N1jGs1j4E6WAk7Yy7D1E3lVBK8oMunoy2MtLnfxip5gHC1RCL9ivXfqYjz/WNljKyRQPD3Gg6cv42sErTKPnQMDDXKN8d4zM/nSrzXlulLoeI1FBwH2O0FqsMHT8fOpNDT+8h5zw4UUfZdgajboijLx5eJC9cM00Wvrt2x6jv/oLQobPYHrcXB25DKZnhC7AQK9DZpz49ftEUef7n02SbE3K4p572r/Fy4s2j1WLKqOsA95K44KnJcvHzR+nceOpEhqsTDLww4sp9pU7yksRCRoOPRa1wTZG6Km1aWCilIXUwFEZd+Q6fSqy0KQk6Ao2LF+5+bHvplHVavidgSWYw56dvH7/j03ZAropYRnVb9shWF1YGlX761vFy/J9HqzWZEWxc1gtXFuuziCDGIsNINC5ZQ7/XQy565ki56Lkj9XpkuJdX6PPNNAosfsQKCIqb3OBLts6AFp0CLCE8r4yOA8KGbXGdaAN4QRes3O6uYf0Wm6ZEYrV7xiMwpRausLi1Ui8Rr/yLVYV6hAWDwU/uMW0olujK0ir1SKBNP+PuCa4eHaXtOnWlLgzy4CJ43kOT5NKXjtZpPVjK8eCpC/XmjLsO0Xp+mavPx/1plHbafBdFnklt/10PBlf0QG2ttv08V7wnsEzj4bE76NAi1ntN6ijn/G+S7g9LO5YhOszhomr2QZKSFBzMigSCKbXCN6hgRC6BmjhJ2NZdEi2l1g5oA3mXY2Ci7WNwjr7j0TeM/Nb70wchjscBRinetWc5AYtbvg8ebuvnFaolmc/WdcXaftGXQbwOObWb/Oj1Y2XMBX10v7TN9IGxbrPfk/46Rj0WaJ9pr/kQx+DHrx2rfQIGR0P7u0Dbjoh/4LS3dDCSwUnmi592x8HqzcYUHh+mJuKJunV10A2cXOoMUvpBTV0t0XaZ6RKUrfx8k3qGnOva+jPuPFSt+twXgrwxEMtgJ99lsN/vx+PdxLbop1325nEar4Y+V7NWqdp/2h9SVoTPO9NEtbFH8KDPen65PmhH/GqYPgAw4cpBauHbvqFMXbdCWf7JBvdgFaobNFY+DXxw7wQ5/7HDtXFJSktQywGRhJmvzRwNxG0ojAhucR3xwa5RQZTADx45XM57eJIKCR+2wfYQorhtDzqpqwrtup07xM6Ct1arJfGI3wzTxgcI2HHktcOIcbFLdzIs535QNkTw2fdMUKHdEODKheAY/+P+eh5jLuyjwsjYe6hXCEfE3xv/96X8bfgz6mLNwEvvIzroSxHL1H+Oe10/t40PpiPBtX9nEBAH8egHXEJgh7om7g6/bvsDPYiSPf09c5He//ssPdavnlqqgXRwycJti5cTLPtovTx0zrv6nbuPflX+MfYFHSnGMFzXIs6x8BJkxHzHNRj3gvzDfRD7PswNYy4homrUD3q75zZZNs0v/I7Frz549niR+vvmvPfHMh9LpJUPjsiUWtwj/95qXXf1k7aID0LWKwj+7VXkY34/Uq6dc6Z0GNxc3vnLTFmsQcnqrx9Yb/z69q8JL8ktI5+Tr578bpRe3jfPXvlJ8LvHvib/nviyPH7JFNm48NtBxbh6wefSHY73LPFs7/HAjdsA5zv7hRXysPfs/PPQl+Tvo59TC0u4SDnkLSmtXO8tHXj2NKWWEftoSq2Wc6UyZ7a3JrIJptQa1KgptZo5wcs7Gdd9cpmfec+hOu0RDx/fdT8Uppr88Ikj5Nz/TdL26aHvv6OD6zugTaXd9V6P9C14RzMt7aqPT9bAkF89sUQ+dCK4xv0ebzxiD9xx+Mtq7cVr8rcLztLc6rTVG+cXaFwjv629efDT8vJvPgtuPAQELVZoBPJD57wn95z0hgpdvHcI2uvDscQ7tUi76reztJveK+A7nP/YEfKrWafrdKApt83WWAnBd0nQ85S+B4S22/QXtm0o2XHMd05+Vf5+0HNq8cbSvT+UD3jQ+6vxMVFt7DG4i7z+++lODFTLDx49XB925ocG3bG/VIsyVi3crnlYeOje+ON0DZCAu/R5j07SUTZSS9GJWfjWWnUfOfehw/WhZU4S8+QY5dq4cKtGbMWi/dkDi3R0zN8nHSHmI4c2Sli8Zzy+VN0Jf/TKMeouiLWSQQBEcChY3974w3R1c2QUj20SzXvWs8vlsYs+UPeXUie6cQnEagnF3ggi84+WuH0R3ZTck0lpSRrZFpccRig3OxHHXBnmDjKSSA7Ks/47QYOcYWlBAGHJ8+eT0nhybmyb+Vgf/2e+pGanyM8+PEkt4gj8/BVF+92oNCW6jWkrl79zgky+dri6+COCqYu8QGjAmc/ONWdQRgMfuTLcjLBU00HfGdQbXgqM+DJyyqgrFuQ9pbIsKKKxHPMcEJyEgCR7CoKUY/30/oXyuXsmiBh76BUD9XmkPqU3T9Xz5TsEa+N8mG/KQFJWh2CKF+AZS05PknJ3PXAh43z4DVY73Kw4th24B5kRZ9Yxn6ussFzWz92zaMnMm2TgiQE4nkPc8Rnt5qXf1Al3Sq2ybVVS5s2p99PBMK1B67y7t0yv4V5heSEwHe0xbZYGZ1xVrG77xA+gfmGdoO6TMglLArEuiOR828Ev6ry9hJ1YFZgHSsok3P+ob376wXqnE7lml04m3/M/OiATbI53wHuGtER+PArqKR5T/L0nHkRVpTVqRWrWJmgNYT/UU54lthk2AqRiipznIphS6xlvqeGhDWCOvbY3XntAACYsVf6HurknbQV1Em8H2i/+pn3bX8tWKGyLNps2tS54PVHX/GPmfcIx+PBbjocyrJlsx/8ex8zzxfOIJZG/9xXacAwVjUaE1c9dEUyp9WGDpNSqDwQsbSReV/xN+/nKbz534u8LbUPr89LhHciA9KvuO4hX2pjQ9yxtDYHLaJOpD1mubtS49o7ng0Ck/znuDfnqyWX6O26DPj+u70Cd+eSe+fLX4c/qIDt1C8843u+U0X/lu/RN/Xbfh7nNV7p+Zv9jgjFKGCjFk5Oguxip6Ov4YF3GEMVgAvWM4yVYJO+Juu0sU3EY9MeN/YEz3nHvj2D7zHHzDsD4Rb+e64Rxyq/3THukr07wNdphSHPlHDeD8/sMPw2Ery23QGUxTEMGKvPBvWTOyyvVAsbcEOY9+BZqXFKYZ4qY9a1nuI0zR43v+tET/YdwyQfrgttw2+J3RATlX4QH7tvTH16sQp4HUbfh7ZM5JIjQuiDGdT/ue8yFZVuzX1ypAqouCH/m4HH8/m84bi1zYgOhzHwTGhOY//pqjRbO/FjmEOL+HTyW5VrGedH4LXl/nVpA+Q7Hzt9YPBa+tUYtpbjBMn/36xdW6HYZsUOk49YYtOyJzllhRJKInwR0YN4rwVL2l6YSqIw6SoeFxp0XDw0y0xbwhqCukkqNlxMpUPSau8/kXw/TlwuWbYKOUD9wI+X3pEPjvn92/wIVoQSm42XXd3InfRESKIxRa+Y4b160TX9Dx4ppCghXRptx618yZZ0OvnBcjDbjwYGnBG6r1AnEBi8sXM5D0w/VF6iM+kWgM46VeVu4ZBMwCndaRsIZ9BlzQV8dhcblm5c/L3xeUqTnYuAGt108SNgXgvvoG0boCw13cgLr+UFyeNbYNsGqCDA244klGuSMQR88UXhh4hVCsB0GxuhwEGCEZ4NnnaBpfIcOJSPgHAfPvh+saE+IuZRa22cHU2qtzHW9mf3oMOwhDKzQwWeunz+QRD0e5p4JrC1EJ6Zj3+OQ9ioSCp2I7n90Z62PTDGgHlEHtXPmOmzMsabDxiBjlvs+0WJ57oae3l3n3ePOiHUCIc5vmFeN1xGxCagH1IuxF/aVEWf2lDy3bZ4vn/oClYVCxG9cvnk+8xZv1fcDzxHR71HZzP1Ly02Wj++er1MSCHTJ88Ezzfn7EcexHpFNgnNj/jTHjHCadM1QGXJqV33WeKeFgxYDa6XfCFJqNfPWHFg0pdbCtyXvrT7emoaF9oMYKEwJoA0hYvJxfxwloy/oo/eIAEzM1aT9ZEDHt2bVBwGRzrjjEPX8oZ0Ze2E/14YV7VX7sjMQPrRZh14eTB+3oz64RxYhO/DELnLU9SM08jzBVUm9ybuB4E20c9Srk28ZJwOO7awusKTjJDUpzwhBG5lmgDWPvxl4xCtoXzjdnT/Xkvcb7X+D4s61Wcd46T2ul+Rkf3tebmRCSq1ZDZJSi/nJDCASGwLxRz+C9yr18qM75ul7nSBjGEe47wQpoy7TnvGOQzxyAakLBIDkWtKnPOyqIdKyJ4F0yzQ7DnGFcjs30zrGVDQyExAkV6Nlu7YNYxVTZ2gvEZk8EwT0IrAXMWLoe1DXiFsyx/V5ma5FO4ow7+P6KaSqox9A4DAfAt8ScZ66icGAc+O9zUApfV281Ighw5Qg6iXRu5naE3DVi98RfIw2mv4qfSneLwT4491CDBYGXenfMsWMaN60v/SJ6OewH9pm0pAyEEAk+mVTN+p5dxsXNCbRDky6eogOWuQt27ZDU+wLHQ+Ok959j/KWGhcT1TFMY4hqo/HgpUjUZRoWxA9eAHQUcPFtiM5dUxHVdMAYhCDneYse2RrFmM+G2QXyzs0zdUSWFCk0/kxJoAxL70d3ztO4AVifecnwUmFbNOpEeUUw8i+pXBAmNPwE8qIjs9111BHKCFU8HLatK9W/eYFmNA+mwFj60UYN4oTgplPJS4aOGSPe674ukLHuBYnQwdrHYJQP1hA6dwyuIFx8eAFjWUegIMqpI7ygOB9e3riHMZiDWxoDB2ybMgZrPv/fQj0XOgMMDLAesTH1rnkqqslHz7nhtcF2Ge0ucZ3URe5lyyAAo8217h1Hqjtejrw8V03frC73nB/uv7iUMTjFMteLD5ZGBB7zv/jdnhKTKbXeDF9KLeB+4ppIpwYRyrQV8vOTp5f6znx59Y5ZVawCm7rBACaDJdQDOuvUFerY2llbZLMTnaQgxFJMh5I5/liT6WjhlbNKozeXamYDLBwzXX2kI0fQnDb9cnR70x9dooOPoRZo6gvPJs+VBgKsA51K6hvlDAhgXaEuI96ZH41g/uLhJRp4j3pLXAqeHW1D3aVmjj+d5Iriap0PScRntsczSRvMPhlI4DkJF61GFkufgyIopZa7Hws/WCZ5nwanRzUk3F+m4WS3z9RBbSzMp946TuvGe3+bpcEjuS9tXD0dcko3HZBBRJAJgzRvxBwhCCJeL9Qv7jmdeAZ41rk2mvtK6stOw4LCggjGCAXEEfug/cETARGsKQ/ds8BAaGlhpda7UBgAYn4p7wfqOvUEaI/JgoD3ztyXV2mqQ54jhPxBP+ijg6+0b2RI4PjI141AYtCSQQSm6iC+aGup/4gmBnR5thigJNd3R0075+pzRa2KOPaJ0GAglQEhLOC+9xvHN+SU7npu/sBrQ9Ksc7UTTh0lJ6eTtyaCcc94wdotDZJSi34Y8O7iHcmHeA1v3zRT36vF+WUqOhGkxBAhYw3tIgPRDPoBHgr0D+hPUJ9o++h/LHciEoMPfQPi//A+J5sM93mBe2+Tko77i8WY+kT7hiGIlGgEPyNoL8YB6ggekXhGEgCSfTOoQzvbygl3+jOzX1ipnpihUFeJBM/zx345NwYOFrq6Ou/1YL+BY6H9pM80/401Wg/5HteDdwD9KdpYnmnaVI6L9wHRzjkm6njR5uB8cgYQMFTxLuF5Y7onbuz0bxiAQHAzGEE+ddphIp/zzBHQkhg3+0OHw7dL7/4TvaXGJS6Ag3uU8eWXX8qpp54q55xzjtxwww2SlmbzTuujpNI9mDPvlE+v6ioVmyJjBNzYNQRJo5FkBJROJ0IF99uGIHPAWhn91/VycP9/emsim43bPpT3Hntclt56qLcmuiEwCVZvXipYfHmRnXrbOH3ZEZmbAEm4on7tluu6VEUjDBj0P7qTVLuOKvNmEXFEY6fz+uE/Zwdz1O4hSTml0vmchTLpgpOlffNDvLXRy9IVr8s7NyyVvM9yJVATPte0XTHs9O5qpaUzR5YGI3wMvudZmXTwzZKd2jiW4b2lqqZIXnrwzzLvLw2fQol24Ng/jNIATAjRidcM0Ujtj184ReOK+Oj3/jhKrXzPXz1N56TitYNYwaqLGCbQku9phBssQgGrMtPUiPXCQBGeRFvXlaogxeONgUZiriBw57+xWsUKA45T756rg32h0PEn4BOeaHje+CCUv/ev8U7I58t7t85SseEz+od93ae3zHtttXpMdR3TWsUEQ2cEnEJUEwywzxEd3P5IzVUiYy7qq1khsPZhpcdyt80JDDyEiFxPdGnytBNBf7N7f9A/IJoy82mZSoewOfnWcSpS3rnpqwYZhPdhikqr4+bKkb8bIj1aft9bG7kEpFYWLnpJ3rlurRTODAZ9NSIDLNR8ENAMIpC1hDrN+4Z1jcXgJ++UUw6a5i01LpHxNt9LqqqqpKysTBIT9z4lkmFEMozYTXOdg4//M09d0htKUBsHHjp/WFhwezztXwer2yDz6LEGMoDCvSf1RiwIasBiSGotsgPgnnjMDSPVAjbHdWwbwjUzmqlMXiWBDPdsR1hKLePAULu1uSTERU6mB02p1W6ht9RwIP6YHoJ7Pl4tWMZaOuFKexAqqAFPIKYMNO/8jUEAV/8vH10sM55cqp5Bu0t7hrfFOzfPcuJ9kROapdJxaAt158Ytd/ZLK3a8Z4vyyjTFINZvH+a3Ip5xKS/J/7ZIxdODY+cYQwU1YFmj7eODtwQClzaPaXNY0fGiwr223qCNTnkTUR8PHwI8rfs6X6dCcM3In45HyQd//1pTJhITBks5AwycZ767VniSYNVsWOIkrjpD4qu/iVYdyWhKrezVEkjbN1d6o/HAI4Npc8f/6SD5nusDMTUOz6aGmN64K+JLGi9oXV2iTlQXFxfLY489JoWFhTJ//nzZuHGjV2IYhhG5YJnFTfClX3+mI7Mvu3/fuWmmun/htseLJdS9O9ohtQZutE9cPEXd0rDokM8Y74umnn89mFILd3jsV5HBonfXySPnvy8znmicAD/GzqmeM0pSEiMspda2XecP3xcQqligEZRYoHE9JWBdzU7aA1yb/QBhOFXimo9rKXEnGIjEsrsrGKBEmLM//iZ2RMteBKjMUM+gS185RvPzMu0BQR0aeJJpP51GtJSywkq1dIfCMTNIyjHUJRjg1P0+ZR+6105ns02EOteH+C644HLMXDcGA859eJKc87+J0vfIzpLVPl2PA39TXIwR2M1aNaznpqbU2totylJq5UpclXmwRhpMr3v2yo/lteuna67rV3/7hXz+8KJ6YyQ1JCkrwzOfGqJOVL/66qtyzz33uEarVv9+9913pbKy/lyxhmEYkQLzkhDNzP9kjif/1heIKZbgZRl6vsyNrDtvsSmSVj4o4lJqMb+PedexXicjkeQx70lZVeQYCJITshslpRZuy0yDwWJNgETiMzAvPi33u7l9gbmXBFhqSNh3RVGlzt9+6Ox35cEz3pY7Jr0sT176oVqCfeIT49QivWlRoQrzUIo3O+HsBD8RyuvSeVQbjWhPBpGGAoHP9SKdIsfM587Jr8h/j39dBxl4t6z5Kk9jsDBw0ZDg/l3TYr5UZc/11kQ24UipZew7eHfQH+CzefHW73h6NAbl/R7z/mp8okpUb9++Xa677jrp3bu33HrrrTJy5Eh54IEHZOXKld43DMMwGgasIHTqdmcN2Vvo1GERoUMW+mFfmnqikcFtkQ/H0RBgbUrLqZOKy9glRZkfSqD1Yu2wGoa4ehBJEwHKa/IkMPJZb6nhIGI8Hju4K2NR1KCSs7ZIem6yDD+rp1qAgbaEqN4dhrbUAGQNCe7YWHcz26SphxApiMi6Ubc9JCAY7SQR5utGH18+bYMUrCnWuBht++Xu+C2Bo0ac1UNF7vq5DefSShAoLNcEf8LLx58iRBAr9sz+Ow5pKQSQbIyKFIgLuM1GUg3dOcGUWh9JbfPw5Zk3IhgekLjwecZFTS8IQf3jH/9Y8vPz5ZJLLpErrrhCTjvtNFm0aJEKa7NWG4bRkDDf56LnjtK5dnTCGormXbPkjLsOlcvePF5dD/mc9/Dhct4jh8uA47uoC19jcuZ/D5Wz75mgkTkbgmNvHCU/ee1YTXNk7BlxgSTX++M+N1y9MqKX6pW9IyadFmDtk6qGzxiCtZXIxFiBU5xgBTIRENWYAGMTrx6sc4iHndFDo2iTLWHavQv0ew0F0eyZajPabZ999Tuyk7bHh/5skEZq9sHdmnnR5GmvC+7kn92/UAcUj/j1UI1mzrZoC9u5dvDzhxZrVPmGYs3MPJnzyioV+qRRItXT924fL8f8fqRGXub9hCu4RgLPb1hX2kAgTuJL20hiecNPB2gMtEWtSXJtrA3yGo6ASOKmkd5C4xMVKbVw9b7//vvl73//u0yePFl+//vfS2ZmprRp00ZF9VtvvaWptTp06OD9wgBLqWWE0lRSau0tLXtkaf5FIsAS5IUIs1gFiMJOR4nOEekw+hzeUToMbhHMJ+06U7gt4cpMuhY6O6375Ep2u3SpxPqxi2BjpHMhXy/bfPzCDzSC6+L31mqaCjp4RH3FTZr0G+QzJX0KApgOXmJKvHQb31at2riSY+Fm31h+OB6i1XYe2Up/S2q2lj2yVewSwIYOF6kphnyvu1qJFn+wTtNZMJ/QPy/AZRvrPGktuh7UWvOrkppG86+646IT12Fwc819TQCdTiPc/tw5zXt9daPNCY+9lFoFsuyt8rCm1DIil5bDyqTvaFJqpXtrDjCBgCycslTypjVs9GTm/hKhmgBjtLHkD6cNJUgjrsu0uVh/mfO88tONGpOhdGvQYEKaty24js4ucO1dreZLJ4IwOWxxKyeFHymOEJhYt7F2Y5Ump38CIj4zWQOdLf94owYApQ0l9y9tKyJ75lNLNV2STxvXnuOeTtv8Hdx54MbKPrPdsdJGc9y17lym/HOOBiID0r8xF1zzR7vzS3XvDVItFqws1jLSX5FGiPZ7vVtf7Npe5o2TZgu3eNp3lldM26TnlJqVJM1dG887q3BVkaZAxD2eeecMApcUVMjcV1bqbxqSZp1qpdehnSU7h7zLEY5rTgvW5svytyr3O6WWERt0mFgmvQdM8JYal6hIqfXFF1/IxRdfrNboJ598UoYOHeqViDz//PNy+eWXq0v4Cy+8ILm5DZ9XMVqxlFpGKJZS67sgog+5bKAT0mmaqqXD0BbSvHOmTLl9jgrnMRf2lal3zlPXt0N+MkBz72JJxg3v8wcXabooolsTiZZUJ4jTpR+tlxmPL9mpxQChe+wfRmr581d/4q0VFfBH/HqYWmdIazTqnN7SyQlkIsgibLeuK9bULkf8aqhsd53F5372seYyx7oz/dHFmpbr4B/3l54I9gVbNahNMJdvqQpgzu/tv3ylQW7inaj+6M650v3gdtJpeEvt6HHsuEN+dMdcdWMkNQwdXwKp9Tu6k7oYvnrdF5LeIkVGndtbI/birkkeWKkNyNOXf+z217Cumj6xllJr2Yo35e3rnWj5PDtiUmoZB47IS6lVLC/df5PMu7m/t6bhoF0d9YPe2t5MuX12o+RVbmrQBk++bpimLiSbREMSlSm1Fr4i7/x2jRTOND1gWEqtb7FmzRq5/fbbZcWKFWqhDhXUcMQRR8iJJ54on3zyiTz88MPeWsMwjN1TWVIt815bpWKTDt5H/54rcfHx0rzLtwehBp/cTa0JiOV3/zZTPv/fIl0+yIlL5ke/+X9fapqThe+sUTGLxWVvwUJcvLlMXRBJ+8KcwjkvrZD3/zFbZjy5RIPmkONxy4oitTxjScFiTFAcrMxYptsOaC4b5xZoIJ6q8mpZ5I6HgDxrZ+WrBduf94xlAwt193FtNNXL+7d+LW/eOENa9syWIad0UwsPQXHeu2WWXhfSXmS1SZfuh7TVYyMYDqloyImav+zbqXCM3VORvEICmfkMa3trjKZMYFtziY+olFqlIh3meUsNCwN3S6es1/YTt2k8YIz9Y+zF/SR/yXZZWifPdkMRV50eXSm1clZKIM3SkRpB4kvDN3UhokV1dXW1Wp/feecdOfvss1U81yUrK0t+85vfSMeOHeVf//qXfPXVV16JYRjGrtm6tlhd9XI6ZMgPn5gsR98wUl3s6rL0w/XSrHWanPjXMTLx50PUZY/OYU7nDMlbsk2jxpLmhQjX+P7gIr23ME8PV0jSviCQSTNDEB/+zV+6TQV3bufMoNu364i26Zfj9u+WnQBOy0lWkYwgX/7JJt1etRPVuE6SloW0MAhqAvIA+2BbdGyxjFeVVcv6OVvceZWoyyFRObkuuGn+4LHD1SKOkMZdPLt9hmxbWyIl+eVSuLpYXTiNvSOxOlekMrJSahkHjqq5rt2JuJRabbylhid/6XYdsMPzpsK1m8b+MfXOufLhHXO0TW5oArXxkrCNlFrdvTWRjabUKs+xlFrGDpItpVYQ3L4feeQR6d69u/ziF7+QjIxvEvOH0qVLF7n22mtl9erVcuedd3prDcMwdk338W3lwmeOlBNuHuPEaam8cu1nUlJPKhRy9/7n+Ndl3iur1BJ9zkMTZexFfdVKXV35TQRnZtMEavYtonNSemJwrvb2ShWwCF7mH0Lw76BVk/l/CO3Oo1q7/SdrGqSEpAR1ZUdAMwCwO4LRbuM1qm0g5HCZEwgI9J+8ebwcdtUgWfbRRp2nR0Rb5iviBs4AgB8Rl7naxt6RVjFQ4rZ1cNfQRLXhOn0jP5Sy6uBgWCSgKbWWjveWGh4iWDMnmVRV1n7sPwxsMtDbGMTF10pN7iKpymrYgHGNxTcptdp5a4ymTkXvZ7y/Gp+IFdXr16/XfNQEIrvyyitVWO8MRqYuvfRSdQUnaNnTTz+tnVvDMIxdQcCXpNREzff5/FWfBAOM1dN0IELLtlbKJ/fOl/u/95YGjSGgWXV5reR0zNBUWAhOguEkpROcxvvhHsJvm3fJlOwOGZpypmBFkaQ4wc4+CLyCZTqjRYpGz131xWbJW7pN2g9srkIXkU0nlaBhWM2rKnafPgKLeGlBMCBZanaStqFYoTNbpes59J7UQYrzSjV366f3zVervP7O7YdgOOktUyQ5I1Gt35y/sXcUZUyVQKslllLLCJJcqW6rkYKm1BrxnLdkNHUC8dX6iQY0pVanqVLbfLm3xmjSMG6d0PAeHDsjIkU1Aclw+X7ttdfk3HPPlUmTJkli4u7dKa+//nopLS2Ve++913JXG4axWypKqjW9C2mzmLN86j/GqXgl32dofurj/u8gufSlo2XAcV00Ymyz1ukaPfurZ5ZJbqdMmXztMI3oPfqHfWTzokIpWLnd++XOIQcq++SD9Xv0+X1ky/Lt8vXzy2XmM8tVII86r7d0PaiNDDm1u3s3xMkXjyzWaK95S7dr1FqieeOqjXUbkYvYr5tTtT6IRLvys82ybX2ppq7BzfuEm0brXOt5r62U8qIqtYIT9XvYmT3d/rupgMYqj1s4bub8Zvyl/aSLOz5j7wim1OL1a5ZqQ6RmVa/IS6lVbXOdDbyvgim1EsqiI6WWUpvo2tiIdsQ1woXrDiVsHu4tND4RmVJr1qxZ8tvf/lbat2+v86X79NmziJitWrVSQY61mijgQ4YMkaSk786PbCpYSi0jFEup9V1Kt5RLfFK8tBuQK11Ht3GCeJumW8Eyi2W6qrRaI2iTloUI4aROIX8p4vXr55ZrwB2CnbGeFFQI4S8eWqypXnYGYh3Lc2p2sttnaw0+hus2UXA/vX+hzlNmbtz62QWaIquL+w4W6mn3LdBjAUQxInepE/aL3lun5ayb+8oqPXbmf5OihuMk6FimW2aO9bKPN0hO+6A1nKBqG+YU6Hxy9oG1nIjms19a6c3TTpGOQ1to+aJ31qrQ3rK8SOa/uQZzgA4ukLpr3cwtss1tb8W0jSr4G4NYS6m1PX+LLLeUWoZHy0GV0m9s5KTUwtNv0ZQlkjfNcs8bpNQS6XVIF8nOjYK0ta45LVibJ8veqpTyjd/kHTeaLh0nVEuvgY2XRSaUiEupVVZWJueff75MnTpVo31feOGFkpy851ExcRe/6KKLpKqqSu644w4ZNWqUV9L0sJRaRiiWUsuIVmIupdbyt+XtG5xo+SxLCARkNG0iLaVWdU2JvHjvX2Xe3yLjeIwDRzSm1Fq04DV5+7erpXBWjrfWaMo06ZRaDz74oLp+H3/88XLqqafulaAGgpZdcMEFsnHjRnn22WelsNAi0xqGYRiRQ0XKMglk5rk3cESNaRsHiMD23IhKqVUVKBHpNNtbMpo6wZRa0RE7g9gENbnLJZC+xVtjNHWYvhAuIkpUk2v6T3/6k7p9X3311dK6dWuvZM9JTU2VyZMny5gxY1SgT5s2TWpqdh+4xzAMwzDCQUJNjqXUMnZQNXeEpCQ295YOPJpSa/ve97+M2COYUqtrlKXUypa4akupZQRJXj3Z+6vxiRhRvXXrVvnd734nGzZs0PRYffv29Ur2HnJWE+CMedWk2CJ4mWEYhmFEAmnlpNRqbym1DCVp2DSpqM7zlg48yQlZErd0nLdkNGU0pVbOUqnKWuytiWw0pVa+a1+LoiiwmtGoVHZ/2fur8YkIUc207rvvvltmzJih86ERxPHx+35o/PaEE07QzwcffCAPP/ywV2IYhmEYB5bijI8l0GqppdQylLi0UqkNRI5HXXlNvgSGv+AtGU2dQEKlBOIrvaXIRlNqdfxEanNXeGuMJk2cq7/JRd5C43PARXVtba28/fbb8r///U86deokt912m1ey/yDO+/XrJ3/+8591jrVhGIZhHGjiAomWUsvYQc2qnpKUkOktHXji6BrWRM4cb+PAoSm1ylpLQnkUpU6sTXBtrLWthoOUWnlDvYXG54CL6jVr1mhe6e3bt8sf//hHadas4aJUDx06VC6++GJ1Lf/Vr34lxcXFXolhGIZhHBiSK7tIXGkL1/nzVhhNmtotTrTERc4cUD2W9f28JaNJ40RJXEWWxFdleSsim7g45oB3ESmLnBgFxoElYXtn76/G54CK6qKiInnmmWfk888/14jdRx11lFfScJx55pkyfvx4jQT++uuve2sNwzAM48CglsCAWaqNIEnDp0l5BM2pRphg7TOMuPhAcE51s+iYU60EEoJtrGE4Knq85P3V+BywWkdEbsT0Aw88IL169ZJzzjlHMjMb3v2pRYsWcvPNN0tWVpb897//laVLl3olsY++GC1li+ERlxBwL5okb8kwjANFecoSCTTb5NpnM1UbTgMU5Uh8XOS0zVW1xSJdZnpLRlOHSNpRlVKr+RKpTY+cQSrjwML0hXBxwER1QUGB3HPPPVJRUaEu2j179tRQ+I3BiBEj5PLLL9c0W0QEbyokxKdJYka1BcMxlKSWxZKRHD43GMMw6ieYUivN9QDNUm04ETtvuKQktvCWDjzxkihS1MpbMpoymlJre1dJLOnqrYls4vhPU2qlemuMpk7y6iO8vxqfAyaqySeN2D377LPlxBNPlJSUFK+kcbjyyit1XjWW66ZCUnwzSUnLkJxxy1xLYxbrpk7ro5ZKu9YjvKXIJynBCY+kKm/JaNIk1EpCMt2l2HBJTavsLYnVTeddZOya5BEfS01tmbd04ElKcKJkcx9vyWjKxCXWSKDFCqlOX+2tiWzi4hIkoaibxNmcasMRn1IlVR2neEuNzwET1QQk++Uvfyk33nhjo7h914X9ZWdne0tNA9zJerc/V3pcvFCSW1qQtqZM6+PmSPteHaVNVvTkHs1M6SwJmeXektGUSUivlPSWiZKUmO6tiW5qszZIs4PmS3yqDRo1dRIyKiSx/VpJS4qcvLoa7GnAx5LaocBbYzRVqJ/pHcokMTF6LL9xLVZL+qBFkpAWHWnAjMYjrWu+pKSGL7NCXIAk0UZMs2772zJ/062y7pkBUr4hXaq3mVtMkyChVpKal0vzYYXSdkiqDO19lTRLiQ4XLqiuKZMvv75Lvnpws+S/NVAC1QdsDNA4gMQn1UjLIxbL6F8nSb92P4oo8bGvlFSuklmr/iqfXdlXShY3l0CtuYE3ReJTqiWrzzY57O8iQ3r8zFsbCQTk6xW3yVdPLpfV942xaQpNFKYOZvUqkVFXp8iwCZMlPbmjVxLZFJTNkplfPygzft1bytZmW/1tojBo3em4Apn4q77SpdWx3trGxUR1E2Fb+QLJ2zZLiovypFZKvbVGTBOIl6SEZpKZ1Vo65k52f0dHSoxQistXybQP75YlTzWTkpXNpLY8UazFahoQdZaXYvaQTdLv3BoZ2OsH0rzZQK80+tlUOF2m350ny+d/KeXrsqWqMIM3sp5zoDLR1fUkScgq0w5hbVmy6yFQVimBKq+sGe7Crqw0iX8kPi20DA+PgCsL5hqOT6cswZUlB70/3H50m27b8ekVe1aW4crcMVDGIAAWrEC1K3PL/E3Qte+WuWPJqAwpi9ftaBnHiSXJddzZPoNm7D9QE/wd50Onnu/x/WBZvG6Ha4Rbqpa54+N86y9L1Ov0nbIKV+ausV5DV1ZDWYorSwqW1VYkSiLX3h2vliVXu7JqCbiymm+VueNMrgmWue3x3cRs9371y9z24txvtczdi8Qcytw9c9tJzC6XFmM2yNCjRsuIiSc0WkyZfaW8Yqt8+fabMuuRPCkvqpSKje79QZ3gnrl/a4pTgteTa1aaEqy7O8pSta5qmbsmfl36pozfVYeUYVEMSE1R2nfL2KbbtpZxj9z1pL5wHXeUbfd+p2XueXDXv94yd925335ZtStLCCmjnmid9MoY9GCfWkb9pMw9A6Fl+qxSB9OqtJ7vtszti+PZZRnPsStPcNeQ54Nz55oEy9zzUemenR1lqa6s1pW5Z9x7rjg/nh2uNf+y/E2ZO9+EmvrLuBbu+aAM76BmfbdI/zMyZeTo8ySrZXS5U69b/4VM+ftCyVu1Xiry06VqS2bwOeZeh9ZJ13hyDb9Tt/w6SX31f1e3bunveMZD6gi/0zJ3z9xvvlV/6imjTakNqVvfutd16sh3y1wd0d/5ZTXBerCrsu/ULVcPEr16ULduhdYRr0yf67pl1B93Hlp//Lrl9qvvHb+M60vdKnFl7hrou6VuvStJcWXukCmjzXb3YsfvXBtDC6n3zG+z/d/R/rh+ob6H+J07P7xzW0/Il9HHHiO9h46R+ITwTB0zUW0YRkSzvWSFLF/zmhSsz5OSPNfJrvYKmgCB2oBsLSyX6qpaadU2OqKvNhTxSQHJaC2S0yNBOuccLy2bjfJKYofi0g2yJP8BKVhSJSVzO0sg3nUKmq8TKWopga3tJK7THNeJc52B/M6ux+A6Vi3Wuh81l0Bhe4nrOE87hoEtnV0HpsaVrfHK3O86LNTOW8D9zn1DpNUqkZJcCRR0kLj2rsx9X8tI69V6hSvL8coW6360rCZRpM1ykVJXtsWVtVsikug6SRxLTZLEtVnmyrKDv+N7SU7YbukkUuU6P22XipRlueWOEsf2k52wpazSdajYTnmzYFlLd1wppboNKc90+1+k/wbL3PmklLiy9m5b2e6cFnxT1sJdo9QivQ4ce1zH+SIVGbqPuNz1Imnb9TpwPeI6uetUkR4sy9kokr5Nr60UtXBlc90xubJ8t83szSIZW0W2tpXA9tYS13m2BpPT3zXLF8ksENnWOnhfunztzjM1WMb6zC3BMu5L11nBsnxXllEokuV+u71VcLn7V8HrU9RBcvqWSctemdK9wwmSmhSZgqWsvEBWb35TNuctkG2fd3PtkBMXLVeLVCdLYGNPiWvurnW6u2Z5XV1VrHX3xd0zV18DG/oE7wPnn9fFbcl1h/kd9XVdX1e2IXg9qUsBV7+pB47A2v5embue1BfqIL9z2w6sHRC8f9yLgo56DFoWXy2B1YOCv6OMOuGuv7RwZQleGb/LygveOwIEcpzUcy3b5Mo2u7I2EleRGSyjnlNGncjeJAF3b6nPWicTXYd/9WCJc78Rtsu9dc+BnnuSK1vlyrLzXJk7Hp5j99wFy9zzQZk7DuFYXf0LUD95pnk+2F8zd95cN55j6if1PNk9H2vcdcnYFmwbXH1nn/o3z87afhKXvj247I5D3HkI9yW12CnLvu7fkuA5ueOXwrYhZX3c78uC17CsWfC66bPjnqv1vSW9Y6m0G18u7bMmS4ucAXp/oo3NeXNkXelLsmVRtZTM6qV1gDqiz61rw6TVymCdXO/qK/eaMle34qpc3aLNdG2ouDKtV/yWa0T9oYw2d627vlnunlEXaFPK3TuaMtpqV5e1jlNHXJtC2/XtMvdsUEe2ufvF9ec+uHqnZbRD3AvXDuk9pS67uiXuGdBnSstaurLc4L11dUvWUOZ+p++PFq6euDaluVe3eK60jnjvj2JXt/yyda7+UB/Yjqurul2/bvGsun/12Nx7QLZR79y+aZe5Zsluvzy7HCPnwXG5bQU29HZi150L15d6x/lT52mzN/RyZe4aUObeA0I7zTWizaZN4bryznDtufBeyHZl7tgDm7oLYjxY5tps7pN7NrU939zN3cf44DvJ3Z/44o6SO2SrtO3RUTq3PlKSk9x+woSJaiPmKS4ullWrVsmAAdH5YjBcH6lmu5RV5UlVlWuwpelEs69yndivvlwgxUWlcviRo721TYM4iZfk5GaSnJAlKYnuRR+j1AYqpbRyvQSqk/TvqtpCSYxvJknx2VJW7To37kqkJLgOeKBGKmsLJCE+U5Ljc3aUJSe4zpN7jVfWbnFlGZIc58pqXAfGESxz/YzafK8s1yurdWUESouTypo8SYhLd9vMlfIaJyCkRn/H9a/wypJcWUWtKwtU6+8IGFdRszmkzImSQJVXlujKNrmyNK/MdVTdeQW3mezKNkp8XKrbX3OZs2CatG7bXFrmdHHfT3H798ty9VxrAxW6DbZVXrM+pKzQlZW7shxJdMdQpmUpus2q2q1SEyjzyjJc2bqQsm2urNQry3Rla11ZsldW5MpKXFm2K8tyZWu+U5YYn+WWs6W0eo3r4FGWKzW1JVIdKPbKclzZaleWpL9jX9Xut8Gy5q5spZYR6Ts5KVOSEtLdshOOEQx1srzK3cPqeHc+Fa6+FOj9T01oo/eBc0xO4Pl0dVDL4l1ZW6kMuPvgrk1yvCtzmrqyxokP90daQjtX5u5DbbErc/UljnpGmetXJ7bX+1etZa6+xFHPKAu4sg56/7ieSa4sXsuY813jyjqGlOW6siTdH3U5LbGTt03KSF2WrMcZkGrvd9td2XZ3j7K1DlLvqOdpCR0lf+saWb9xqfTrM0LrYLCsSrfJb9gn9/a7ZUW6T55jnpH6yzK1fgbrcuW3yhJc3Uxy5cFnwJUldNDrzHeDz1yW97sKV9belZXVKduqz0eqK+M72jbo85gdUtZOt03ZN88VZWWuvWkrSSmJ+szGR3j93B3Vrg6WVW5yGjhDqgLc66I6dctpPXe+1YEiLfPrT0WNE9KulnCdeL653379Cf6utp4yV3/c77TeuWtf7doM6gjXnWvMtQ7WrQ5eGfXArz+7KvPqj5aVurLgO+JbdetbZZnuCU2Xr+Z8LD16dJGcjG6ujpS7Mvf+cHWOcr7H/Q/WkXLdDmUEOPbrltYRcXXEnW/dehcsq9Lz/W69a6vPF9cw3h0/baZfluLaDa4d75Zgvctxx0K7TL0LLaPNzg0pIy1WoE7Zdn0uUhLIVBDnyja7smTXvrZyfYc0SUzI1PYonJioNmKe1atXy6uvviqXXXaZt8YwooOqqir55JNPZPv27ZolwTBiiQcffFAOOeQQTalpGJEEXeMlS5bIF198Ieeee6631jCig9raWrnjjjvknHPOaVJZjw40FvnHiHmqq6ulqKjIWzKM6CExMVGGDh0q48ZFT9R2w9hT8CKifTaMSIRBzZKSEm/JMKIL+r01NTXekhEOTFQbMU+rVq3k+OOP95YMI3rghbhw4UKZOXOmt8YwYofJkydLu3btvCXDiBwIHNehQweZOHGit8YwogfqL95tWVnRF6A2mjmgoppRwDfffFNefPFFKSsjkmkQRgYfeeQReeGFF2wU29hvSktLVZgYRrSBC2J5efm32kfDiBWWLl1qXkRGRELby7Sb5cuXe2sMI3qg/i5YsEAqKohwboSLqLBUFxYWyrx582T27NmyYsWKHe4MlZWVsmzZMl3PB/EEdEA3b96s36VS+euNpgmDNHTeDCPaYLS5WbNmkpOT460xjNiBdzQu4IYRiTDgQ5BTw4hGiAlgojq8RLyo3rZtm7zxxhvy1FNPybPPPitPPPGECmWE81dffSVPP/20PPPMM/LQQw/J66+/rutpBB9//HFdz7qCAiJEGk2VtLQ06dSpk7dkGNFDfHy8tG/fXrp27eqtMYzYgbpN+2wYkUh6erpNTzCils6dO0tycrK3ZISDiBfVa9eulQ0bNsgll1wiN954o5x88snqDolwnj9/vpxyyinyxz/+Ua6//npdh8UasE4zF+bqq6+Wjh076jqjaZKamipdupAr0zCiC7xy8LKYM2eOt8YwYgfezRkZTSv/uhEd4CVE3WTgxzCiDeov/d6kpCRvjREOIl5Ut25NbjKRO++8U/7+979LmzZtZNiwYbJu3TqZMWOGpuT4/e9/r2WLFi2SNWvW6PdxmWSCPpYeo2mDe6E/2GIY0QbC2iJ4GrEIXmdbt271lgwjcmBOKnWTfqVhRBvU36+//lqNkEb4iHjFSX61s88+W84880y1WP/85z9XIY1QwqX3pJNOkjPOOEM/P/vZzyxSo/EdCIhHwBHDiDZIqTV48GAZM2aMt8YwYgfmrFowUiNSoe9gc/6NaIV+rw3Ih5cDKqqxIjOfipcqjZcPy8ylJjgP8wFwvyFXK27e11xzjQY3IUhZbm6udOvWTQYNGqSfgQMHWpJz4zuQUuuYY47xlgwjevDdv+fOneutMYzYYdKkSdK2bVtvyTAiB9xn6XtOmDDBW2MY0QP197jjjrOUWmHmgIrqhIQE9fmn0zhr1iwdtSZSMx1I3Lh79eql7mH/+Mc/NIodENWbSjJ27Fj97tSpUzU6OMHI/vSnP8mnn36q3zMMH+bXW/RvIxrBhYv6a9YSIxZZuXKl1W0jIqHtpW5a9G8jGqH+WvTv8HPA3b+JanvBBRfIu+++Kz/+8Y/l0ksvlbffflt+9atfaRAThHXv3r3llltu0bIpU6bIRRddpGUEKSOAz+WXXy5XXHGFjnojtglMhXWSfw2DwRd/UMYwogk/WI6NNhuxCDmATVQbkQruswz8GEY0snjxYhPVYSYuwHCGYcQw69evl/fee0/OO+88b41hRAe1tbWSl5en02Msi4ERa5D2ctSoUZYyzog46Boz1ZAgp2SdMYxogr7Dww8/rHGnmCprhAcLjW3EPOSa7NGjh7dkGNEDc6oZbSaKp2HEGkz/yszM9JYMI3LAS4gsMuT6NYxog/rbs2dPy1MdZkxUGzEPc/Utz68RrVhKLSNWIWYKQUkNI9LAUk1KrYULF3prDCN6oP5aSq3wY6LaiHlwnbVcqEY0QjBHshrgImsYsQZzVkMzfxhGJEGWGQblDSMaod9rA/LhxUS1EfO0bNlSjjzySG/JMKIH5kURKGfRokXeGsOIHQ477DBp06aNt2QYkQPus+3atZNDDjnEW2MY0QP1l1SyTGEwwoeJaiPmwf3F0mIY0QguXERHxqJnGLEGqTNJGWcYkQZtL5lD1q5d660xjOjBD7SHt4URPkxUGzEPosQsfUY0wmgzgfZIq2UYscayZcvMvdaIWBjMRJgYRjRCPABLqRVeTFQbMU9KSoq0bdvWWzKM6CE+Pl66desm/fr189YYRuzQqlUrSU1N9ZYMI7KgbjJ9zDCiEfq9SUlJ3pIRDkxUGzEPVr7evXt7S4YRPRBkhNHmmTNnemsMI3Yg5YvN+TMiEbyEsrKypHv37t4aw4geqL99+/ZVo5IRPkxUGzGPpdQyohlLqWXEKvPnz7fMDEZEYim1jGjGT6lVVlbmrTHCgYlqI+YhZUthYaG3ZBjRAym1+vfvLyNGjPDWGEbsQI5qS6llRCoEebIgkUa0Qr/XBuTDi4lqI+Zp0aKFHHHEEd6SYUQPpNQi+iwBnQwj1iBdUevWrb0lw4gccJ9lTuq4ceO8NYYRPVB/SSVr02vCi4lqI+Yh+qGlxTCiEVy4sJSYi6wRi2zYsMHcE42IhLaXurlx40ZvjWFED9RfUhaaJ1B4iThRXV1bLEWVK2Td9rdk9daX9/qzbtsbsrVsvlTVFklAar2tGk0ZUmrZvCgjGmG0mQi0aWlp3hrDiB2WLl1qKbWMiIXpCcuXL/eWDCO6WLBggZSXl3tLRjiICzCcESGUVW2Qxfn3O3H8vLdm30hKaCbtmk2Sbrnfl2YpPVzH1AzyTRms1G+//bZceOGF3hrDiA5w/2ZeVHV1tbRp08ZbaxixweOPPy5jx47VtHGGEUnQNWbaDZkXTj/9dG+tYUQH9B3uv/9++d73vifNmzf31hqNTcSozcqabbIw7679FtRQVVMka7a9IssLHnXbtQBVTZ3MzEwN9mQY0QZBRoiQPGPGDG+NYcQOffr00bRFhhFp4CWUk5MjvXr18tYYRvRA/R04cKB6uhnhI2JEdWHpLNlcPM1b2n8CgVrZVPyRFFUsl4D7z2i64P5tKbWMaAVhjaXaMGINBoxwsTWMSANLNbEsFi1a5K0xjOiB+ktKLXP/Di8RI6q3VyyV2kCFt9QwYP0uqVzlapeFlG/KkBajoKDAWzKM6IGUWn379pWhQ4d6awwjdkC00D4bRiRCkFMLEmlEK1u2bLEB+TATMaK6xgnqxrAoN9Z2jeiBlFoTJ070lgwjemBeFBGSV69e7a0xjNhh/PjxllLLiEhwnyWOxZgxY7w1hhE9UH8PP/xwnf5ohA+L4GXEPIw2W1oMIxrBhQv3WPO0MGKRvLw8c080IhLaXupmfn6+t8YwogfqLwPyZqkOLyaqjZiHOdWkFjCMaCQpKUmSk5O9JcOIHRYvXqx52A0jEmFAk7RvhhGNELPCBi3Di4lqI+ZBkFhKASMaSUxMlH79+smIESO8NYYROxBd2QaMjEglJSVF66hhRCNMfaQPYYQPE9VGzNOsWTMZMmSIt2QY0QOuW4w2T58+3VtjGLHDgAEDTLQYEYmfUotAkYYRbVB/CXBqKbXCi4lqI+YpKiqS2bNne0uGEV0grG1elBGLMC3HoisbkYil1DKiGUupdWAwUW3EPKRsIbWAYUQbpNTq3bu3DB482FtjGLEDAfgspZYRqRDktLCw0FsyjOiCIHs2IB9eTFQbMQ/zqQ899FBvyTCiB1JqESF5/fr13hrDiB3Gjh0rrVq18pYMI3LAfZZ0bwcddJC3xjCiB+rvYYcdZim1woyJaiPmqaqqMku1EZX4LoiW1sWIRbBUYw00jEiDthcvCrNUG9EI9dcs1eHHRLUR8zCnet68ed6SYUQXuIBbBE8jFmG+qqXUMiIVBjSXLFniLRlGdDF37lybUx1mTFQbMQ95fi3CrBGNIKYHDhwoo0eP9tYYRuyQlZWl7bNhRCKkeyN7iGFEI/R7GZQ3woeJaiPmoeM2fPhwb8kwogdctxht/vzzz701hhE7EIAvNzfXWzKMyIE5qcRjYVDTMKIN6u/IkSMlLS3NW2OEAxPVRsxTXFwsc+bM8ZYMI7qwlFpGrEJKrW3btnlLhhE5WEotI5qxlFoHBhPVRsxDIBwiKBtGtIHrVs+ePc1aYsQkBJC0QGVGpIIgIZieYUQj9HttQD68mKg2Yh7cCw8++GBvyTCiB1JqEX3WBoWMWIR0RS1btvSWDCNywH2WdG+40BpGtEH9JZVsRkaGt8YIByaqjZiHkTrcuAwj2sCFC0vJ5s2bvTWGETsQ+ZuUh4YRadD2UjctOr0RjVB/GZCvqanx1hjhwES1EfOQUotgT4YRjTDizMcwYo2FCxfanGojYmEwfvHixd6SYUQXxBKyOdXhxUS1EfOQlsjSYhjRCHV36NChMn78eG+NYcQOmZmZloPdiFhI92bus0a0Qr/XUmqFFxPVRsyTnZ1teX6NqISpC7Nnz5ZPP/3UW2MYsQOpDklbZBiRBt5BLVq0kCFDhnhrDCN6oP6OHTtW0tPTvTVGODBRbcQ8pNRCmBhGNGIptYxYZf78+eb+bUQkllLLiGb8lFplZWXeGiMcmKg2Yh5StligJyMawXWre/fu0q9fP2+NYcQO+fn5llLLiFiYj0raN8OIRjZt2mQD8mHGRLUR8+Tk5KgbjGFEG4w2E2jPotcbsQjpinCxNYxIhHRvw4YN85YMI3rA/ZtYLBYTILyYqDZiHlIK4AJuGNEGeaqx5m3cuNFbYxixQ0lJiVlSjIiFvkNpaam3ZBjRAwPy9HvpQxjhw0S1EfPQsJBawDCiEV6OfAwj1liwYIHNqTYiFvL82pxqI1phTrWl1AovJqqNmCc+Pt4iIBpRCemGcJGdMGGCt8YwYoe0tDRL+WJELLS/1FHDiEZw/cYN3AgfJqqNmCc3N9fy/BpRCa6xs2bNkk8++cRbYxixw0EHHaTzVg0j0kCMtGrVStO+GUa0Qf09+OCDbU51mDFRbcQ8BHqylFpGtGIptYxYxVJqGZEKU24spZYRrVB/zf07/JioNmIeUraQWsAwog2mLnTt2lX69OnjrTGM2CEvL886fUbEQo5fAkUaRjRCgNOqqipvyQgHCX9weH8fUPJLp0th2RwJBBrWItM6c5zkpA2QuLjvztvC+vPiiy/KAw88IO+8886ODyKsc+fOkpSU5H2zfohc+txzz0nHjh33et4N+73//vt1fwTRat26tbop47KxZMkS+fzzz6Vbt27aqTb2D0bsmBvF9TSMaIK6y4uRCLTt27f31hpGbECHj/enuSgakQiRk1NTU7WOGka0QftKvzc5OdlbYzQ2TVqx0WAiYAkCdOmll+rn+9//vkYk/fDDD3c7wkM57muI8L3h2WefVcupv8++ffvK448/rm5GdKKJOLl8+XL929h/uM97e48MIxKg7mLNW79+vbfGMGKHyspKTVtkGJGI9R2MaAX9gBeQ6YjwYmZQB6OQvXr10s/QoUPltNNOk08//VTWrl2r5dOnT5cTTzxRDjnkEDn22GPlzTfflIKCAvnNb34jb7/9tvz2t7/V7/IbRDnf4/Pwww/r70MhvdMHH3wgo0eP3rHPiRMnqpV6xYoVOgfiqquuUuH93//+Vx8K5gOfc845us2f/vSnOkcYQc927rzzTjn77LPl2muv1e/ecsstO/bPdlatWqX7pYzvsP4nP/mJ/OUvf5G33npLOzW8NDgHys4880zdbix1dLhellLLiFZ4KdqL0YhFbE61EcnYnGojmkE72PSa8GKiug64X7dr105atGihL3tE6WOPPSb/+te/ZMqUKSpqp02bpnNtbr75ZjnyyCPlz3/+s4plxDfi9KOPPpK77rpLrc+LFy/2thwEN4wePXrIyy+/rNYn5uswGsp2jznmGBX1t99+uwp7rNgI7Zdeekl++ctfqvX8uOOOU0HMsdHg83uE9E033aT7y8rKkvfff19eeOEFdanjNxzrPffcIx06dJB3331XLrjgAlm5cqWux62U85g8ebJMnTpV/vSnP6mlnuOOlY48LvTm/mJEI0xbGDVqlA68GUasQbtsU5yMSMX6DkY0Q921lFrhxd5m9UBHFkGKUO7SpYvcdttt0rx5cx2xxKpb31xrXLh/9rOf6ff90ff65kBSyRHLVPTf/e53cvHFF8v111+vgpw52qFgRcbCigjv2bOnNvCHHXaYWrX90VP2h5CGCy+8ULe3efNmFeOcA/OBEN8sn3rqqZKSkqLbIvAR21u6dKla3fkuqXs4bkQ+7ufsPxbgeh166KHe0oGFOsWgRah1hsEL7tGWLVvUQ4Drv3r1ah3w2Bf4PXWA7TXUwMj27du1foR+li1bttspEpEKzxpTMCL9+In7MHPmTPn444+9NYYRO4wdO1bTFhlGpEEfjVg3pH0zjGiD+stgvMWrCC8mqusBUUJnFvGMiMby/Mwzz8hTTz2lll8ERl0QSwQXe/rpp/V7r7/+ugql+sjMzFQhjXv3ddddp52KJ598UoV1qNs1x4DrBkIYoQ/87YvouqxZs0ZeeeUVeeKJJ9RSjbhHNPhinf0C59WsWTPdJoIa13Us5wRPe/XVV/VceJkkJHw3uFs0wvlEgvs39/azzz6TW2+9Vd54440d95r6NmPGjB1eBdwzgtj5rvt7C3WWaQlsr6Hc+KlLeEM8//zzWk/44BnBlIeG2ke4YKCBQSPuwc6e0UiCdiBaBy8MY1fUHWA0jEjBH+xeuHCht8YwogfqL8YPc/8OL006+rcvcrDctm3b1lsbnEfzySefqCs2ghTxgLX49NNPV4s00XgHDRqkVmdEBe6ZuHLjdo3gPffcc3V+8hdffCFjxoxRV3If3LWJ+E2aHAQyLtnjx4/XTjOieODAgWpBW7dunQwbNkytgYiu3r17qxjGeoz7OfPAOTYEVL9+/VQAI6Y3bNig2+NYEWiMUrEvjhOrAMtYQBFxOTk5+mFfN9xwg7qyYwknYTzHFStueQR6YsCD8zqQ0Hnk3lHfvvrqKxk5cqRGjeeeMb997ty5Wn9wzaeOcP+IQs+9pW7huv/ll19qPenevbsOihDU7r333tNyhG+nTp20nsybN0/rJB4K7BOo43VdgahDCHB+T52gbnPv67q8sS2O45prrpHDDz9c60nLli31uBkUYhCGekoHhAElniu+z1QKYD9ML2BfnCfPRHZ2tn6PQSq2wfmy7LvccUwMiBDDgOkI1F2OkWvDc4GXBs8Q32Ed3+f68GwwgMSAEfviujB1g+eRc+M4OQ4GsfzIrnXPN9LgWplFz4g1eGZ5jmlLDCPS4N3MO413tWFEE4hqDAfoGLNWhw+zVNcBwYl44SWPCEFgp6en61xmOuAIA4RHKFRegmEhFI466igVqggBGuS6IBgQDliUsUABYgLhV9c6TEcfAYYlmY8/8oSQqpvigQEChA/CEfGM+zBuo4xS0SHnXBAWiHdENGKL3/jh9n3h5QsURBniIxbg/CPhpch1RwQy0IKY9l34qVfUGeqP/y+isE2bNnoPEM2ISgQh6/Aq8Of1M1jCdhHT1K0HH3xQ6zD3EfHNuVN/CXxXtz4idLE4U2/o2CLaqN+Izz2xPjOYw2AP4pTj5Hw4Vs4NMf3aa6+pCKbOURcRuNRbzpdUdDwz/Na/DpwP50Vdp95ybIhkzhmrPXEBeE44VuonZZwDFnnc3RmAwAODAIEIap4TjoFrx1QMrslDDz2kzx1TAvgwrSP0mYtEGEiz0WYjFhkyZIg+h4YRifB+wIBiGNEGBhSmLtD/M8KHWaqdwMVlm843nXgEJZ14RDTCGssh36EzjkBA+CJOEBMIGSygRMvGgo1QffTRR3U7dBYQ5HQYiPDtg6BAjOBSfu+992oQMoQMDTfzfnkAECiIDsQ7AhmLJPvHrRyxfP755+u+SQfmW6r5HUKMbeL6zW85fjrjjFRxvIgxgq5xnIiP/v3769xqLNn/+9//1MWdc+F3/IZt1rVsRiOITIQnAxQHCgQj95lr6l9bLLrjxo3T+4a1lrqG1wMDIESBJ3gc94YXO/WJD/cLEcoAC4IZizf1hu1wjxGtrKduIGyJWo+XBcKTbYXO80eEc6/xiMBDAus3AhsRR90I9VTg+vFhcMIXodQN6h/PBceGIGZE9IQTTpABAwboMSLm2Rb79wNu+c8O54Uw5rypw1wjzse3XDG4RbR9vD54VqnTLI8YMUK3zTki4KnPkyZN0vU8h7h2M5+cQQL+5tpwjVjm2SSFHtef8+T54npFKpw3lhIGE7j3hhFL8HzyrPtTkwwjkmDgl3cJ7yTDiCboI2FQwNiAMccID3HuwkdEiOeFeXfJ8oLHpKa2zFvTMAxoc410zT1D4uO+G1wM6MiHBuRCKFABsd76gtL/ju+WiqWL7yB2KWOZzj3/IjKATjsWOr5Tn2tp6H7ZD7/3A6AhqhGC7I/1dKz5PusRNAgXfsPvuX3+sVKONY517JcP6xDywDY4Jv7FbRdxw0gW+8Hix37YDt+v75ijFUQXgxS/+MUvvDXhB0GKFRdRioBkwIWUbLhTI3rxIsA9HBd86gER3s866yz9LmB5/ec//6mWaerGJZdcoiKLZdK4MRDkw/3lfKmDiGrqJBHqTzrpJE3lVhfqzB//+EcVtNz78847T6PPU398sF4zgPTjH/94Rz0FrM8MxpCmDQE9ePDgHUHhsJQTmZ4Aegz0XHTRRdrAh/Lvf/9bBwJOOeUUPUcGhfg94phI+qSFo56yb1y+iZDPQBXLHBPfI9I+185/XqnzBAOkbjNwgZBn0IDjYZrDjTfeqNefwQAGzyLZrZrnlakoDLpwLw0jliAl5BFHHGEDRkbEQT+KOf+0v7xvDSOaoB/0t7/9TftdNnUsfDR5929EK5Yq/4PVDMHsd9DB/w7WXcoQtb7goMwP+oUg8beD8EDU7Eychu6XfYYKFUQuI/f8nuNg2+yD77LePza2HXqs/I5t8T2OkTL2g2giZRcCiO8g8BBmWEQR6fye7frHEm2CGrGESGJQoD44P877QMFgC/N6CfJ12WWXqVWVSOyMIjJNIHRQpy4MdjzwwAMqnLH+EkiOXOKh+Pd/b0F8kyrue9/7nlpzmX9DPvS9AVdt6lE46gznWd+50ilH2DNowQdvC3K3RwN03JhDj3iub3yTZ5+BEM7RMGKNA9kuG8buONB9B8PYH6zuhh+74k0ABPmVV16pVkFEHeIO6x3zqWMBrJbk9sZdmLm1dUUqbsYE1zpQMICB6zJu+0wvQPTx+cc//qHWV455Z+B+hrAil/gZZ5yhVmfc0XjZc16IWVyDEWScNwJtVyI9FOYcM6iCtejkk09WAc+29xT2yxx/3LsZwMGNk6kRvlcFHgI06v48cVzLOU4EJGKcc+Hc/O8zVYF19YnL+uAasE/gGrINfst+uG7RAANBTBlh4IR54hw35+HDgAwWddznDSPWYGpHqJeNYUQKvF8YMGbA2TCiDeovUwhtak14MVHdRMC97pFHHtEPrsC4zcYSzM2777771PKKcCWwle+Kj6V+9uzZ+ne4QeQhqPkwtz7UI4FlBjYQU4hSBCnuZogqhCju2LhE8xv+xmUfazJiFXdg5kwzT5ocxpQxWMKc+fpSvtUHXgyIXlzIuWZYefFm4PeIuVA4DwQ7Axd8lw9z9HHnptPBtphXjbjFmk6MAoQgruQEWGPeNu7aHD9xBIioj6inHnL+uGlzHJzvnsKxc/4Ia6J5s20+WK3xXtgVeJUgYDlfBhMOJAwmcF0Z9CKCP0HduDY+3AsGIgwj1qC9w8vIMCIN3nnUTUupZUQj1F9i81iQ0/DSpAOVGbEBrtUE70J8YGllGVGNmEas0qgQZfpApdRCpHIczOvlXx9/ygD/Mq+aecEIaoQ284Y5BwJ6IRwR3FhgKTv66KNVUCLKGUlHiCJ4sfgyDxvLD6OUBNXjw99AIDJc/H0Qwoh3fksaNwQyrulYv9lv6AAAx4VlGrHHNebDsRA4jO+zDyznTB9A9JM6zg8ehjUc4csgx9KlS1XE8js/4jiWdUQwQdS4RmyX7bBNBoOYBsELghFXzo3j8pc5JwYX6Pxg/eZf5qX7c9G53szZ9kdrudaUsX3qBcfCuXIfDgRcV4IWcr24fwwOUZe5H5yjP4UEbxPupWHEEpZSy4hkeOcy8GMptYxog/4DxgpLqRVemmSgMjqsWP4QMUb0g/icM2fODsu0D4IEwYRIQ0AyL9nYM2gW6vvsqiz0s6vv7aqMz67Kd1XGB3z36frK6q4L/cCufruzsj0p9z91y/kNFnwGG+rCgAODBtRfBlYYoDCMWIIAjXirMDhoGJEE7TMeZrTNTFMwjGiC+osH4/jx43VQ3ggPTVJUYxVCiO3p3FMjsiEtE/Oq64pqLJ1Yc2lUcJ8l+vXewnxotu0LIP7dk4//Xai7bnefur/d2/36v/OX+Rd2tZ3Q3/lw/Xwrd31/N1RZ3eXQv/elDPwAHX5ZaHndvxuqrO5y6N87K+O6E6wO635dKKcz5+ctt+jfRqxhotqIVHgXIqqJe3KgvNwMY1+h/pqoDj9NUlSHCg0j+mEu8SuvvKLus4AYwSWYfMnDhw9X92jm8ZK+am9BqLNtXwzt6oOQ8/+G0GW/HPy/Q8tCP7sq4xO6HX85tDz045fBnu4T/H/rY2dl9pu9X8+Uhb/+9a86rzwU0oEhoqnHBCpj/reJaiPWuPvuu3WaiKXUMiIN+ojMp542bZqmJTKMaAKd46c0tZRa4aPJ56k2oh/yIxM0CwGMy/fpp58uhx12mP4NkZCn2jDqA1F900036fQFBjaY703ObtKnMRed5hmPGv49UPO+DaOxIPMAmRliLXCmEf3Q5lqeaiNaQVRbnurwY9G/jaiH4FO4DxKkiwjKBMHyBTUQBIfgVYYRiRB4DTF9xRVXyC9/+UsZPHiwCmpAdDO9gRRshhFrMPhprt9GJIJ3EZ5CNp/aiEaovwS1Ndfv8GKi2oh6cB3ECk2u5fpy8uE6e6BSahnGruDFN2rUKPn5z3+uc59CB4N8iAdgKbWMWARLoAUMNSIRLNVkkyAbg2FEG9RfUmr50yKN8GCi2oh6sPKFpo6qC6mT1q1b5y0ZRuSARRr319BUZ6HgEk6qMaJ/G0asQapA6/QZkQqBSglWZhjRCGlGbUA+vJioNmIe3F9wqTWMaARhzccwYo3+/fvvdEDJMA40ubm5Nt/fiEowMpGjmnSyRviwnpoR8yBImLdqGNEGwUbWr18vK1eu9NYYRuxAPAwbMDIiFYQJddQwohHq7s48OI3Gwd5mRszDnGqiKxtGNIKw5mMYsYbNqTYiGZtTbUQrzKkmlpBNrwkvJqqNmAdBQloiw4g28LAYN26cHHXUUd4aw4gdmO9nA0ZGpELdtDmpRrTip+M0woeJaiPmIUcfabYMI9qgQzd9+nR5//33vTWGETscccQRmrbIMCIN3GY7dOigad8MI9qg/p5wwgmSlZXlrTHCgYlqI+YpLi42928jakFYm7XEiEXmz5+vLraGEWlYSi0jmqH+zpo1S7PfGOHDRLUR8zCnZM2aNd6SYUQPBHFq27atdOrUyVtjGLEDQfhszp8RqZSUlGjaN8OIRuj32tTH8GKi2oh5SKk1cOBAb8kwoovk5GRJSUnxlgwjdujTp4+5JxoRS05OjvTu3dtbMozoAffvQYMGSWpqqrfGCAcmqo2YB2ufNSxGNEKgnLVr18ry5cu9NYYRO9AuJyQkeEuGEVlQN21A04hWyFFtKQvDi11tI+axlFpGNIOwtgjJRixiKbWMSMbmVBvRCnOqv/76a5tTHWZMVBsxD4KkoqLCWzKM6CExMVHGjBkjkydP9tYYRuzAfD8bMDIilZqaGpuTakQt9HutfQ0vJqqNmIeUWscff7y3ZBjRQ3V1tcyYMUM+/PBDb41hxA4MFllKLSMS8VNqTZw40VtjGNED9ffEE0+0mBVhxkS1EfOQUmv27NnekmFEF6TTMmuJEYuQUsvcv41IxFJqGdGMuX8fGExUGzEPKVtWr17tLRlG9ECQkdatW6vFxDBijXXr1klpaam3ZBiRBSm1SPtmGNHIqlWrbEA+zJioNmKezMxM6devn7dkGNEFETwzMjK8JcOIHXr16qUpDw0jEsnOzpYePXp4S4YRPeD+PWDAAMt8E2ZMVBsxD8GeENaGEW0QZGTNmjWydOlSb41hxA60y0lJSd6SYUQW9B1sQNOIVmhfLaVWeLGrbcQ8llLLiGYQ1hbB04hFmFPNvFXDiERsTrURrdic6gODiWoj5iEthjUsRjSCpWT06NFy+OGHe2sMI3awlC9GJEPfwdJxGtEK/V5rX8NLkxTVjOAQUZd0NUbsQ6CnE044wVv6LjQ61rkzIhHaqK+++kqmTp3qrTGM2OHII4+U9u3be0uGETkwJ7Vjx442oGlEJdTfk08+2VJqhZkmJaoR06RXWrhwoTzyyCPy5ZdfmrBuAuwspRb3vqCgQPMA/+tf/5IVK1Z4JYYROVhKLSNWMfdvI1Khv1hYWKj9RcOINqi/s2bNMi/NMNNkRLU/r/aZZ56Rf//73/LGG2+o2DJiH1K2kFrAB5euzZs3y6effioPPvig3HbbbTrAYhiRBkFGWrZsKe3atfPWGEbssHbtWkupZUQspNQi7ZthRCMrV660AfkwE/OiurS4XGbOnCVPPvmk3H///fL6669LXl6eV2o0BYje2bt3bx25y8/Pl48++kg9Ff73v//JZ599ppZAw4hEcOEi5RCpXQwj1iBdkaXUMiIVXGe7devmLRlGdNG3b19JSUnxloxwEOeERsD7+4CyMO8uWV7wmNTUlnlr9o/K8njZvDpVCpYMkc1rEmT9+g1eyTf86Ec/0vlcjEZS8bAGkeifkZ0uXbqoW9q2bdskOTlZOnTooCOWlHXu3FnX8yEdSKdOnXTEnTLm4GAB57cEGeK7/I45u2yDUXlcihISEqRr1676O8o4Dtw0KKMj3b17d02lQxnHxbZxVQY6IvyO77dt21bdmLds2aKikbyf/I6yNm3aqFXWL0NYrl69WsuYZ8w6yphLTBm/Kysrk1atWukxIEAp69Onj/6OMqxmHDsDE34Zv+O8WrRooefM79gvDzS/o6x58+Z6HfkdZeSNxnpMWW5urubSo4xzYZucH/clJydH0tPT1bJMGcfJ9aQMoYFg9ss49w0bNuj1p6PGC5Eyrikfvv/555/r6B3LoXC+5513nl539smxILZZ5m88HTgOznHTpk16P3jZcv22b9+uZVybjRs3fqf+cG5cb78stP5Q77iHlHGvKWN7/Jbrxb33y6hnnBvHTr2jPlHG/aTecS2pI9wDvsu1oMyvW5Rx79iHXxZat7gGHDfb5F6H1i3KqK+UsR/qFvefew1cJ7ZJWd26RX31y+rWLcrYJveT64dl1i/r2bOn/o6yunUr9F7XrVuhZdQtrjG/8+sPZdxP7jM5oP16x+84FsqoK9xTv4xj4b5TRr0iVYVfRzgH/ua+hdY7v/5wHbjX/Ibt8l2//nDdKaMe+/WOMq41dYDjJp0WvzvxxBP1WhtGrPDJJ5/oc0ebYRiRBm0+08LGjBnjrTGM6IA+2Pvvv6+BTi2lbPhI+IPD+/uAkl86XQrL5riK0DBznCvLnZBemi4LvqySrQUl3tpvM3LkSO3oI9IQGHRc6cDSsaWjTucbcYfACC2jo06n2ReTLFPGOjrGdIQpo1OPGPDL2AadaIQmnXMEhl9GRxyxRBmdczoZlNGo80DQ8aaMjjZiZ8mSJVpGZ5zvU8a2EUn+7xAFHINfhrjyf4eY4NgRtpQh0ChDVCACOWe/DMHmlyFQEHiUIRZCyxB6CAlEK2UIO8q4jggixIn/u9AyhB4iipeXv81ly5bpAIefY49tcl0pW758uZYB5fyOMs6d71FGg8J2KeNesC/OF8s097ouCD3uB8fJh+PkXnMfqAPUEQQb5882KeP77ItyzpvrzbFRxn336w8iifvE77jXlHG9OC6Ohfvrl4XWLcqoF5wT98yvW9xPzoX6xO8o42+uHcdNGd/1y0Lrli80/bLQukWd5Ngo4/goo26xTb7D+fplft2ijG0jsinjnCnjGDhu6g/11S+rW7dCy7i2nLNfxv30y6hbXEfKOM/Qe01ZaN2ijL+5Z9xL7hvLXDueAX5HGXWHehda5v+O+gB+GdvkGvllfNgOZZwD95kP9Y7t8jvqAdfFL2NfdesWx8+95hgZGKCM++8P0LBP//4yEGUYscRbb72lzxbtjmFEErTltNukJRo6dKi31jCiA+rvyy+/LAMGDNA+mREeYtZSzVlVV8VLdsXZMvezePl46jSv5BuwVI8bN25HJ9kXflwSOup0dOkIU+YLRr+M9ZTvaxnQifbL2Df/hrMMOF9A0FDmd/yhvjKEKue1r2UcC/tviDLECx+/jPNj334Zv2UZYfbiiy/KFVdcIXPnzpXXXnvtO8FH+P4NN9ygFsk92ebuyurWA65pOMtY5jpRxvf4d3dlsLv6w/7Yz+7KgGXY0zL/Xu9rGcfCMTV2Gfd6b+oI3+OzN2X+/WSZQSzKGBwxjFiC+CaTJ09WrybDiCRohwmk9/HHH2tf0TCiCfoPN910k1xyySXmCRRGYlZU+wxoc410zT1DVixfLc8//7ymp/E7wzSUhx122I6OvhGbYFHFGuhb+rCUTp8+XUfxGIn2Rc1f/vIXdeU1jEiBAY4vvvhCvQiOPvpob61hxAaLFy9WTw8bMDIiETy08EayfoERbaBxFixYoHUXY5QRHppM9G8q1lVXXSW//vWvZdSoUeoei/XHiH0Q1UR+98H1/dBDD1XL9IUXXqjzV3HPNoxIBGGN67thxBp0+hAuhhFpIEqYbmcptYxohPpLSi2MSEb4aFJ5qnGpZG7MZZddJhdffLHO68VCacQ2zO/FBbwuWEeOPPJIue666+SMM86weSdGxIELOvEdzH3LiEWIGUAgQsOIRBiQx5vNMKIR+r02IB9emqSixCpJRDx//qwR2yCWudc7g8BduNYSMMcwIgnaJ+ongcsMI9bAS8gi0xqRCtkcyIhhGNEImRXM9Tu8mKI0Yh4CQpkoMaIR5vsz2mwuiEYsQtRv6/QZkQheQtRNBjUNI9qg/voZbYzwYaJ6PyB1FRGl635I27S7+G9E9Z06daoGTjMal7pzqg0jmiCKJx/DiDWYU828VcOINPw51YsWLfLWGEb0QP0lHZzNqQ4vJqr3Az+v789//nMNgMbn+9//vjzxxBOaw3ZX0EkmDy2RJY3GhQEMm7dnRCOMMo8YMUID6xlGrEG8C7wxDCMSoe9gosSIVuj32oB8eEn4g8P7+4CSXzpdCsvmSCAQzEPbULTOHCc5aQMkLq7hI30jitetW6d5NnERIvAV6UGWLVsm5eXlmnsTK+l///tf+elPfyr33HOPumP07t1bnnvuObnlllt0pJ453m+99ZZs2bJFunXrpg/BU089JbNnz5b27dvLq6++Kq+88opce+212glZtWqVvPDCC7o90kCxbvDgwRqIzfguuH9zHc0F3Ig26NTNnDlT25RdxQUwjGiEQWliWZgLuBFp+O7f1E9zATeiEQKcoknMBTx8mKW6gSH9TUVFhQo5/n377bclOztbPvnkExXOc+fOVZeMU089VS3bl19+uUag3lXANDrUPBzvvPOORi5HqCPob7311h25ltmuUT94FDBAESvMmDFDJk6cKCeffLKccsop+jn++OPl6aef3m2kRwZ7nnnmGXn33Xe9NUakwz21CJ5GLDJ//nxz/zYiEkupZUQzfkot+nxG+DBRvZ8gbj///HP59NNP9fPee++p6MVyTIOMmENUM3d68eLF0qZNGxXYewN5lbFg+6NNRLM+6KCD1PLKCCqj/ebevHOw5C9fvtxbig1OOOEEFdF4LPDBG+Ljjz9WzwfAwolHg18vN2/erI3spk2bNPAVqWzy8vL0O0xBoAwPiQ0bNugHEUfd5rtffPGFfp9lriN1mm3yW3MtalywlpBT37wsjFiENsTeXUakQl9uzZo13pJhRBcY5DDuGeHDRPV+gpWYgGMffPCBumM/++yzcuaZZ0qHDh10hAj38OnTp8uHH36on4KCAunfv7/3ayMcMAjBoEQsw7QCzpG5/MxRJIgeUwbef/99efPNN1V4M8iDYF6yZImKY+om67/88ksVxwhx6jH1dPv27fLiiy/KSy+9JFOmTNHGGes2dfyjjz6S1157TR5++GEV2kbjgQcL99bSvRmxSOfOnXX6k2FEIqR769ixo7dkGNFF9+7d1WvWCB8mqveTkSNHyi9+8Qt15WbeNHk3fcsflZlOw7nnniu/+c1vdnwOP/xw79dGOGBeFPNKYhlfMHOejK4TgR5vCeobdZO6iCV76NChOt3gsMMO0zn/WEJ3xrZt27Q+X3311XLIIYeo8MYz4gc/+IGuI4ALliaj8WCAhAEQ3GQNI9ZgWlNqaqq3ZBiRA+9GvASpo4YRbVB/GYy3WEvhxUR1A5GQkKAihki9jzzyiFoDcftGlCBmcHHDEvj666+r4AmF3/JdrN58ByuhpYBqOJhTHWvXE2sxYvmaa67Rz9/+9jcZPny4DBw4UMUw7tlPPvmk/OpXv5Lrr79erc176wJPY4yI9uf7I8wZtcfyT2cDCxMxBIzGBWFtEZKNWITpKrRXhhFpYBgpLCy0OdVGVEL9JX6TzakOLyaqGxBEB5HAhw0bppG96SxMmDBB1q9fL+eff76m22JuKtG/EdIIFoJGEYBszJgxmg+R7/3jH/+Qfv36eVs19hcGKrDexhJDhgyRH/3oR3LxxRfvGI3E+ozQRYAxSEN9I7AdnxtuuEE9JozogjgKtCfjx4/31hhG7OAPNhtGJELdJCaLYUQj9HttQD68xAUYzogAFubdJcsLHpOa2obNCTigzTXSNfcMiY9reBcI3GH51A1X71uWfLcL/vYDOiGm+QDrKMMSyIcGnNuB24ZvHeRfvhe6zn9I/O3wO38bxnehYWEwI1bmshP9m3nPRI5nIIeAYwzEYKVGSBOU7KGHHpKjjz5avSdCYdSSudYM6Bx88MEa4KxPnz46GES9IiYA9eiII47QOdN4XvA96iVlfIeYAQQyu+2229Qt3HIoNx4828RkwNsCt33DiCUYSGZQkHSUhhFpYBjh/WrpDI1ogz4b08Z69OhhU2zCiKmw/QDxUV/+N8QuYgchzIfvsMzHF8LA7xHerON7/M13/HX+ev4NFcx+mQ/bN0G9c7CGxPKcVAJZnXHGGSp6CTSGlRpPB4KJEWAMT4l///vfGrDMr5NcE1y3cefGNZ752LiH152aYBxYeDESvdNcuIxYhIwYTHcyjEiDthdRzVQ+w4g2qL+k2rXo3+HFlJgR8yAgEZexQrNmzVQMhw6k4CL8k5/8RKcS0EnFekz6tptvvll+//vfa2RwrNEM2PA31m6ifvM9BmX+7//+T1599VU57bTTVKTzPfZBOidfiLOeoC3+QE+nTp1UwBuNB9caKx6eBYYRa5CtINam5hixAx5CeLkZRjRCFhgT1eHF3L+NmAcrLO7SZ511lrfGMKIDpn6Qtgyvgi5dunhrDSM2eP755zWDBlkyDCOSoGtMdgs8uU444QRvrWFEB/QdnnjiCTnuuOPUOGKEB7NUGzEP80ks16QRjTCHHS8L3LgMI9bo0KGDZhMwjEgDLyHqJnP+DSPaoP7iTYjXoRE+TFQbMU8sptQymg4Iaz84oWHEEsS6IMe+YUQaWKqpmwTTM4xog/prKbXCj4lqI+YhgrIFwzGiEea7kz5t7Nix3hrDiB2YT037bBiRCNNubM6/Ea3Q77UB+fBiotqIeQiwdeyxx3pLhhE98EIkQjIjzoYRa5C6z9xrjUgE91mmJxx22GHeGsOIHqi/xAKwdIXhxUS1EfOUlpZaWgwjKsGFq6ysTOuwYcQaxAtgeo5hRBq0vVj6iFBvGNEG9ZepCxb9O7yYqDZiHlJqmag2ohFGm0mhZqnLjFhkxYoV5l5rRCwM+JioNqIVvNxMVIcXE9VGzGPRv41ohVzkuCB2797dW2MYsQOu32lpad6SYUQWRP9u27att2QY0YVF/w4/JqqNmIdOW9euXb0lw4gemFONl8Xs2bO9NYYRO5CfOiMjw1syjMgBL6HMzEwbkDeiEupvt27dJDk52VtjhAMT1UbMg3uhpdQyohVLqWXEKqTU2rZtm7dkGJEDc1ILCwstpZYRlVhKrQODiWoj5iEthnXcjGgkISFBBg0aJKNHj/bWGEbswJxV2mfDiESomxZIz4hW6PfagHx4MVFtxDwtW7aUo48+2lsyjOihtrZWli9frhY9w4g1Jk6caHNWjYgE99n27dvLoYce6q0xjOiB+ksqWQKdGuHDRLUR85CSCGFiGNEGLlxErzdriRGLrF69Wuu3YUQatL1MHVuzZo23xjCiB+ovKQsrKyu9NUY4MFFtxDx02kgtYBjRBqPNRKAlYI5hxBqWp9qIZMhTTdo3w4hGLE91+DFRbcQ8KSkpmrrFMKINUmoRub5Pnz7eGsOIHdq0aaMpDw0jEiFzSOvWrb0lw4gumL5gKbXCi4lqI+YhZUvPnj29JcOIHggywmjzrFmzvDWGETuQ8sW8MIxIBC8h5qN26dLFW2MY0QP1t1evXmpUMsKHiWoj5sG90FJqGdGKpdQyYpUFCxZYZgYjImFO6tatWy2llhGVUH9nz56tMYWM8GGi2oh5SIvBy9Ewog1Sag0YMEBGjhzprTGM2AFBbSm1jEiFIE/MqzaMaIQ86zYgH17iAgxnRAAL8+6S5QWPSU1tw46qDGhzjXTNPUPi42xeQUPDC+ef//ynfPzxx96aIB07dpTf/OY3snDhQlm7dq2ce+65ezyv49NPP5UlS5bID37wA2/N/sNLcenSpTJ8+HBvzb5TUFAgU6ZMkX79+knfvn3VxWZf8aMzcs4nnniiZGdneyWRxUcffSR///vfvaVvINXIj3/8Y3Wv3x8IpPHBBx9IeXm5jBgxQh5//HE5/fTTpXv37t43Gg6iDT/66KNy6aWXaqo1H6K83njjjd+xSlB3uTd740LFS+yNN96Qp556Slq1aiX9+/fXtEEDBw6UDz/8UMaPH7/H0xGqq6vl66+/1uPjdy+99JI8++yzUlpa6n1DdLucD26KL7/8sr5Izz//fK90z+F5vvvuu+X444+XHj16eGtFA/U89NBD8vOf/1yysrK8tbvn/fff18i55513ns4Nrw/u/b333ivHHXecugLvKdynt956S+sfA2bvvfeezjsfOnToTvdlRB5YUjp16iS5ubneGsOIHHjfb9iwQQc2DSOaoH/51Vdfaf+D2ABGeLDeh7HP8NASWfvmm2/Wzr7/ufPOO7WjNHnyZLngggt2CGq+HzqG4y+HrsNVpa47YH3f89mTMsQaYmp339sTEEy4k+8qTYG/vbrbrG8926kvQX99v4f6thFKaNnOvuevr6+sPrgn5DsMvcd8rrnmmm8J6rrb3Nk+/PV+GYKVPOInn3yy/k1HZmfWq9Df+r/32dl68Nez3S1btnznepMPmntxxx137Di/Bx98UGbOnKmCn3J/u6Hb97cbuo5BHMTkr371K7n11lvl4osvVqHKvikLrTv1/T4U1lPfqCP+3z/5yU/kxRdf1GN87rnnVGwjtOn8MQAQKqh3t/1Q+A6CvO61Zzk/P1+vQSg7266/HuHP+frf8df7H38d+6z7PIV+pz4Q4/yO73Av2Q/P+c5+56/fk7Kdfc9oeNatW/etASLDiBRoA+jfrF+/3ltjGNED9XflypU77UsZjYNZqo19ho7tTTfdJGeeeaZabutCpx8r1/e+9z210GEtxgqNVY3gNFi5EQlYxX74wx/qw3/LLbfIxo0bdZvDhg1Ti5+fEisnJ0d+97vf6ffp5D/55JPy7rvvqrWY7V1//fVq3Xz++efVQp6Xl6eWkAkTJug2aWAQbWwb8cG++e7bb7+tnXosrxwH+9kZbPP1119Xi9jgwYO/ZanmON955x09b6xndBYRVIhF9v2///1P5s+fr0IUCxtBJP74xz+qRR/RdcIJJ6g4Yv8cE4MRRx11lJx99tm6n1deeUVeeOEFFQ9Y47iuZ5xxhkybNk3nJmLN/OSTT6RFixZq6eWaM5cc0XXJJZfodln+z3/+o9eDqNIXXHCBWjp3Zd3DIsjx/+hHP/LWfBvOl3PAqvrZZ5/p/rDic20RPlxrrqt/z7DMc69xbcY6jIXytddeU/F+8MEH6/FdeOGF34p4zbbnzZsn//73v1UU02xhPcB6yjL3hOvvzyHifBkI4HdYTJ9++mk9loMOOkjvIZ4URB72QZTdcMMNOlDAgJAPx8X1njhxovzjH/9QSy11Gutr586d5YEHHlBLMufCMVNnOUeuCaPDCGC+TwRZPCXefPNNOfzww/Xef/7551rfufZYmS+77DK1YIfeC45/xowZWlepx4899pjW8UMOOWRH3Vu1apV6T7CObXKdL7/8cs3NjhUYq27z5s31mowaNUqPtT785/mss87S++fDs/evf/1L/vSnP8nmzZvliSee0AA+06dP1+iibJd7xfXn/LjvRHTG84JreeWVV2p9u+eee/T+III5T46R68vAANfj6quvVi+XV199dcf95H5R7zh+H64n949j4bnh+cJCj0DbtGmTDsp8//vf1+eceoanBc8V14W6cc4552gZx0LdYLCAEf0OHTqohwzPKe0H1+qiiy5SbwOjceB5ZvA1tL4ZRiTAO4b3NZ54O3v3GUakwnuN9znvZ4tgHz7MUm3sFzy4dE4RSnzoaNN5rTtWgxUN8YYIQXjQmfr1r3+tnV0EIB3i3r17awNw6qmn6r+IBsTEaaedpqLosMMOUwsdQgOBjnhEZOBmO2TIEBXggLhEaP3iF79Qt2VEAWKazj77xOWa/SEWcQHGtZWOPSKLdfsyssf5Yp1EnP/5z39W8fvb3/5WhTCClOsyaNAgPVYs+1hAEddXXHGFimPELS6QCAIECb+nQaRzz/EzGMF54wVA2c9+9jOZOnWqXldAVB955JF6jrhQsx+2ed9992k554v4QvAxMMH5Iiw4LkTm7uDc/Hvsf9i3b8Fl/wjnu+66S689x8vf//3vf/Ve8XtEMWIKCzD3c9y4cSqg9uR6I3q5Zpw3x8558TuOH7jGiFbqA+IPcYeQ+/LLL7VjhGBmn1xjhNWegJjmfviu31wnBlNwkUYEUHepy2yX+4L45RxxGadO//Wvf1W35rpwvfgugx64uj/zzDP6fcQfz04oCGwGkXbmfsj1Z7CAuhE6xYLnhgGnSZMm6XEiQrn/nNP+wP64rojghx9+WAdMHnnkEb0/nBNtwe233y5/+9vftB77Fmju09ixY/VYuHdcA64VovWII46QX/7yl3qeXJPk5GQdWKGeU18QzKGWbAZhqMO0Bwhz8nizf9oX6huDdbQT1DlENtfnuuuu0+394Q9/0H+pu4h77in7R0jTFjB4wLapu7QvtBV12zKj4eCa+8+XYUQatGG0A4YRjdCntZRa4cVEtbFf0MlG7CAI+CC26KjW7YhitWJeKQ84nWasbcyDRMRincIiW9/cXBoFrHj8hs40YoF90kFHiGC1wtqF+PGhk42AxTKLlQmLIoILkc4LknI61XSYERpYFensY11mHR30vYVtI7SwHCNwENMITc43MTFRj4VjRRBiEfzpT39a7/li3fTnfvMbLHQMEmAVx/qG9RsRNnfu3G/Nk0GQcB2BOTQIDJaxKHLtEVNYMfkXyzbHgQUTwVvfIEhdcJ/377H/QajzO84dscm1xpLLsYwePVo7JBw/QpZ7hng55phjdJCA67M3wePYDqKdbSMW8Qhgmz5Y3SnDCks949pwHzlGcpQzUksdwhtgZ/M3EW4MzHB9+SAWEWZYYRG33Ev2A1wPQFSzT7bJOXNuoQKwPijnXnA8WGQReVj6eW6wvoaC8KMe8Yz58Fv/GBkk4Vpw7UPniCMmOXbEOMeHCGYQpb46tzdwr3keseJyPahnDFLwPDGwgccKzxjHwv2m/gHWZEQwFmHuH/WwrsWc+kB95JnkunB+3EMGaHZXV7jn3CfqHPea/XJc3C8s7wg3tono57r7UDdoH2gT+C7eAFxLljkPrOWh9cxoWKiXezNP3zDCBW0d707eK4YRbVB/6QvaoGV4MVFt7BcIRuZwYgHmgyWRjnWoC2td6PhizUM04i6MNRlhjGDeE+jk0tHGYogIouNdd45sKBwjHf5Q6NQjbhHAWDz5IIxwAd9X4YGQwTWWD3+zTUQnnXisx1jTEU9Y4XDLxYK2pzCvC4s6H86X496ZEObaIyrqihYGHrh2/vkiirAWM3BBA7wrcOn277H/ISJ13X0A54soCa0D3B8sk1gSGUxhoGBX96wuCCQGYLCCMhjA8e9O7HCNELCcp38sHBf1rz64nqH1gXpw0kkn1RtAi+Ph3P0XFtePbYcKtp3BeXMP/f3w8QdTEId14fscl4+/zO8AYU+9DR1k4fg4poZ+obJN9uOfJ9vn2vrzp7lmfp1gSob/Nx4DzFfHu4Jjq+/eca8oC70HXFPc5fc1lzF1ngEzBkjw+mDbuxpA2tmAi9E4MGBUN4aGYUQCtBO8o+sGrzSMaID6y9S0/fVOM/YOE9XGAQFLNcKa+dVYnelcIRx31eH1oWOMSy9iCQsYcyR3JvCAbdbtuCEMGIXGMsWcZazAWLSY07sz0bUrEDpYuXF9xiLH9rCKIjoQIghX5vjiropQY1AAkbknsG0s0wwCYP1j3ifb2lsLDxY4rHFY0zk+/xhDLZyNBQ07nROuB+fPvrnvewoux1gxfYs9VtfdRYtmMIX9Ida4hoCY31lgJL7L9fCvDR8svWynLohHtum/sKhjWDW5R7vD91zAmyJ0X3hr1L0X1GkGqXzvBWAgxK+zfKgTbC8Ujg/hujcvVJ4n6lRdqzBime1TXvc82T7XAdHLdxgY86+1H4APcYyYxsLNVAd/znbd55XrzzaoF3yHc+M8cWFHXO8tnD8eBVjsea7ZFvd3X55vo3Ggru3Os8MwDhT/3955gOtVVPt7QkzvvUJ6I4X0hHQCIdQQiogoCAhGwY7tWu/Vq9iuiiiggvQmIiC9lxRKSA9JSO+kkUhIIUDgn3e+mbj9/t9pyTn77Jnze5/nPOfbe3aZPbP27Fkza9ZCNjXoI0KFQeXkgLyoeKRUi9ShU856Yxwp4egI80tmVumYlzRjCnTsUYxQEjHNQkFlbW5RnTOUGBSRJCgv3BtTWq7FNZk1Z833oYzscT4KGx12zFDZZu0oSgazb5ieMquO0sDacfJaWucRXpGhjFDEUBYw+y2rV1LKgDLHBBYwR7/11lvtDF5Fg3JF+TC4gDKMiS8z9qXFWxXw/Jjl4mCK9bfFwWwqCimzDSjlXIP1z2WxECgKbwaO/JAvTOhRHFH6UQ6LA+UUp2JYZ/iBJAYcsHDIr1PqGhN26qosUM68G3PnzrVlzzWwCClu/Twzzsx6sx7ZL6fgXeC5kFkGosgrpt4M8nBdzLlZZkB5sASAfGLCjqUGMk+HlGeg7lGqOZZZa961/PeVdwPHZsinryPyzww371BZIa+827z/vJMo8YRTUyc5OzDYISc6IovQF8FyqCyDv0JkBeQXJ5CHauUlDg0p1SJ1mEVjhpmZajpVOAVijSZKLo6JCGGE46KiZhS9OTXOqDgfRRiHUKxnZVYtHzrXdPKToPjgOZjOO+di3owygVM0GiMcF7FdaOaR++ANlHNQVPEMjVk2Ch8zY6wbZqaNmUdm2FBCUCRxIoaZLjO1Z555plVUUBBRRHBu5tfp5oNSwHOyrpZrcj/KCwWkLMoW60cvvvhi64iJfOO8izU3lDtewfHSjPJTCMqYc5J/zCSiHJcGBgQwf2ctNwoldY6nbWbrk+vhiwIFkc435c69eW7qjQGVogZBqEdmmnlG5AkLAp6VvBwuzOjiZAvzKq6LtQRmyuStpIEh0ikL3gFmbpGjn/3sZ1Z+qKMkyC4yXdaBAD6kOK7D1B7ZwQs9s91JL9qFQD6RX56HZ0HW6Fhi3eBN6PnPu8F1+Y+s806iuKJYs/ad5QHINu867xrXxEkY57Aen2fGsoMBBt4NnAqivFOGKOHcj/vfeOONtp1ImrYDA3HIADKUvw7dgxJN3SMfzFDjg4EyQHnnHRaVD+3yoQyYCFHR0PYim0W1L0JkGeSXwXTNVKeLQmqJ6GF2FqdHdPRLCx12TBOriqMHZh1RkIgXjSIksgGm08zsYvGAklzZ4BOA2X7Ch3nHeEIcKgqpJbIKXWOF1BKhwuC0Qmqlj2aqRfQwi1aWdcMomMwM4rSImbSqAObLrDGXQl150ImjHrAawKyaP34jv8wwszZYo84iJpBr5FuILMKAupwXilCh31vIJ4yoOKr/NzZ5GWDbnplmx94FBzqW5dtpbFl/hGlcp7epVq2wEysRP4zYYQpa2pk1zFsxw8VMtCRT3ljAXBjncaLyQKlmbTXLHzCLx7Sd7VdffdWa/vs1x5U50MPMOe8TyzTyTbKFKCvIE8sLDsURnRAVCd9+2jra20JRGYTIOrSv9HuryuRQFtBMtYge1gkz4ydElmEwhzW/X/va18wPfvAD+/fd737XrsHHRBbT/MpWZBlsmjRpkmZvRLmgkFoiqzDIyRIwhdQSIYL8KqRW+kipFtGDl2FCXQkRGlhYeAdgQsQGy2yKitogRGWDo9L8EINChAL9Xi0ZSxcp1SJ6WLeHh2YhQgPzQzwks55aiNjAwzuhEYXIGph/E5pw2LBhbo8Q4YD8jh8/XiG1UkZKtYge1pUoLIYIEUy4MI+VpYWIERzzFQpbKERlQ9uL6azaXhEiyC8D8pqpThcp1SJ6CEdEaAwhQgTvnXI0IkIDKws6dsVBvHDisAuRRRjQXL58udsSIixweKo11ekipVpEDwqJHCuJEEGhJlb6kCFD3B4hwgDroBUrVtiZvqKUa8L4acBIZBXCvSGjQoQISx8VUitdpFSL6GnYsKEZMGCA2xIiHDDdYrSZsFpChASye/fdd5sbb7zRyu+mTZtcyr/p27evBjxFJmFNKkoJg5pChAbySzSR2rVruz0iDaRUi+jB/Hv+/PluS4iwQDnRuigRIpgezpw501x77bXm1ltvNc8++6xd5+dhWY68K4ssgnUF3umXLFni9ggRDsjv3LlzZf6dMlKqRfQQsgWHOEKEBiG1unXrZmf0hAiVPXv2mNdee83ccccd5qabbjJPPPGEVaa3b9+ukFois+BED8VaiBCh36sB+XSp9lFJnkRSYsnWa83K7XeY/R/udXvKh96trjQdm5xrjqj273VbhKeZOnWqvDpWEfbu3WtNDzt16uT2CBEOjDTj9Klu3bpujxDZZ//+/Wbx4sVWcU5yxBFH2DAvRx11lGncuLE577zzbOgiIbLG1q1bbX8RM1ohQgLVbvr06VZ21XdIjyqpVDNCTmPJR1/ED/W9cOFCM2rUKLdHiDCgjVqwYIHZtWuX5FcEBbMk999/v1m7dq3b82+ITU0MVQaLkOu2bdu6FCGyAV3jjRs3mjfeeMPKqhAhQdv60EMPmeOOO876FRLpUCWValG1WLlypbn33nvNt7/9bbdHiDAgxvrLL79sww6deuqpbq8Q2Wf9+vXm+uuvt0oJMENN527MmDHmxBNPtLPT11xzjZkwYYLp2bOnPUaIrEDXmDX/06ZNM1OmTHF7hQgDlOqrrrrKXHbZZaZly5Zur6hotKZaRA8hBTRSJ0IE2e3Xr5859thj3R4hwqJWrVp2ZnrixInm+9//vrngggsOmns3aNBAIV9EZiHcG0sVhAgRwsHhl0Wkh5RqET00LIrzK0IEJyOYfzNbLURoYNbNrPTXv/51c8kll5gOHTq4lBz9+/e3YYuEyBqEJGrWrJkd1BQiNJDfoUOHaj11ykipFtHDelSF1BKhopBaIkSYhZ40aZL55Cc/abp27er2/ieY17799ttuS4jsgPk3/lgUUkuECPI7b94866hXpIeUahE9hMXAMZ0QoYHpVpcuXUzv3r3dHiHCAAuh9u3bWxPaoiACB+2zEFmEyAv53uuFCIUtW7ZoQD5lpFSL6GnSpIkZOXKk2xIiHHA2wkyewv+JGGFZDia2QmQNzGfxBTBo0CC3R4hwQH5Hjx5t6tWr5/aINJBSLaKHkTq8JwsRGphwoVBv3rzZ7REiHliao5kUkUVoe4m+gIwKERrILwPyDMyL9JBSLaLnnXfesc6ehBBCZIfFixdrTbXILKyp9iHhhAgNfAlpTXW6SKkW0UPIFoXFECGC7A4cONCacQkRG3imVUgtkVWQTXlPFqFCv1chtdJFSrWInsaNG5vhw4e7LSHCAdNYPHjOmDHD7REiHgYPHqw11SKTsCa1efPmZsCAAW6PEOGA/OJLSINC6SKlWkSPzL9FyKBYa92piBHMvzGxFSJr+JBaMv8WIYL8zp0713qwF+khpVpEDyFb5OhJhAimW506dTI9e/Z0e4SIB0IdKqSWyCooJNu2bXNbQoQF/V6c7Yn0kFItokfm3yJUGG3evXu3vNeLKCFcUdOmTd2WENkC8+/+/fu7LSHCAfPvESNGKKRWykipFtFDSIE9e/a4LSHCAdllNu/NN990e4SIBzzT7t+/320JkS2QTZnPihDxA/IKqZUuUqpF9GhNtQgZPo78CREbixYtUkgtkVl27NihNdUiWAippUGhdJFSLaLniCOOMLVr13ZbQoQDIV2GDBlixo0b5/YIEQ+0ywr5IrIKslmrVi23JURY0L5iBi7SQ0q1iJ4mTZqYUaNGuS0hwgGv33PmzDHTp093e4SIh2HDhtl1q0JkDZSRli1b2rBvQoQG8jt27FitqU4ZKdUiemT+LUIGxVoePEWMEFJL5t8ii7DkRiG1RKggv/PmzZP5d8pIqRbRQ8iWTZs2uS0hwoGlCx06dDDdu3d3e4SIhy1btqjTJzILjvRwFClEiODgVAPy6SKlWkRPo0aN7LpUIUIEpUPe60WMEK5IIbVEVmnWrJnp16+f2xIiHDD/ZnlN3bp13R6RBlKqRfRgBvPee++5LSHCgXAYzOZt2LDB7REiHphFUcgXkVWQTc30iRDx/V5FDkkXKdUierSmWoQMH0V9GEWMsKaadatCZBGtqRYhozXV6SOlWkQPZjA1atRwW0KEAyG1hg4dasaPH+/2CBEPyDd+A4TIIvQdkFEhQoR+LzIs0qNKfs32799vg/rv2rVLM0BVANbsKc6vCBE8f8+ePdtMnTrV7REiHkaOHGnDFgmRNVBGWrVqZdelChEayC+D8QqplS5VSqlmfQyeHF9++WVzyy23mPnz51sFW8QNgyfUtRAhopBaIlYWLVok82+RSZhwkfm3CBXkV+bf6VNllOrt27fb2Z7bbrvN3HzzzWb69OnyqFtFoFEhtIAQoYFp7JFHHmm6du3q9ggRD5s3b1anT2QWQmrhKFKIENm4caMG5FMmeqV659u7zfPPP2+uv/56c+edd5qXXnpJI+NVjIYNG5qBAwe6LSHCgplqea8XMUK4oiZNmrgtIbIFS8f69OnjtoQIB8y/Bw8erJBaKVPto4wsKl6y9VqzcvsdZv+He92ew2Pf3upm/dK6ZsP8zmbHlurm7bffdin/ZuzYsWbixIlm7dq1pmbNmqZdu3bWU/S2bdvsWpr69eubFStW2MX+7du3t2bEmI+zBgxFjbTq1avbmaTdu3fbEU2ftnLlyoOzTMyIMyLfvHlz07hxY7Nq1Sp7f9IYpd+0aZNNI57ymjVrrJn6UUcdZfbt22dnWImVyHmkYa7eoUMH28lmFIpGnz/S6HyTxsgUIXjorHAuz8fxpHH++vXr7fVI4zf3IY37rlu37mAa1yB/5AW4Dnkkr9ybUVzSeHm5P8/dokULm2eemTTKYPXq1aZBgwa2bHhWyoo0yo6yoJxJo/woY8qa+qAMfRrlTt2QVqtWLVv2rBWhnqivnTt32vqjAVm2bJn937p1a/PWW2/ZvFL/rKteunTpwTSsFxhgadu2rc0fZl516tSxaexn3T2/eWbSateubdq0aWOvxbnJNPJEGnnknuSLckym8WzkleehbkjjObk/ZcIzUn7UJ2nIHWl+tJxyJ41nwHkKz0v9eNkijWenXEmjXilv6pK/5cuX27qiDJEH6olzOJfypCkgDRmh7n0a9YBscE3+k8azkVfqFrnjPM73skUaMsF9kHPu6+WH5+c3+eM88suxPg0Z5LlI4zm5B7JFGvemPMgLZYf8UHeUN/WM3JFGmXv5Ic3LHeVJHfO8Po3yo25IQ6YoQ/5Tv5Q7dUr9cR8vP2xTl8hCUg64NmnIAGlcn7pesmTJQdlCrpAv0ihjPCDnyxbPShmybIFnJD907rgu+0l//fXX/z/Zor5Iw6yW8iGNMkG2CqV52UI+SCMvXu68bJFH8s15pHEebYyXH56D86grzkMeqAuem/N4dtoB0pLyQxplDVwTvPyQhrxyPOchP8gF5cyx1B/3oa65NvKEjJBGeZE/ziNPyBZ1Rxq/kTvSKDsvP6RxDZ6Z39SVlx+2yRdlxW/q38sP2zwPZUye2Ue+qS/uQTkgd6RxH982kYZMUm+Uu28PvGxRX7RppFHGXn44z8sdckCdUvY+DflAtpIygmyRhtzxxznkZ+HChbYMSPNyhxywTbQEL1u+TSON8kYmfbvl5Y488r4m0ygTZCuZli9blOuJJ55o7yNEluB7xjvK+zx69Gi3V4gw4Nv5xBNPmFGjRtlvj0iHaGeqP9xfzezZ+THz5oa3bYehEHR26CjRYaBDQSeAjgzbdCTy03znorg0zvdp/OWfx3ahtOLO82ncy6fRmclPo3PDMyXTOLbQeZQJ59HJYpvz+CuUxnnJNLaTafwlz6NTxzbnJNP4XSiNfUWdx32S55F/jvXnlZTGffkw0vH0af6apLFNOReVxjXpACbTKFd/XmnSvIwUl+brOpmXQmlFneflgN/8UYbJNH+eT0vKSP4182WE/f48/vx5RaUVd55Po7x8GvfkN3VW2jTymEzjd1IO8s9LprHNb65VVJo/LykHybTk/ZL14tP8ecm04mTEpxU6j98MTiTPQzHkt68zn8b/4tLy65prFTqPsueZ88/jL3ke+fXn8cd5ybTk/ZLXTKb584pL469QGueQn2Qa9ypNmr+mr+uiZIvzfBrPlpQD0rwccF6+/Pg0zvP5LpTmz8uXyeR5XkaSab7s8+UnWWf5aYXOS8pIUfLD+cihP4/y41r+PJ/m69qnJc/LT2MggXQhsghyjowKESIMZPIdEOkR7Uy1p6X5rFn4Uk3z7DPP25kNRm88U6ZMsbOXCpkQN8x03nfffebKK690e4QIA5pnlBz+MxspRExce+215vjjjzc9evRwe4TIBrS5DMbPmDHDXHrppW6vEGGArvOrX/3KXHLJJdZySaRD9GuqW7RqbC6++CJz1VVXWTMzhAvzNFF1wGzxhBNOcFtChAMDgbNmzbJ+IYSIDZZgsXxAiKzBkhOWJRD2TYjQQH5Z3irT73SpMt6/WcP7mc98xnzlK1+xI+Nss75LxA+mhqwRFCJEWB8sD54iRlinL/NvkUWYqWaphcy/RYggv3PnzrXLiUR6VBmlGjDzxszs/PPPtyYRXbp0sU5uRNywpgRnQkKEBu0TzqE6derk9ggRD/i7UKdPZBV8CuBQT4gQod+rAfl0qZIaJd5Qe/fubT2SSqmOH7wC9+/f320JER6MOgsRG3yH8fYuRBbBK3+vXr3clhDhgPk3oWTliyVdpFGK6KFx0eCJCBGcjbz55ps23JMQsUE4PdpnIbKI+g4iZNS2po9aCxE9VWVNNWFrfvOb35jTTz/9P/6+853v2Hi5JUFMWbzxEupGZAcU62TUAiFigTXVrFsVIotoTbUIFazbFFIrfaRUi+ihccGLcux4xyp4un/ooYfs3/3332/69u1r7r777oNrazgOJW3//v32vzctRinnfMrKH+PTwG/7NH+N/G2/Txw++IEYMWKE9eIpRGyorRBZxn/ThAiRqtDvzRrV//sA7nelsm3PTLNj74IDH9jyFYKW9UeYxnV6m2rVqrs9oqqBYkIotdhDt/Dxnzp1ql2n2LJlS7sP07X69eubZ5991gwaNMjUqlXLzJs3z/z61782N9xwg3n55ZetbwHW3aCMT58+3TpmIewcCnnz5s1N06ZN7Sz2j3/8Y9O1a1ezatUq8/DDD5t77rnHPPDAAzZk2e9+9zsze/Zsc/XVV9vwT23btrXlLdO5w4OP4syZM82SJUtMt27d3F4h4oC2ibBF+DkRIktgOkuEGPoOfAeFCI1GjRrZvhh9YJEO6vGK6Nm1a5c1g6mKMAu0Y8cO22mlg4A3SJTeyy+/3Nx3333WE/4zzzxjFfJvfOMbNpb7l770pYNKeVGsX7/ehqi77rrr7LHbt283o0ePtor2uHHjzGuvvSavvuWEQmqJWFFILZFV+HZiucWAphChgfwygSLz73SRUi2iB+UOJbCq8NRTT1lzb/7uuusu8+KLL5qRI0daL+iLFy82q1evNq+++qpNp8OwYsUKG9qmLKBI4xnVO8JgJL979+5WcWdkFFNymc0dPsz0M5PXoUMHt0eIeMAJnwbfRFYhpFZZv41CZIV169bZvphIDynVInoaNGhg1xVXNZg9fuyxx6zJN7PIeNrduXOnTfPrGDHzPv7440ucmRaVB6ZbMt8SMUK4IkwUhcgihHvr0aOH2xIiHJjwOOaYYxRSK2WkVIvoYbYP5bGqMGHCBHPeeeeZiy++2Jx11lnWm7f36M3653bt2pmzzz7bHsPf5MmT7X6RPXCUg8k+69iFiA3aZfldEFmFgWisr4QIEdpXhdVKF33NRPRUlZBa+TBCedxxx9mG9Y477jC7d++2M0P79u0zs2bNssdgFo/TMhyRJalXr55di415Jooda6TXrFnjUkWaeM/qQsSG1lSLLMM3UCG1RIhoTXXlIKVaRA8KSVVdV4L5Gg7F1q5da2688UbTunVrc8opp1hFevjw4earX/2qndn2Xr5pgIlrjXM31mH/8pe/tP/p+A4ePNhdVaSFD6mFAzkhYgMHfBowElkF2ZSTSBEq9HvVvqZLtY/84spKZsnWa83K7XeY/R+Wr9OS3q2uNB2bnGuOqCYTnqoKM9XMsvbp08ftESIM6NDhVI618CeffLLbK0Qc4DgRx4ZaVy2yCN6/seLCCacQIYFqt3DhQhuKUyEL00Mz1SJ6qnJILRE+CqklYgWlWubfIouglCiklggV5Hfu3Lky/04ZKdUiegjZQmgBIUIDJ06tWrUy7du3d3uEiAec8BG2SIgsgh8S/IoIESIs+1NIrXSRUi2ip379+qZ3795uS4iwICSawmKIGCFcEfHzhcgiLEvAfFaI0MDrN0seZfqdLlKqRfQQFqNu3bpuS4hwwMkIHtpXrFjh9ggRDwwW0T4LkUVwFCmlRIQK/V6FLEwXlbaIHtZUV8WQWiIOUKzlwVPEiNZUiyzDmmqF1BIhwppqfAlpTXW6SKkW0bN//341LCJImCkh9NkJJ5zg9ggRD8TM14CRyCr0HbQmVYQK/V61r+kipVpET8uWLc1pp53mtoQIhw8++MDMmjXLvPjii26PEPFAjPw2bdq4LSGyA2tS27VrZ8aPH+/2CBEOyO8ZZ5whnxUpI6VaRA9xqmX+LUKFcFqaLRExIvNvkVUUUkuEjEJqVQ5SqkX0EFJrzZo1bkuIcMDJSIsWLUzbtm3dHiHiASd8CqklsgohtTZu3Oi2hAgL+r0akE8XKdUiegip1bNnT7clRFjUq1fPNGjQwG0JEQ9du3aVbIvMguls586d3ZYQ4YD5d69eveS9PmWkVIvowdmT1pWIEMHJyNq1a82yZcvcHiHiAYW6Ro0abkuIbFGzZk0N+ohgIc66Qmqli0pbRI/WVIuQUUgtEStaUy2yzI4dOxRSSwQJa6rnzZunNdUpI6VaRA9hMVhXLURoYGUxdOhQeaAVUUKHj/ZZiCyicJwiZOj3akA+XaRUi+ghpNakSZPclhDhQEitOXPmmGnTprk9QsTDxIkT5YRPZBLWpLZv394cf/zxbo8Q4YD8Tp482ZqAi/SQUi2iZ9euXWb+/PluS4iwUEgtESuLFi2yYYuEyBo+pJbMv0WIePNvWWmmi5RqET2EbFm9erXbEiIcGG1u1qyZadWqldsjRDysW7dOIbVEZmFAnrBvQoTIqlWrNCCfMlKqRfQQkqhbt25uS4hwwHMn5ltNmzZ1e4SIh06dOtmQh0JkETx/d+zY0W0JERbdu3c3tWrVclsiDaRUi+ghZIuUEhEiOMrBykImiCJGmjRpYsMWCZE1sBJCIWncuLHbI0Q4eCu36tWruz0iDaRUi+hRSC0RMgqpJWJFIbVEVtGaahEyCqlVOUipFtHDbJ/W7YkQIaTW4MGDzdixY90eIeIBJzoKqSWyCtEX5OhJhAr9Xg3Ip4uUahE9hNQ644wz3JYQ4UCnjtHml156ye0RIh5OOukkhdQSmcSH1DrhhBPcHiHCAfk966yzFFIrZaRUi+hRSC0RMgqpJWKFkFoy/xZZRObfImSQ37lz58rSImWkVIvowQSG0AJChAajzTjZa9GihdsjRDysXbvW7N69220JkS0YkCfsmxAhsnLlSg3Ip4yUahE9devWNV26dHFbQoQDIbVQqlnCIERsdOjQwYY8FCKLEO7tqKOOcltChEXXrl0VUitlpFSL6CFki5QSESI4ccLKYsmSJW6PEPGABUbt2rXdlhDZASshZJOwREKEBvJLvxdnpyI9pFSL6NGaahEyKNbykCxiRGuqRVbRmmoRMsgv/V6F1EoXKdUievCgrHV7IkQYZR44cKAZPXq02yNEPODvgvZZiCyCbCocpwgVJpQ0IJ8uUqpF9GACM2nSJLclRDjQqVu4cKF59dVX3R4h4mHixIkKqSUyiUJqiZBBfs8880yF1EoZKdUiehite/31192WEGGB9859+/a5LSHiAV8BMv8WWQTzWWRz6dKlbo8Q4SDz78pBSrWIHsy3VqxY4baECAdGmxs3bixnOSJK1qxZo6U5IrO88847NuybECFCv1cD8ukipToSduzYYZ5//nnz/vvv221GqeiwzJw582CnhX1bt261o1cbN260/5nFTfLhhx+a5cuX25exuLVueCQuzewvI72Yr+a/2OSN+3O/iqZOnTqmY8eO9jeOR8j3oTY0lCEfWf5Yq8JHd/r06Zldd7V582b7vIxWkue5c+emUual5a233jKzZs0q02gq5f7KK6+Yf/7zn1aGli1bZh555BEzdepU+w5wTd6H2bNnl1uHnWvOmzfPlh3XpkzTmGEjpBbLF9q1a2e39+7da15++WWzc+dOu10UlBF5vP/++82LL75o5syZY2U1NHjfNmzYYNsjyp56QIYPdfQdWSlNu5U2PCfv6oIFC2wdlxbaaJ6HMgqRI4880oY8FCKLEO7Nt71ChEanTp1s9BuRHlKqIwGl7p577rEdfqCzhUL9t7/9zaxbt87uo1OKud0zzzxjO6lPPfWU7aQmoXOHuSl//C4KFKFnn33WbRXNli1b7P3ylRsUFO5fnOJeXhAWg3V7vuNKvg9V2aIMUeT4o4zYphNcXFlVJgyQ8LwMnlDWDCZkKa/IJspx/uBOcSDj//jHPw4qz6w3Xrx4sf19991322tSLyhe5fWsXPOJJ56wZfjmm2/aMkW2KxqUY95VrwiiTPNOMzhWHJQn7x0DKcgnZUGZhAbPT5tFHZN/tg9HhhmQKE27lTY8D/X89NNPl+ldoCx4nlBDrrVu3doOegqRNbASYsCnVatWbo8Q4YD8MiBUo0YNt0ekQfX/PoD7Xals2zPT7Ni74EDnonyVrJb1R5jGdXofELDqbk+c8OLQYWzTpo19kZiVopPGKBUehDt37myVQGasUDI5hlARq1evtgoKs1mc27RpU7uGiI44iijnovTceOONZsaMGaZ69er2XDpxzHYza3TffffZe3GP/A7S9u3b7ezQMccc8x9p3Ju0YcOGmfXr15vbbrvNXodZ7T59+tiA9XSgUb6598MPP2yVph49etj9DBjQ0Sbv5JUZDx+Pj9l60v/yl7+Yxx57zP7etGmT6devn70Ws5xAfpOB8VHSyAdKCwo/ikiHDh0OXpeOL/lm9o97Y5bbvHlz+5trUSbMNKF8/f3vf7fn88y///3v7QwqdUSZMvvITP3PfvYze5+VK1cWLLt8uN4dd9xh7rzzzoN1jVkwihN1w0AH+WfmnDTyhjKIEti3b187oEBZk0aeKRfq9qGHHrIj8pQhUA733nvvwfswy8+z5sN1f/vb39pZYp6PgQpGRrnHSy+9ZPNz66232t8+r8B+6ubRRx+1SgGKInKQP2O1bds2c91115kHHnjAyhr5QwZ+/etfWyWT8vLKI9fo37+/ld1BgwZZuUfRPuqoo6xsMghCWVO3PHe3bt1M/fr1rSy98MIL5q9//at5/PHHrSx16dLF1pGH5/nd735n6x5ZwPEH9/Ez5JzXvXt3W0bUEYrRzTffbPdzr549e1o5Iw+8fyhB5IPyatiwobn66qvtM3jHOMl7o0iSf8rqueees3JMWYwYMcI0adLEzlDecsst9t1hAIXyR04pt2nTptnrc03aA+qAZ6A+kBEGIDg/OVtI2jXXXGPLxL9X+R9l6oz2wpcZssQzIkNJKB/qmntS34RP6tq1q70XgxO8J7yPTz75pC0X3g2uQd54l2666Sb7TDw77wttE3mhPJBJflNu119/vbVSoG3iGZENyoq2AsgD9UXnGJmgjoYOHfofZYdsUO5cl3aJduO1116z1+E86pb6oWxpM//85z/bd4drcA7le/vttx98j7GIoWyQQywmOI680i5Qrlg58G7w7lGP5Bs5o/0jjw8++KDd7t27t30u5JS21reF5IX7Uo6UHfGeuXdoUPco1tStEFmCd91b9NF3ECIkkF++L0cffbSsgVJEM9WRgKKMUoGCBig87BswYIDtzNKRpANGZw6Fgs4enVM6dBdddJHtvN11111WoUIRo0NHR44OLh29z3zmM2bChAm2w8cfLyz/6Zyed955dqacjrg3Py8tKEncA0X9kksusZ14OtN03OlYoxjgIZb784HjHiga3JvO82mnnWaVKN/xJ83Pgp900kn22VBoeFYUorFjx9oP5PDhw/+joaF8UCJRtC699FJ7HMoPCoHHj/xx/pgxY6zyTweZzi4KEvdAuaQe8DZOZ51O8BlnnGHrgfyiKNIpv+GGG2y58VwNGjSwilhxJuTkD4WZOiR/o0aNOqhIoVDym843ZYgygdJGxz4JMsHzcC2UJ8r35JNPNscff7wtc9K5FooEys3FF19sRo4cafOaP3vGsShKlP1nP/tZM27cOKvYMKjANVDKqRPyiiLFNvlBAeD6yNIFF1xgy6zQc3M/lDsUBcqI50bRQW4pT5THj3/842b8+PG2LnkOFDsUI2STPCAj1A+zugyEcA55RdFEIeK+KIfIO9cir9QNz5GEwQmuT7mizPJcKLcMEpx//vn2viiYPB/1z33xukm+kQvqgjLn2shUr169zOTJk61C/sc//tHKCoMKnMfARxLyTz0xKEV5gbcuQfnjGlyPvKPso4CSvxNPPNHKJ+8O+UROyAv5pq7JM8/M/ZAFBtwYmOHZL7zwQnPWWWfZNgDFknbAw/vtB3DIN8/IPgZ7uEYS8of8U5fIEsop7xgz/CicyCL34g/ZpU5on5AhOrKUrZdP3ik6ByivKMi0D7xPtB2f+tSnzKmnnmpli2vyjLR5tAX80W6glCNDHsqQATneZ8oOGeIdQhbIrx+QoB5R+nj3AblCDmkDaFu4PmVG28LgFnkD7sezoGDzmzKnDcCTMG0TCjZ1w3tD2VE3QF4pJ65Nuf7pT3+yz8rzcA6h1Xhe8oeshQ7PnawXIbIE76B/N4UIDb6Xye+3qHikVEcCnb7Bgwfb2SFeJDp/KCDMuvEbJYiPA3902jjeKwl0sOnU0ynmWA+dS2azUE5Ruo899ljbOaZz6+/HeaQxU4fCiPJQFuhQkSc6/lyDTuznP//5g4ozeeM+3IM0Zjb8szE4QF5QevzsHv/pvH7729+2HWXS+c/gAR13PyvCOlU/Aw0MQEyZMsV84hOfsPnguTguf5AAZZP9XIdrJuF6lCkK0JAhQ6wSx6ADs8TkiXtQRnSqUXrYx3PRUabjTOe7KFCKGICgLsgfz8Tz07nmXJ9n7s892YccFAVl5vNGvZJ3lB0UKZTQ4447ziprdPoZ6EB5ScLzU8Ze2SSWMjOiXkFmH/khX9Qf+UGRQVli9p9n595nn312wVFUnovBEC97KCAoPChM5IeBCMqX2U1m6bg3SqVXfvLx5cN/6oZn5HqUOQobCihpPA+DJF5xBeqNezJbidwgY8yAe/mirLgeCjBK0xe/+EVbHuSbQQmUSxR9ypg6434MRjBgkJQPBnSo4yQovZQZ9cVxKLI8M6BsI9PID3lngIkZUZQ7lEXklP9cN1kuPD91gpxSF7xP3BdFF2WasiA/PAPykBycQWHnfl/5ylcOvpe0IZQXz5gP6dQhssRxwDXZd8UVV9jyI43y4OPv/9iPDFGvPC/tg58tBuSJgRIGl1BwKcfLL7/c3q8oGUjC9WhnGKCh7MgbCjBtIM+BTFJPlE/SgoT2ivKiDSWPDAggM+SNMkOx5x2gDih/9gNlyfX4I4/8UZ/IB/fz9U5Z0DZwbWSe63EtZAB5J588L/XEcp9kex0iDK4xSy9E1qAdof1k4FaI0EB++b4xOCzSQ0p1RKBc0EFDOWKWhA4dnXE68uxDsQYUA0A5SCqj+Z1RrkEnkw4okE6nmo488J99/q9Qp7okUEwxY8Rcldk7ZvJQTlBmmXH+6U9/ajuXdDQvu+wyq4D7+xXKM5AP8s7MO0rbz3/+c6vYlAT3ZEboq1/9qp1FxvQZ5b4s+Dz5/KGM+W3gHig+//M//3PwuZg9ZebPl2shUMbp3KNMAgoa9cLgAnAvf77PQ3H1kTze549nRU4wL+X5yRvKDyaryQEI4NrIBrOFHMsfM5ieQvlhwAWFg2fw10NmUfryYVYXxcUrNAxmoDRzrUOB8/y5/j8KCeVOffOcPO+Xv/xlu9/XV1HkX4/y4I8yRMFklh0F+Je//KU9xsOxvrz5jdLmtwvdEzlGkfOjzbzTKGuAVQrmy6effrrN+znnnGOVr0LXSUK9+Lz7Y3lmroeiybWQze9973tWVvOvx3OiBGICzUebZQxFQVtD3QGKKr9R0nkPGLRjpp6y5xpJiwWfv6JA9hgUQeH2ZUfbVNJ5SbgGpusMpn3605+2s8zJd6bQtZBBFGIGlFComaWmvQKUXcqROuNcBgT88hLK3OeTa/Du+n0e8k/d+kEmP2jHgA3tF+dwDOfwu9B7ExoMFhY3+CdEZUFbwPuMNZUQoYH80p9lAFqkR+l7ICLz0FljZprOIR1WZhPp3DGDQueRWT6UbDpmpQHFhw7c4ZiPcP9C1+BFJx8ohcxWYAL5hS98wZpgMguGYkKH+bvf/a5de8kMNX9/+MMfDiqWhaAhQbH4r//6L6sgXnvttVZRSnZeC0En/ze/+Y01aUYRx0yVGdyydNJLA/ngub///e8ffCb+WLPLjFlRUBcobMlyRNkqq9JfHOQNJYDZaSwUkvnDBDcJssRgBWuqf/zjH9tZM2YNi4Oy5I9n8MoLvws9A/mgTvxx/tn9dnmAUsOAE2XvZQzT3h/96EcHFdeyQH4xbUcZZXQYmf7Od77jUg8N8khZeMWUMvDmsrwHmAIzCOLriYEk2oCywn1oPzA39tfi7xvf+MZ/lAX3ZvCEZ6QuWTv+gx/8wKX+/3B8fh1yHuX8zW9+0/7G7JvrFbJYKApklbaDMj8UUFIZ8MAEnIGE2267zc6Ml9RO8B4yiEGeGQTkPK5De8uMK8+ApQPPyaAQz1daKKfk++DlnfaC+ybLkjT+QocoEpSdEJVBSabdDPgUZ0EmRJbBclVKdbpIqY4MOtSY6vIxoJMMzGrQccGkFpNDP0tYEpyPmStm2HT0mNlBYWfdX2mVGz8rycyj7ywyI4XzHvJKR5EXn5lYZqzwm8fxNATM9GD6yMwPYArL7HVxnUnugUKOWSXmoMzmcG+UhuKgvJhJZQYKE0ue0ZvtlicoAsx0+XBPXJ/7sBa0uA88Zmjkz3/gyS8dUsq3LB334kChYOaY/5Q7ZYnSwoBMvlkys2cMejAQgWLK8SjaxYEZNedQ18gA9cgACLMB+WCCzEwk1hXkg+sjE8xcl6T4lBZmfbke5YhsA8+AD4FDUVi4BvWCssXMJ3XLtQ4HBsGoe95F8sTMni9nZrmRdb/NvZl5L+sSDPDvOudT55Q5ssbsdVJx5X3lfeRdZd0v7yrWCkVBe8F7S1n45SEo6dQr5zNL7NsA/pcWZAnzde7NeZQ95vCUBWnIK/LCH/fN71jwDCjADBoww0wbQfmVBNehTpmdxgQbKweUXi+bWN3g94F3Mn95SEnwHLQ75Je6ZpaBsqIdRAZ4H3hXOI73hjor7QBpVqE9KMtgihDlCf4k6N8UNbCDbGp5gggVvunemlGkg5TqyKATRoeM/35Gl84dijWdNTpnpYXO6bnnnms7kXjYZRYXh1p0SEurbKK40PlFMeMazIQxu8XLzjpIOoh0jDFjJY2ZNhRiOqecR+cVZ0ekMatEp7m4e6NwYXJKB5T84iALpRXFgA8nH0nyz4xicq0oHWI+nnjwxekU+eXelFkSrk95UibM2PmBgtKCcs+aVJQATF95LmaFUV6KUyroWLMWFmdFnHPrrbfaxpLZ9PLqWPNs3AeFFodX1Bd/KFr5SgnKN89OPjADxss1z0RZF/UcKGCsa6b+mOHj2ihThcqQwR8GH7AY4DiWBWBxURb5LQlmkyk/FD9khXLF6zIWDvl5Qo7Zz3r4pJlyEuqD9wyFhzLBazkyh1JZ1DklwfV4F1g/TDkwYOaVZhzAsc4WmSXv/EexPJQBAd51zMcZtOI+XA/PoTxz8n2jDlH0uQ9lxjvJe8QzFhoUQlFlVpprIlP4SGAtOX8on5TT3/72N/ue8b7lXwPllFl6Bp1wmuYHP8gHa5lZn821+cPagHebQR7SeQbefwaA8gfVaBt555FfnIhRZ1yb5y0OZJt1zl5eaA9px1BwuQftGrJDGXnT79LC+dQta9t5HmQNxR2LI2Sf69JOkoYigP8HniFkaG+kVIvKgu8P7zIWcrQBfikH8D2k7WHgR4jQQH4ZeA994DU0FFIrMuigoHhgSuyVajqmKIyYN/KSsY0CQGeN/fymE8pvOoV0COnsoDzyGwWdF5TfdO7ozNOJ5FrsI40ZYdYPs53swPKb66LAcBzncd9TTjnFXp8XHsWBTr3PO+bgfMy4JsdyDM9CZ9krkVzH55HreviNAsQfz8UxPDcznZgwcx3SyA/X5hjgmtyb83leHArxrJzP8R7/DHRmOY5zOIayYJvfPA/PzX/Kk2ejfEnHJJQ8o1SgrHBtlCYcNXHdouB6lC/35Vp86PFAjnKbrEuegz9+kxeek2O5L7/JJ2nkjXTKA3ngfBQ0thmU4D/5Js84aiE9CfXj65rr4oiJZ+A+/HHPZH4435cleQaeF5Nx6ofjeS4Pv7Fk8EqVd57F8/vn4xx+c02u7+WFsuXa/hh+U0/cl/zyXGyT7uuD6/AcyBiKP9tJkE2uw72oU38+ihPHss19uZ4vO8oax2UcxznchzKg3Lw8+DolX14+ODcJs64o57zTDDRRDsgMz8vzefNwfiMT3J/rcx/uTRrX5Td5IF9sU7Y8M3ng3hzPNdjPc1LmDG4klUPSuAbnsZ9zkQ/O47rJcmM9Nsoy5ckz0m6ggJJv8sKxPt9426eMqD/+uBb34H4czx8yy3mUoX8WnoP3iDQcpyEz1BPl498L9qPMczxpyDnXII3rc653GEdeKAfSOMa3Dx7yzD0pX8oZeeH6PB8w+MRsMvvIP/Cf/HAfX7Zcn2en3rkez85xyBByigzwTnEdzuFenOPfNwYekQfSvBxRRqHBoATtDc8gRNowGMxAItZKWAExOMg7ThvAtx7LEZRtrFmECAm+iwyM4/xSA5fpUe1AwZevfeshsmTrtWbl9jvM/g//PVJYHvRudaXp2ORcc0Q1jdZUVZgFZsYK024hQoLmGaWaGVLvYDAUiAeP0oSJNApk7DCTjAULlg+suy7rTHVVBId+DKIy6CFE2uBzBas1D4NofkCRqA5Y/bBsjmUqQoQE36OrrrrKOvgNre8QMtEq1euW1DNLX2toanx4pKn9sdw6UVE1QSFhpo+PpRAhQfOMSSIfyNBmIpmlZu00I+VJK4RYYV02s9TMhFNX+uaUDOb6zPLnWwQIkQZYfhTye8F+5JIlSCy7wpJGiJCg74CVBZaA+dZvouKIVql+790jzLu7q5suTS427RqdbI6oFn+nThQGZ044BmNGRIiQwBcAa3gZFFK8VBEbrKun04dpuxBpQ7hIZqKToFBjAs7SHZaE4JOBEINChAQD8fgKIEQmy55EOsj8W0SPzL9FqGBlQYgmlGpCnQkREzL/FpVJ0vyb5RpYs+EbBEUE/wp44Jf5twgRmX9XDvL+LaLHO6YSIjRwRIUTKpx8CREbzFB7J29CVAbMSnunkl/5ylfMBRdccLC/gGziSFCIEEGOkW+RHlKqRfTg+RCvukKEBo5ycHyFh1ohYgNlpio4sRPZhLX8RCK59NJLzSc/+cmD4fgAnwh43WdQU4jQQH4ZjJe/inSRUi2ih1i5OGwQIkRQrA8l9rQQWYd42zgrE6IywAEZ8flZfpDvrZ+VkcTgJ0a+EKGB/DIY/+6777o9Ig2kVIvowdmTOm4iRHCaQ3gXPNAKERt4S6d9FqIyYGa6OM/I7733nh2UFyJEGBTSgHy6SKkW0dO8eXN57xRBgrMRQjVptkTECM73tGZVZBHMZ9u0aWNGjx7t9ggRDsjvySefbJcwiPSQUi2iB/MXFBMhQgMTLjx/M6MnRGysW7fO7Nmzx20JkR1oe3fv3m3Wr1/v9ggRDsgvkW+wthDpIaVaRA9KiWb6RIgw2oyjPTlzEjGyYsUKmdeKzMJg5qpVq9yWEGFBv3ffvn1uS6SBlGoRPTggIXSLEKFBSK1OnTqZXr16uT1CxAPxU4tb0ypEZUJIrRYtWrgtIcKC5QsKqZUuUqpF9DDL1717d7clRDjgZGTJkiVmzpw5bo8Q8dClSxet+ROZxIfUYlBTiNBAfnv06PH/ebUXFYuUahE9mBcuWLDAbQkRFgqpJWJl0aJF1kOtEFnDh9RiUFOI0PAhtfbu3ev2iDSQUi2ih5AtO3bscFtChAMhtY4++mgzaNAgt0eIeCDUoUJqiayCkyc5iRShQr9XA/LpIqVaRE+zZs3MCSec4LaECAdCauEhGYdOQsTGmDFjFFJLZBLMZ/HFMnLkSLdHiHBAfk888UQtr0kZKdUievB+qLAYIkQw4WL5gkxkRYxs3LhRIbVEJqHtxXT2zTffdHuECAfklwF5WQKli5RqET2E1NK6KBEijDbjHRkvtELExvLlyxVSS2QWlicQ61eIEFm8eLF599133ZZIgyqrVDOKw3oZ/ou4qVmzpsJiiCAhpFa3bt1M37593R4h4oGlOfJOK7IKA5pNmzZ1W0KEBSELP/axj7ktkQZVTqlGiWbx/quvvmqD+rNmUcRN/fr1rbMnIUIDJyN4SJ49e7bbI0Q8EPKlYcOGbkuI7ICVUKNGjeygphChgfz27t3bDgyJ9KhSSjVmwNOnTze33367uemmm+w6W81Uxw/1rpBaIlRQrD/44AO3JUQ8MGCEia0QWYO+Ib4s3njjDbdHiHBAfgmpJfPvdKkSSvX+D/abadOmmeuuu87ccccd9vdbb70lhbqKgJn/9u3b3ZYQ4UBIrZ49e5oBAwa4PULEA0oL7bMQWQQnp3ISKUKFfq8G5NMlaqX6w/3VzLxZK8xPf3aVufnmm81rr71mtm3bJpPvKgbr9o477ji3JUQ40FbhfXbNmjVujxDxQLgi1v0JkTUwnyXc2/Dhw90eIcIB+SWULMsfRXpU+ygj07VLtl5rVm6/w+z/cK/bc3hsWVvbzH22qXlrfV3zwfs5U4h8pkyZYtdVEwMWxWvcuHHm6aeftuZokydPtqZpS5cuNU2aNLHC+dRTT9lRy9NOO816LcWjNOvBTjrpJJvGWu2TTz7ZrF271p5bt25dc/rpp5snn3zSjhhNnDjRbNiwwabhPOuss84yjz/+uE3j+lu2bDGvv/66nZ36+Mc/btOYUUch5L7z58+3+T7//PNt2tatW22cz927d1szD8xEL7zwQvPoo4/aNDosjLSShlv9iy66yKZxn2OPPdZ22OfMmWNnCi655BKbtmnTJjN06FCbh1mzZtm0Sy+91Dz88MM2bdCgQdaxDGlc+7LLLrNpdPyZTatXr54dvMDkhPIljWfu16+fady4sZk5c6YNU/H5z3/ePPTQQzatT58+pnnz5nadO+FVuOZjjz1mzfOZpWvbtq155ZVX7HOST+qIMu7evbs58sgjbRom3jzfc889ZxWQrl27mk6dOpmXXnrJlh3byABp7Odc0nbu3GnLk9/IwlFHHWXXobBMgLRPfOITNs94AG3fvr19DtKQkXPOOcfMnTvXykKbNm1s2ZCGHJx55pm2LpEfOo3Dhg2zFhKknXHGGdakDPnhuamnqVOnWjlAtrgXMoLcjR071p7HYNApp5xin3vhwoV2rdfxxx9vXnzxRZuGbFEHmLlTB8jkCy+8YOUA2eI/aayvOfXUU+15mzdv/g/ZwqEFeSONuubelCvPiMOss88+216T+4waNcrWMWnIEeVEGiFykC1kEdlC7ihf0qhryoHGnjXCyNanP/1p8/zzz9u6Hjx4sKlRo4ZNQ7ZIIy8888CBA60HbOSO+yLnnEfaMcccY99D5A7Z+sxnPmPvt3r1auvgi3IkDdlCRkijrllnT91Qv8gWadyP8kfuqFPSKAPuR93SVrDGDrkjDc/Fn/rUp6zsLlu2zHTp0sXKF2nIyHnnnWefBzno2LGjPZdjSTv33HPtu4ksIHfckzTqg7JGBvijLHC0R9kgI7RNXI808ti/f397Hm3FpEmTbB6RPZ6NMiUNGaHeKS/kALmjs8i7g2zQblF35AfHPMgkabQVxLrkP3XNOzx69Gh7TeQHGSRP1DXxMMePH2/TkBFki3eI56ctnDBhgk3jPsgWZU4a7QnyShoygmzxzKQhk+Sb8iQ8yIgRI6xsIQeAvJLGc3nZIo1jaF9J450fMmSIvZZv02hfkQnkIF+2qBfSkAPKlk4JacgWafymjJEtyoNtZIt3gDwjB7QhlDHX4Tk/+clP2uOot169etnOOmnIFmmchxzQLrVr186mIVvID3WCF1faMOSE63j5oS1ADjp37mzljjQvP7QvyEGHDh2s3JHm2ybaLOQAOUbuuD/yQ3ny3nBP8sFzkOblh/pBDpA72kLSvPwgD2zzbHwLkAn20TZxPvdHjpFJ0mhjkDXKiXLhN3XI9ZEfZIkyoA4pZ+qefJEHvtWUOTLDu49MkkY7wm/qGPml7pA12jfkB7mmvXr55ZdtnSO/pCEjtFvANZEV5J4yojz4JrKPNGSM5yUN+eF5aFe5H9emnCh3ZATZQvZ5BvLE+0l9ISPIFu8MacgdZU89Uxb530veeeqTP76X9Fe8bFGf7OfcfNkiDbninqxf51vqZYv3g3shQ8gH3zfqD9kiDRmhbGjTkCHSkC3ywnNT3sgcskd90g7wfJQz217u+I1s8W2jXpED5I78UNfIBuWJHJE38ojccX3aHeTH+8EhbjRlQxqyRZvCs1CftHeUKfXi5QcZIQ0Zoy6oF+SHtok2ZsaMGVbuaB9IQ37oUzG7Rxp1TRrlIURI0BY9+OCDto2T34r0iFaphrc21jIb5vQ3Kxa9e6Bx3Ws7WklQ+migaUBRIvnA0UBzHEoLHzoa3kJp7CcdZQOB9Wn85uPp0ziWjiVpXAMlgzQaaz6ayTTywQeUNBQBPm6k0THgBeEDAXwEOI/jfRrnUZXJNJQr9vk0PsRc06cB1/RpnEf+6ASQh0JpdER4rkNJoxxJI7985MgLaXRI6LD4tOR5xaXRGWdwgo4FaTw7HQnKP5lGh+mZZ54xn/vc52wa+0n351HW/PZp3JPr5Keh1PAcbFMv1B9liyyQRrlxnk+jnvkj/5S3T0vKj0/jmtRLMs3LHeeRhmzx3NyTNOren5eUHy+T/rzi0rgGeSKNOuf+yTTKgLL38koaeciXLcqpNGn5slVcGvXJe0VavmyVlMY1qbNC8kMaZVxSGnVK+ZLGNflNWiG5y0/jmpQrz8dv0rzc+bSkjHAv7pmfRn7o9PIsfrAiKSP5MpkvW5Qp16Q+k21ToTTKkjorTrZKkju2fVpStnwa9+M++bJFvjnPp1GPbPs0jiPv+e0W5VSatEJyx/VJy5cfziPPlGNxafnyU1xaUg6KS0M+qNNkGtekznwa2/nyU5xs5afly09S7kijTLhHSWmUDWnUNfLDf7YLyVZ+Gtegru+8806r9KLAI1vUoU9DXrgv5+WnJeWH+mHbp3k5oH59Gs9K3kubhqyQb65Jmpef4tLICzJCOXFNyjhffvLTeC6uWZa0QnJHGn/FpSEDyXaLNK7Hc/g0zvPyU5q0fNlK1nW+/BRK4xr5MpKflpQDno2ySabxLDyTT+NZvfwUlZZsYyhn6jA/jbaXgQUGK5gEECIkkP2rrrrKTlLJGig9olaqoXerK83eTX3Niy9MtyORjHjyIQSUaka8aXBFvDD6zMw+M+5ChATNM20WHUh9GEVs4DSUGWhmO4XIErS9WBsws44VihAhgVL95z//2Vo0MfAv0qFKOCrDJAoFmplKTIIwPWI0VFQNGLHGIkGI0ECZxnQTs0ghYoMlGMx8CpE1sD5ANlkeIURoIL8sh8DqQ6RHlQmphQkWihXr11g7yTodTI5E/GAm7NejCxEaKNb8CREbmNayTleIrMFMNbKpkFoiRJBffA+wrEGkR5WKUw2snUG5xpELI5CspxFxg7k/jlKECA3aJ5xXydJCxAjOrfxyLCGyBmvHWX4jRIjgBFAD8ulS5ZRqD84omKnGRELEDetJcIYjRGiwLgqvuHjMFiI2cDCDB1gAAGlUSURBVL6HR3AhsgZ9Q/xY4PldiNBAfvFyj64j0qPKKtWi6oBHT0bshAgNb4Io+RUxwkw1s4FCZA3aXqwoNFMtQgT5ZUBeM9XpIqVaRA9rqvH8LkSIYAJelggFfEwJP4PcJ/9Ku7aKj7BMckUasF6VEIlCZBEGNIkpLkSIEI5Ta6rTRUq1iB48vcvDrAgRlOk+ffqYYcOGuT0lg5LyxS9+0canvPzyy+0fcVaJWbllyxZ3VGGIB/viiy+ae++9VyPcosJhCZYicYisQhxuObQVoUK/V36j0qX6fx/A/a5Utu2ZaXbsXWA++qh8O3It648wjev0NtWqSbCqMnwc27Vr57aECAMU2zlz5piVK1eabt26ub3FgzktXj9/+MMfmgsvvNCcddZZ5rTTTjNLliwxq1atMsccc4w9DgWbay9dutTs3bvXNGvWzJrjPv300zbtqKOOsrPea9assWHpUPBR2IndyjotZnEwL+O6q1evtu8Y/1n/vWDBAms22aRJEylNokiQr9atW5s6deq4PUJkA+9vh5BErVq1sr+FCAnaV/q9+ganh2aqRfRg+konX4gQQbE+3FnjWrVqWQ/iKMiYdm/evNk8+eSTNtQcSvGjjz5q42FjNo5SjHKN0owS/uCDD5q3337bXoe0v//979abPksq7rnnHjN37lyr9GPK+5e//MW89NJL9loch9LOh12IQhBSy8uWEFmCdkshtUSoIL8KqZU+UqpF9KBEMKMmRGhgutW1a1drAn448A6g6LZv397OwKBMc+2LL77YXHHFFWbMmDFWyWa2+qSTTjKDBg2ySnhJpmMo+2eeeaadEa9Xr55V3idMmGDNz8kza7qkVIuiYHBGjspEVkEhYYBRiBCRo7L0kVItogcT1FGjRrktIcKBkFqYUZd1UIiZ6O9+97tmypQp9o911SjWp59+ulVymV2+//77zde+9jXzhS98wfzpT3+ySndZHZSx3hDzSEBZx0yc9w1lnPVcKExSqkVREK6oefPmbkuI7EB7Rri3wYMHuz1ChAPyy2A5g90iPaRUi+hhpA4zLiFCA4WUmZKSHIzlg6Ly9a9/3fzkJz8xkydPtjPII0aMOLg2kO1zzz3XpvP3i1/8wvzqV7+SUx6RKqzRJ+ShEFmDthfZlHd6ESLILwPyOB8V6SGlWkQPa6oxQxUiRBhx5q8sMFOMYt2yZUtrjj169GjzwAMP2I/sEUccYZVrBpuYVeYYjm3UqNH/dx+/7WebmTnXzLMoL1jPrzXVIqswGI8jRyFCBF9CWlOdLlKqRfTgtRizVCFCA9nt37+/GTlypNtTdrjGiSeeaBXka665xppkc02ci02bNs3+f+yxx8y1115rzb85noEoZshZY40iPmvWLLN8+XLrhKyss+ZCFAVe5JE3IbIIXpORUSFCBMuzkvyiiPJFIbVElYCQLW3btnVbQoQBs8mzZ8+2YaxKG1ILc69t27aZo48++mCoIv53797dKsWEMOrZs6ftMD7xxBNmxowZNhzWBRdcYOrWrWtnsvHazQg3zsZYG02YrVdeecWuge3cubPp2LGjnbVGUceRGtciLBcKO9fGvJwZSPZz37LOtIuqAXKhkFoii/g2izZRIbVEiPAtV0itdKn2UUZs+ZZsvdas3H6H2f/hXrenfOjd6krTscm55ohqEqqqyoYNG6xnYzwdCxESrOmbPn26Xdc3adIkt1eIOLjrrrvM8OHDTadOndweIbIBXWOseBhgPOecc9xeIcKAQe+//vWv5qyzzjJNmzZ1e0VFI/NvET3MnslkVYQIplvMDDPrLERsYFGhkFoiq2CtQ9g3IUKEKCAKqZUuUqpF9GC+euyxx7otIcKB2RJmqVnXLERsEK6IdftCZBEcOA4YMMBtCREOLF/AF4tCaqWLlGoRPawx3bVrl9sSIhww4WKmZNOmTW6PEPGwe/duzaSIzELfYc+ePW5LiHBgQB6Ho/QhRHpIqRbRg0JNaAEhQoSPY0ZcXwhRrixevFghtURmwULojTfecFtChMX8+fOtA1GRHlKqRfTgAVEmMCJECDeEiezYsWPdHiHiAa/fCvkisgrtrzzTi1Ch30v/V6SHSltET5MmTcyIESPclhDhgGns3LlzrQdwIWKDEG2sWxUia7AmtUWLFmbgwIFujxDhgPyOGjVKE0opI6VaRA/rSjCDESJEUKy17lTEyKJFi2T+LTIJS27+9a9/yfxbBAnyO2/ePOvBXqSHlGoRPYRsIbSAEKGB6VbHjh1Njx493B4h4mHr1q3q9InMwnpUwr4JESI4OH3//ffdlkgDKdUiegiphZmhECGC91l5rxcxQriipk2bui0hsgXh3o455hi3JUQ4YP49fPhwU7duXbdHpIGUahE9hBRgtlqI0EB2mc3buHGj2yNEPNAuE7ZIiCyivoMIFcy/sQJS5JB0kVItooc11QqpJUKFj6I+jCJGFFJLZBmtqRYhgy8hLa9JFynVInpYl1qzZk23JUQ4ENJlyJAh5rjjjnN7hIgH2mWFfBFZRX0HETLILmbgIj30NRPRQ0itMWPGuC0hwgGv33PmzDHTpk1ze4SIh2OPPdaGLRIia6CMtGzZUv5YRJAgvwzGK6RWukipFtGDkyeZf4tQQbGWB08RIwqpJbIKS24w/16yZInbI0Q4IL9z586V+XfKSKkW0UOj8uabb7otIcIB88OjjjrKdOvWze0RIh62bNmiTp/ILITUwlGkECFCv1cD8ukipVpET6NGjczgwYPdlhBh8d5770nxEFFCuCKW5wiRRQip1bdvX7clRDhg/s3SBYXUShcp1SJ6MIPBhFaI0CCky+bNm8369evdHiHigXBa8mwvsgrtr/oOIkRoV5mlVvuaLlKqRfQopJYIGT6K+jCKGNGaapFlFFJLhIxCaqWPlGoRPZjBKGyLCBFCag0bNswcf/zxbo8Q8aB2WWQZ+g7Vq1d3W0KEhdrX9FGJi+hp2rSpGT9+vNsSIhwwPZw1a5Z58cUX3R4h4mH06NGmVatWbkuI7IBC3bp1axv2TYjQQH4nTJhg6tev7/aINKj+3wdwvyuVbXtmmh17F5iPPirf9Sst648wjev0PiBgGm2sqrz11lvm5Zdftk5xxOGB0yzM4VjniwM4ZlJLAg+qq1atMnXq1LEjp0uXLrVrKcursce8f+PGjaZ27dp2e/bs2aZBgwamVq1adrss7N692+aV8/m9evVq6+ijRo0a7ojyh3V7mzZtsp6QyfOyZcvs/Sgv0tasWWPzUrNmTRuzmvQVK1aYlStX2mfH0VNJ9cD5HE+dlXXmhfXcr732mr0veeFj3bBhQ/ufd4uyZ+Aqq1CG1CllgMyRb78f76jkn/3JMsTcnjrZsGGDjfNZkfWfz549e6wMYxpNPfO3bt06mz/kkvzv3LnTTJ061SxfvvzgMcgPz8F74J+xosCkEFngPeb9KM39GCAin/z37/4LL7xgnUE1btzYbpcWrjFv3jy7rMc/P3+sISyrjPu65t2ivgnByHtFvfOM+/bts7/LWqZcl+tRl7R5Po/UE+8P9UQ6bSllcDiQZ2SENqMiZNW3+5Qr9ygNhcoVuS1LW4GcYcJKedH+pQn5p314/fXXTa9evdxeIcIA+X3iiSdM165dS/3OisNHM9Uievgw03EWhweNNOX4wAMPmDvvvNN24thXEqxLo3FHAaNz9vDDD9vOcGnOLQ10fJ5//nmzY8cO28lHCaQjfCjQ4X3kkUdsB5BrbNu2rcJDUqAgEE/y6aeftvf/+9//bpVAYBCiffv2NqzW9OnTzXPPPWc76ChT/Gcb5aqk5/XPhWJZFhhUeOaZZ2ysVu5JB/Ohhx6yHV3KGkX7qaeeckdnE+qPcpo5c+Z/1CVKNQrPrbfeap+LevBQ73fddZe55557rFylCe8J7xjKCGXOH+XNO0R98N6gpNx0001W0SGdeuAd4DlRyisalKNnn33WLF68uNTvMe/+448//h/+LVC6DmXNH+fcfffd1orDlxF1SNuycOFCK5ulhXdnxowZZtq0aVaJpu63b99u2wDKlLJHVsoKeXj11Vft+5OsJ+7Fu067iPLO/Q6nLeRcFHN/zYqAd4M2pCyyRbkymO3LldBUZX2XOP7mm2+utLBWDAjz3EKECP21iu6/iP9EM9UienwHq0uXLva/ODQoRzqsKGZ0Mpm96dChg1X82IdyR+eLWRecD6EY8JuONJ19OtXt2rWznV9+o+TR4aKD3rFjRzsLQkfsn//8p1Us6Xwywtq2bVvb+UYpYnbqvvvuswomZqPcm+vT+eXczp072047/5lBQzFBOaLDSR6J98xzcMxtt91mO7zMwmLmxywx+1555RU7K8WMCp25Nm3a2HzQ+b3lllvMY489ZjtaPAuzTXS6uQb545nJK2n5o8Pkj3yjDKCQkDdGkbkvSjRlhozyjD169LD3pcNMB5/OLOl9+vQxZ511lhk+fLgNE8fMJYoFM38tWrSw977mmmtsedOh5YNK2oMPPmjvTSe+d+/etvP9t7/9zSrIzBZSJkceeeR/rMHi3CeffNLuO//8860ZZL9+/eyHGoWe8kWJQTHlGJ6Fzj2KKPspI+qVGSaUQOqaOuX5qFPq/Q9/+IPNK8pZp06d/r/wHzw/96JjTR1SxszMI1dcn7pH4b/33nut0kKZ+VlQ7kd9MePLwAt1TP37GWlkmHMYhEH2kBnqgrJACaJcuBcWLpQzg0hXX321LUc6+5QXs4LkCSsABhd4bhQI3gtkgzpDph599FF7PvJEHbRs2dK+A8jyP/7xD1uHyDP3o1wo40984hN2Lf2QIUNsnfEMXJv7ovBxzFe/+lVbLxzD/VDaqAfezeKgXu+44w77jMyecm+ekTJDcadcyTP55X6UCwoGAxDsp9x4n5BzBnySs7iUDc/Eu8D1KQPyRLki88gpdcF1eA+oP+rNm4Ejw9QnskndH3300f/f7Ctlx3t64YUXWhNHnn/QoEFW/nhPyRfPQN0i++SfskWGuDYy17x5czsDym/qgWviv4B8IhvUEXnjGGQDebv22mttm0E76NuYouAayBHv9Mc//nH7zpJPrsv5tC+0CdQ3ss9AgW/7GGQjnTwny5a2gHK9//77rcwgZ8gu5U37yz155ygv2ik/8MA7QfmuXbvWvg+UO+0v9cI5/Oa+tGO8m/mWA5QNdcF7R1mSB65F21oorzwXdU9Z85vn5j6ULfVPG8B7w/tCXqkLrumfnXLlOGQMmeS6PCPtNnnzM/u0JwwucS+uSRrXokzJG+XJwAbP7mfIkW/aBd4BXz+8O4Ugv5Qv5SxEaNBv8N81kQ6aqRZClAo/ao9ignKHIkiHCfhPZ41OLXAsnV4adRQCOm8oZHTcASXkhBNOMCNGjLBKGYopHTc6iyjmp5xyihk5cqRVYFAUUALpVNFZOumkk2xHn9lyzunevbvp2bOnvT7KnVd6uAfXZj/n0JElDQWOztbAgQPNySefbDtOdLxR4NjHR4jYpHRy/SACSsyf//xn25njWnRu6ZSxn477jTfeaDujY8eOtffl2ZMjxPymA0gHl2fmGpQlncjiRpLpiKJkoJDlw7PSGUchQcEiH3/6059s3k899VT7HCgAKLTs41iUBuqK+6Lsnn766VaBpzz87HgSOrPc289Q0fk88cQTzaRJk+wMOgoP8jBgwABbR3SMqWPKFeWGcuUZUM6YaUWh4PkpN+oPRYO6pjPsLQSS0AG+/fbbbR1yHHnmOOSA+/EbGZg4caKtEzrgbPOfZ0fG6BCjjBY1y0b5UQcof4D8UeaUF6bEwPm//e1vbdzP4447zpY3SiFyTh5RNikH0ngHkDOehYELrkd9oOhS7pSnn2nlOU477TQrvyh2yE4hOJf3iPsVmo1EdqlX6twPKhQFigwKDTI4btw4e0+UTa7Nu4bCQb1STyjPKMI8y1/+8hcrD5xHHaOM50MZowyTF+oLRZcy4J3zUNb4CGBGnveNddWUBUoackKdUs+cj7wxkFFU3SXhHBQx4P4o1VwTpZs65hl5Vt5R6ol7olRRb5j3Urf8RnlkfxLkASWN56EuUdx4TgZIygLlR9nxRzkgC7SbgMxwH94dFD0GCikPD/XDMZQFdcB7e8MNN9jrIBu0g7TLlAN54xmQLd59PxDAO0I7SjnxHByLQurri3pnsCX/PUReUVp5p3m/uB7vBO8dssnABLLsYeCKNp98Ua7kDdkiT5xP+0h7Q93TjjAQx3PQHvEukM71gbxwHvfiXWbwCtmjLJAj9vNHO86zUYa0QygSPD+DYrRvvJdck7xTTqTR7iCfPF9R+IECIYQoCSnVInr4KCdNDkXZodOOckYnm84Ss6TMnBVSxJKg+KEAM1PAjJafEWB2DQWPPzpKdC65NnU1atQo23n1M6N0sOj0cR2OpyNOx5jOJR1NZr1QaLm+n9HieDqRdBq5HjMll19+ub0uHbwvf/nLVqFgv1fyyCuzPCh+yWvBSy+9ZP/T8eQcFEs6duSbsqHjSt5QEjkXpZ7Oo4dOJmmf+9znDuaHQQM6gJxfHCil/BWCjiMzaSj+zBQxc0mnnOfkfnT+UerouPJcdNZRFD/96U+bc845xyrDlCWz6vkdS56f5+Q5mBHk2S+55BKr1DETSIeU61L+lBuzen7Qg+fjeGadUGyAfFJ3KKvMiNGBp1ONLKHkUP50vJNw/SuvvNLO2HIcMkHnm2cCZp8oTzru/fv3tx1n6pJOPvXB8ZxLelGzUeynbHxdcD7XIZ90qLkfAyiUKQoa5YrMIP+8E4CC4+sVxYxrIRsoXSgKPDfnIBuArHMPytfLM/LNwEtSbjzkg/KmjChj8olCMXnyZFvOKEg/+tGPDuanOChr5J+8UkYoGFzPlynb5JXnpJ7JJ3WIQooiQjkwWMFx+SBHWFJ88pOftPU1ZswY+24inx7uhXLHbCTPStl985vftG0EyjfvtK/vM844w9YHclQSKHy0FQwq8N5zbcqWd5M6RKFCDnhm3j3+qFfkkufk3UCW85UolDXqhXYDeeX5yR/vR77yXRKUMcopsuFn5oE6ZdCJNonnRknEOoT310M+GPghv7y3HEM9+vyTd94XypbBOy93yCVtLO+cbyfYz/vCu0y54MiT+yLf5AuFtThoz/x7xx91lBxgYHaX6/hyZVAjWa68c7wnlCXtOPKFHPv2iPcRWaAdR06Y6ec+1Bl1y8AHyjJtOvvJO/JMvjiHAUsGDrgedXXppZfacmKAiLwg35QBZUjbmt/ueGjHy1rHQmQB2lnamuIGjET5I6VaRA+NC3/i0KHjwUwoHRI6enRQ6Phgyn0ooAzSyeKPDhjXp1NMxxJlj04Pnauf/vSnBzvkdGK9oss5nFtUvdKhpqNKXumEcSydbTpz/jrMXqCM0KGn81QcdLp4dq7BtVBwKAMPz0OHzj9Pfr7YzzHsv/76623n9Sc/+YlLLRquiWKI8lUIrssf10XhYtaIgQ6UEcyHMX3Mh+NQflDspkyZYpUglJZCZYnS+oMf/MDObv7+97+3s4uXXXaZNcem85oEJZOOtDeJ9XLilTXKhT8UHJS/X/ziF1bpoq7PPPNMW/coDkl4fuoMc1WeCSUiqThyPV+/vtzpRDB7jCLhyx3FrihTXY5hhpfy4P48B/LhTUyRJRQPlAPuwfGUC4MTPr/cw6f5fCDPzEiixABlTj6ATj/bPo1noOyom6Lg2sC1+aPsmJFjxhxT35/97Gd2Br2kgRruSx6xvEDB/t3vfndwlh78s5AX/yxck/KgPsmHf//zIY3rU0cM8KC0MOOaHBTiWVGmmDFklpRZSuqGY1DyON/PtnMflMVCAw0ocSjvyA9/WE+QdxRf305wL+D5uD7P4J+NukC+iisrQH4p11//+tdW6fX3otzz5bUQLMfw51FnWF6g8PJcHu9vgvxRhuSfMiCvHsoIxR7rD56Rui80UMTsNud6+aUMqCuelTLwz89zI4e827QBPn9//etfD76zRUEeKWv+c10oqRyTcH/O43zeN2SBwUDygIL/xz/+8eDgEW0tdcWxPC9tHGl+m3KgPGjH/XvFt4P2iuthHs4+2h2U91/+8pdW0SaNezIAV1w9JmVXiJAoyzspygcp1SJ66NwXpZSI0kFnl84XiujFF19sZywxw2M7aaJ4ONDZ851FZob4w2QTxY8OXFmgw8UfnaX8DwvmlsxwMCCAuTRmvX69XVHQyaWj6a9FR6vQtYuCc+m8XXHFFTZfmAH/+Mc/dqlFw3nMMHFuIVBs6WDS0aQe6Fh+//vftwoA90Ahz4dBiv/93/+165mZgcbkHiWHfCXh3iiGzBwCFgp06H/zm9/YmSkGWZLQSU52xn0Z5cN9qOtvfetbdh2or+vbbrvNzjgloRNMXfH8KH+saWVGtzi4vq8vD/kornNM/VOWzI4x447y4hUzrlfo2UrqbPOMyeOQFX8N0thOXqMkeUIxJB1Fs5DyTZ5RMlAsiroO+3lnP/WpT9nnxUT6G9/4xkHlvih4/mT+inp+5AK5Qr6Y1UbZZ1Y7P7/MTmNO/rWvfc3OOp577rl24MQre/4+/C8kQ8CABSbZXn74+8pXvmLLJx9///zyLvQM+Xh5xWIC6wB/L5YvMOtdEl/60pfswII/79Zbb7Vm0Um4PhSXH56BWVmUct5vZtkvuOACOxiUhGsln82XYaFrI+MooMiEzx9/DDamBbLFrDeKtb8/z3beeedZeSbfyWfhj7Kg7eBbRPuIHNOOM/AJzFrzTCjUXItvCLP3DExQj7Qn/l4M6jBrnw/1zvX4JgkRGsivX6oj0kNKtYgeZjRYsysOHWY/mTFgDR+dEP74zewaZUsnhz8UNjpAzPyW1eyImRuUDpQ1Ok5ch9/MerFdFpidYTAFpdCvx/QmrCifzFKg1DGbw6xmoZmwJJi6kg/O9fni+fxsTUlwfeTw7LPPtjO9dCTzO8NFwQwLf/mQD8xImUWk7DDTZTaVTjv/mQHCFDQflDPq6oc//KFVujkuabrpYR/1zMCGr0vfqS30zCi7lDdlxDGUK/nOnyGmI4+Cjvk8ShggN8ltD3mj7DFtpoNLHXolvyjoiLNsgMETlAkGhCjr4tblkifM0RkookyZufYgS6y5xXSUeyOjyAJ5ZQasKDA/pQz94AP5oEwAs1iu5dO4FrPhXI+6yYe8o/CTT7/OOx+uwbMj90XJJPXBdb7zne/YWX+2KeNC8pWEmUJkgBlb6hbF3T9LEv/+Y93AbCCykG8FknyvSUcBx4yd2VreR57VyxD344+253DgupQd9+VZfTkwGOUV2qLgXUUeaAMZwALyiLwWem8OBfLHwA7yzXNT1pgdJ6/v20bKg/br//7v/6wJNXWRhDYZufdLc8grMk1bxbN4kBFklOfnutQL92CwMWm5UNHwLpBH70+AuuFd8INDyA+WQvymPSNvlBV5vuiii6w1E3VL2VFuPDvvOzLE+mz8XVBeyCbPS3vpy5V3kHaC++fD/XhnZf4tsgjyWRykY/5d0vdSlC9SqkX08KGlAycODRRCZmiYXUrOAjG7hRkzMwF0xlCqMDdmxhEHYXRuAKWEDhvOo+joFAWdK6/Y4CyHmSAUOpTF4j4gKG0oFOTRd5a4J2spUVBwRMP1+E/nkg4sHSuuz8yr74DR6UIpoYNFXulQeZjJYD0sSiYzRcx0sI88lwY6syhDzIJyX2b96RQmlf5CkH8UGtYsU8Z49GZ2zpcPszUo0Ch9dKaRdfZzDHVBB5Q/nsvPTHIdRq+ZycZZE+tQKT+UmiTkl1kaOudck3tyXT7UlC3PjjxQlphuk0f+mPmmjKhHzEn97JGHTjwzfHSecYrFdSlXr7QmoRNMPXB/rosiRGeb/BYFHWzMa1H6GGDAaRO/vTwWBeVI/aDAJZU46g4zacqPDjr5xdEXskqZFwVyxjWxvOAcZJlnRrnBNB3Fn32kIZvIOIMc3A+ZRzZJ8+koF5Sbn1VG8aD+/DE8J2VNnopSqil7FA1mhakjZvNQqinj4gaWGLTBLJc8URfMKubLCyBnlB3Oxrg+7yQyyT08PCcyhSwhv9Qr7wGzlZQp64L9+XiPRtYON04wAw2swWUAkPwjF8gtMzklWcHwDjLzSRtG20ZZU+7MfJZXhxXlnjXFrGXmufmjjpJKNfKLAujTyQt1zaw35U5eON/LK6b1XnZoY5Cd/EEg5IVyoV3w16Ruy2uwoDTQvjEAQxtAfpEL8uAHVih/2gbScERGe8+7w8Cc38+5KOU8JwMf+NNgiQrPhAxRd6yhxk8A76C/F+l8q5DRQnA95ESIrEH7y/equHfVDyKK9FBILRE9KBF8VPkIi7JDZ46GGRPh/FkyPwOE8kDniN+UNbOLdPZQHljfR6cR6MSxvg8FlWvR+aeThILGtehQs48OPooxnSc61fxmdoLj6EDS0UK54PoodnSM2cd16WhS1yhk3MMrrXTYmbHgPO6JksQ9MX8kX5zLteh48hwMEvBM3JP8c02uRUePTj4dba5D3jiGa6C0cD7ncW0/C8Z/8s9/yhIlhSUJKCA4xOK+7OOP83gurs29UIqpA/bxjFyDjjP35ZlQxPjNNXheFE7Kg/qiw0w5UCY8A9fBTJhn9TObHEddkX/y6KEeOI/z6ahyb67L4ArncE+uSV7Ik78u7xt/Pm+k88d1KFN+82w8D9flXJ6ZuuGYJDwPz4XCQL3hqIjzkBMGBlCW2Ka+yA/5pQw5ljTKjrqgrsgfz8dzeHh+jkcmfb0hc9QL1yM//nqcj/LHOcg3puqUB9vUP/emzNimLPmjbnkfKA/uwXNzTWY+GYAA/2wordyL8uDe5NOXHfmhLDmHe7CPe/Pc/hjyjuLEsRxTCK5JHXglgnMYOKE8yT9lTTp55Rrkl2N8OfNeIkO87zw/x1IP/n6+zLg+90L+KHvql2ejLUBGeH7SKSuenTx483XKjTLjPeFYlE2eNQn3I6+k56cB6VyXmVw/+891+U15k0/eP/9OIcek8ywcw37Kg/xSt+SdfbwzHM+1kUXKqTh4Hq6DHHNePuSd8uU6lBv1Sf7IB9f37SFQx15+kSfyTNlwHtch38gO+aWtou7ocHNv/95wDY7nGC873Jv/lDfXwVyfek3CPbkO5U2ZIGPUIc/n88VzJOvCyw9lx/Pwm/O5ny9XXy7kjePJA8+FgzHkgTxSL/xmUInfDL5QplzHywmywEAC7wfH8PzIIO0n1+Pd8XnnXC//nIccUJ+FoJzJn39XhcgKDBQzkIplCXKOXPP+J+H9510o1EaKiqHagcoom11lBTFn9R/Mkg2MKHrnNwWylegn2J/5/YYD29Xyzuve/FLTvtFpBxrsnFMMT/K3p7j0ko6Hspx/uNeDktKhqGPKcr1Cx0JR+7MGI3qMaNNZECIk6DDieRzlkzWqIhyYUceZFYoPCgAzaczK4nCNjo4wdjaVmXM6hEJkCbrGzFLz3jIoIUSWwGoFp4Le+o6BHwZmsaBjoAv5xYoQ2WUwSaRDZpTq2+79lZk7/8UDSrU30cspbAczl5dLu5ncd+D3R/YUp+i5tPo1jzK1P8YH+98KYPKRCz1+/r6yHlPS8fm/UU7zzynqeE9R6fz2ym5xxxTC7y/LsZCvXPvtopTu5P6iji10DOQfB4XSk/uYXWHEjtkWKOp6yd+e/H1+u7jzikuDQumlvUb+cVCaY0vz21Ncut8uzTGe4rbL+ttzONdI/k7i9xd3bKG0/GM8RV2nLL+ZFWStILPq+Saw/pjSXA8KHZ+k0LlFXQOK+u0pzbHFXaO47aLSSnOMp7jtQr9LOh+S+5jlwkEV5vW0l8yYYZbOLC+dHih0nyRFpRd3nt/O3w+lObY0x3hKc2xRxwCmuTjfSs4EFnWu/13c9Yr67SnNsaX5DcySYgKOeXWhZS2YGuMQLjkLWtz1oLj0QmnFHeMpy7Hi3/DOYl7LoCaOOYXIEl6pZhkQYFGBRQjWOQzAY92Bc0/8DmCdItIhM0r1kq3XmpXb7zD7PyzfRfW9W11pOjY51xxR7d8xZ0X548UoX5yS2yUdU+hYONzfKCWsBfziF7/o9v77mNJew1PS7+Q+KMsxhY71FHdMUcdCSccUOtZT0jEl/U7ug0L70/p9qOdBod/JfVCWYwodC0X9RjkDPppJCh2f3AeF9pfld3IflOWYQsdCSb+T+6AsxxQ6Fkr6ndwHhfaX9ZhD/V1UOpR0zKH+LiodSjrmUH/zH2UUE1zME4s6xlMev5P7oND+8v6d3AeF9pflmKKOhZKOKXSsp5DyXZbfyX1QaH9ZjznU38l9UGh/aY7BUghzfMzUizq30HlQaH9Zjynpd3IfFNpf1mNK+p3cB4X2l/WYkn4n90Gh/WX5ndwHZTmm0LFQ0u/kPii0vyzHYIGJf5Ok7xcPyybwIcAs9ve+9z1rKSXSQUq1iB5mqVl/wtpcIUKCTh0OxzD/JqaqEDGB4znW4qK0iMqjKGW7UPewNMfmn+e3izsGikrPP9ZvF3eMp9CxUNS5yeNpd/GjkIwGUNJ5UJrfnvx9fru48wql5R/jKZSef2yhtPxjPEVdp6y/PYd7Db+dv99T6NxC+zzFpUGh9NJeI/84KM2xhX6jTOOYMOkEElCo8XmA3xP8COCDAH8LIh2kVIvoodHBW/P555/v9ggRBijVfDjp3E2aNMntFSIO7rvvPuvwDEdVQmQJusaY1uIxXm2vyBo4KCMOuzf/ZkkRA5Q4CB03bpxtU4l0gOyiZIt0UEgtET2Yb2EGI0RoYPKN91xGnIWIDWIu0z4LkUUIs5g/EyhElkCZxpICh5iXXXaZufjii63fDvoO9HuLC5Uoyh8p1SJ6cN5ACBwhQgRzLkIACREbeP5mTbUQWYQZPhw+CZFFmI0+++yzrSKNU0TaU+97hbXXLHkk7J1IDynVInpoZNSwiBDBw/CGDRtsWBchYgMHZfmxVYXICsimYvyKLIL1Ggo1ESWSynQS+r2F9ouKQ6UtogdHZQsWLHBbQoQFijV/QsQGjsrefvtttyVEttixY4d544033JYQ2QELTNZQFzXog08A/AG8++67bo9IAynVInpQSIjzK0RosF7q2GOPNRMmTHB7hIgH1vtpwEhkFWRTa1JFqNDvVfuaLlKqRfQQ+P7UU091W0KEAzGqX3vtNfP888+7PULEA4NFbdq0cVtCZAfWpLZr184cd9xxbo8Q4YD84vlbPivSRUq1iJ5du3bJ/FsEC2G1+BMiNhYtWiTzb5FJMJ8lFrDMv0WIIL/z5s2T+XfKSKkW0UPIlrVr17otIcIBJyMtW7a0MyZCxAZO+Pbs2eO2hMgWhNQi7JsQIUIMay1fSBcp1SJ66tevb3r16uW2hAiLOnXqmHr16rktIeKhW7duMk8UmaVRo0ama9eubkuIcMD8u3fv3op8kzJSqkX04OwJxVqI0MDJyLp168zy5cvdHiHigXaZ9lmILIJs1q1b120JERa0rwqplS4qbRE9CqklQgbFWh48RYywppp1q0JkEa2pFqGiNdWVg5RqET379+9XwyKChJmSYcOGmeOPP97tESIeFPJFZBn6DgrHKUKFfq/a13SRUi2iB0dPp59+utsSIhwIqTV79mwzdepUt0eIeDjxxBNN27Zt3ZYQ2cGH1Bo/frzbI0Q4IL+TJ0+Wz4qUkVItooeQWvPnz3dbQoQF4bTkwVPEiMy/RVZRSC0RMsjv3LlzZaWZMlKqRfQQsoXQAkKEBk5GWrRoYdq0aeP2CBEP69evV0gtkVkIqUXYNyFCZPXq1RqQTxkp1SJ6CEfUo0cPtyVEOGDChQdPQrsIERtdunQxDRo0cFtCZAtMZzt16uS2hAiLnj17mlq1arktkQZSqkX01KhRwzRu3NhtCREOOMrBymLp0qVujxDxwGAR7bMQWYMBzZo1a2pNqggS5Jd+b/Xq1d0ekQZSqkX0EFJLa6pFqCiklogV1lS//fbbbkuI7MCa1B07dmhNtQgS5Jd+r9ZUp4uUahE9zPbt3bvXbQkRDoTUGjJkiBk3bpzbI0Q80OGjfRYiiygcpwgZ/FVoQD5dpFSL6CGk1qRJk9yWEOFASC08eM6YMcPtESIeJk6cqJBaIpNgPtu+fXtzwgknuD1ChAPye+aZZ8ofS8pIqRbRQ0itBQsWuC0hwkIhtUSsLF68WObfIpP4kFpLlixxe4QIBx9SS1aa6SKlWkQPJjCrVq1yW0KEA6PNTZs2tdYWQsTG2rVrbdgiIbIIA/KEfRMiROj3akA+XaRUi+ipW7eu6dq1q9sSIhyIU92kSRPTvHlzt0eIeCBcESHjhMgihHvr0KGD2xIiLLp166aQWikjpVpED2ExpJSIEMFRDqPNMkEUMYIVhjp9IotgJYRsMqgpRGggvy1atLDOTkV6SKkW0aM11SJkFFJLxAprqlm3KkTW8GuqFVJLhAjyO2/ePK2pThkp1SJ68KCsdXsiRBhlHjRokBkzZozbI0Q84O9CIbVEVqHvIKVEhAr9Xg3Ip4uUahE9rVq1MmeccYbbEiIc6NRhZfHyyy+7PULEw0knnaSQWiKT+JBaEyZMcHuECAfk96yzzlJIrZSRUi2i55133pH5twgWvHfKg6eIEYXUEllFIbVEyHjz73fffdftEWkgpVpEDyaGK1eudFtChAOjzfL+LWJlzZo1WpojMgv+WNatW+e2hAiLFStWmH379rktkQZVVqlmnQFrZRjNEXFDSC1CtwgRGoTUatasmWndurXbI0Q8HHXUUaZevXpuS4hsQbi3I4880m0JERadO3dWdIWUqXJKNUr0pk2bzOOPP26WLVumRfxVABoVKSUiRHxILcxkhYiNli1bmtq1a7stIbIDVkJ16tSxYYmECA3kt02bNgqplTJVSqlm7dYjjzxirr/+enPvvfearVu3aqa6CqA11SJkUKzlIVnEiNZUi6xC33DHjh1aUy2CRGuqK4cqoVR/8P4H5rHHHjM//elPrTK9aNEiu1ZGCnXVAA/K1LcQocEo84ABA8yoUaPcHiHigfXUtM9CZBFkE58sQoQI/V4NyKdL1Er1h/urmVemLTZf+9rXzS233GLNKGkgpUxXLTAxPP30092WEOHAB5FBwNdee83tESIeTjzxRIXUEpnEh9Q6/vjj3R4hwgH5nTx5smnYsKHbI9Kg2gEFMxMa5pKt15qV2+8w+z8sn0D7W9fXNvOfa2K2rK1n3t9X+BGnTJli1q9fbz1DN23a1IwePdo8//zz1hzttNNOs2Y/y5cvN40bNzbHHXecefbZZ23aySefbL3qsSa7QYMG5oQTTrBphF+gk4C3SM7FQRbHPvPMM9aMiOPefPNNa/JWs2ZNM2nSJPP000+b7du32+tjjk5a9erVzZlnnmnT3nrrLTN27Fh77YULF9oX5eMf/7h56qmnzLZt2+wMFqP9mDfTAT///PPNk08+aa917LHHWs9/pL3//vvm05/+tHniiSds2rBhw+zx8+fPt+F6LrzwQpu2efNmM3jwYOsgae7cuTbtoosusjP9pDFrxhrlOXPm2GtffPHFNo116sccc4x1OjN79mxrcnLJJZfYtesbN240ffr0sfHySMNB3KWXXmoeffRRm3b00UdbZ0yzZs2ygx7cj+fbsGGD6dGjh10PjVLBc5LP5557zpZxt27d7Efv1VdftWk83wsvvGDTcNDQsWNHm0b5chxr99auXWv3d+3a1bzyyivWNPzcc8+1x61evdo6JenVq5eNC7xz505zzjnn2HwxIEPnr2/fvjYNOaCOKD9kgTxSNi+99JKtK+qWukRGUOopU9KQA2SL/W+88YZ9buppxowZNp/IC/dCfvD6TP2ShhwgW8grShZliVyQhhwgW9TB66+/buuA7enTp9u6RrY4hjTKYOLEiTZty5Yt/yFbzIqeeuqpNo269rLFMyIPxPqeNm2avY+XLdJoQoiHSBry7WUL0yPkjvIljboeMmSIlWEvW+edd56ZOnWqreuBAweaGjVq2DSuTRrn8cz9+/e369uQO2QLOec86po64T0kDdn61Kc+ZdOo6969e9v3lzRkCxnhmtR1z5497Xo5ZNLLD89O+Xfv3t3WKWmM9nI/6p22Atlp166dTUN+PvGJT1gZoa1A7jp06GC3vfzwPKSxv0uXLjYN+aHMeDeRBeSOe5JGfVDWyAB/PBPtE8+P/DBAxDmkkcd+/frZ9wP5OeWUU+yzISPIHTJJGvJDTGDKkrrGmzgyyf2QEWSLuiM/yN3w4cNtGjJCp5JjqGvkbuTIkTYNGRk3bpzNL89IHSBP3A8ZGTNmjC0f0mgLx48fb9O4D7JFfZBGe4K8ck1kZMSIEVY2qDNkknyTRt6RLfxgkAa8S6QhB162SEP+eAepI+Rg0KBBVrZIQ7Z4d/lNWeXLFvXCb+SAssVZEdvUA2nkGTnwbRppPAt1zW/aA9o06oxtZIs2m9/IAW0adcM2skUa78rSpUttm8Y6ONIoO65JndBWIDu0Y9zfyw9tDH84YkS+SPPyg4wgBzgD41zSvPyQf9oDrofckYb88P5TXtyT9o62kDQvP9QPcoDc8fyk0bYgP8gK2zwb3wKeiX3ULefzTMgd7zlpyA/lzrUoa8qLOuT6yAiyRPlQv5QzMkm+yAPfauoDeaLTiMyQRjuCfCI/pCF3HIvMIz+0W8gGabSF3INy4JmRLSANuUPuScNDOe8K+0hDxohdTNkiPzwPMkwaskk5USeUMbJFHngG2kLeT9KQES9byChyl+xzULa0W5zHc1JnyAAy4mWL85C7ZHvg2zQvW6RxPe6ZL1u8H+SDZ/RtGmm0W8gPaZQbsoUMUWfIFtfkuSlvvqX8kYZsIT+UM9u0aVyX3/7bRrvAPbgXcsc1vPzwn2dC7ngO0mh3kB/uS/m2atXKlg1pyBZtCs8yc+ZM+9yUKc/DfWibKB++7cgdMkk5ID+0TbQD9AEoS+qQNOSHtokZatp76pNzqUMvP3zvSEPukBnqBflBPvlO8k2mXjmW+kJ+hg4dauWHPgAyj4xSL8g9bROySBr9QvJG2fNH+833nPtxbZ4JueJcZIv78AzAd57rIQt8E3lneHbknTKkzsgr30SemTKjDCh78s/zI1s8L2nIHX0F2lZknTrh3UYmadNIo7yQEeoS2SINuSONd5h3Of97SRr1g1zwvUROaDdo00ijXpGRfNnivUIeuAfyyLlcH9niGfiPjNCmcU/yhUzxHnNfygLZov0ljWshP8gI5Uv+eUae1X/bKB/qBbmjbCgj8k6bgmzQX0DuKG/eP2QL+aGNoA9C/w65o9wpK9op+vek8Z2lfqkvyhj5of5ffPFF++4jk8iAlx9khDTkjvYIOaBO+Y18koY8cCz7Sacd/Na3vmXrW6RDtEo1/GtrTfP2spFm1eKPzNYt22wjkQSlGqGm0UHQEUxeMLbpIPJCIZSk0bDRkJCG4PKBJJ2Gju2ypvHS8XLQAJHG9flPGpSUxjVp+MkzVchHmf+8jJxXUhoNO5Q1jReb56IsS5NGPnlmOh2UI9ekMaJB4bxCafnn8THimvlpNEB0lH0aHxHqLz+NRokBgy984Qs2jf1cl2Pzz8tPo6zJF3Lg07gm9ZFMI4+UW1J+2E+dFZdWSO6KSkN+KGfuSTkjF+SFfV5GSpPGdbhmMs3LFvf3adybMigqjTrmmvlp+fJD+Xp5LZTGeZR9cWn5slUojfPyZaSQbHEeZVxItopK4378Jq2Q3OWncT/KFRmh/PhjP+mlSfNyQH746PLbt1VJGSGPPD/3Jy3ZxhSXRplQ3tyPeknKVn5aUn68THLN/LSyyKSXraLS8mWLNPJeXBp5pl1lm2Mo3+LSuAblmC9bhdLYJr/JtHzZOpw0Lwf5slUojfMo19KmFSVbZU1LyoiXLX6zjzSOId/FpeXL1m233WY7r3Ss89OQCcogeR75SsoBadQP24ebxvWB+wP55ne+/Pg0zqOsikvLly3Ktyxp3J8ySKbly0+yzkpKS7ZpyAhpHFtIfopK45qUSaE0nt3LSCH58XJQXBp5JK/kOV8ODjWNMqFMi0orJFu0vSivKHgM1Po0IK2QbBWV5mWkpDT+kzfKnj/SOJ40SKbxPOQ9mcb1uG5xaV4OSOM5Kfv8NMqF8ikpzde1l4NDTUvKQXFppZGf0qTxPPlyUEh+vByQRplyzaLSOI+yom6pR/oghWSrtGlck3omzcsBafxnm/1JGclPI6/XXXedueKKK+xgiEiHqJVq6N3qSvPRv4aYWa/NtaNhjDbyAgFKNR90XgoRL4yYMoPNzKcQIcEHn5FxPpLMRAoRE//4xz/sTAszT0JkCbrGDMgzK87svBAhQd/hrrvustYjTBiIdKgSjsowX8KM7rOf/aw1mcPEgxEpUTVgxA+TICFCgxF2b4YpRGxgjsnMihBZg1lDZg8xCxYiNJBf+r3Mzov0qDIhtTCLYF0Z63pQrlkHqXUGVQPW07D2RogQQbHmT4jYYI0iaymFyBrMVLOWm/WwQoQG8ku/FzNwkR5VKk41MEON8wMcG+B4gLULIm5YA4NiLURosDQFRyc4vREiNrw/DiGyCMtukFEhQgSngxqQT5cqp1R7UK4xC8ZEQsQN3hlZVyJEaPBBxIMsHlCFiA28Esu8VmQR+oZ4rcarthChgfziCwCngyI9qqxSLaoOeGhEMREiNDDhwrGi9+IqREzgL0BWRCKL0PYy00eYKiFCA/klzBfexUV6SKkW0UOoAcISCREajDYTwoawXULEBgqLzGtFVmHAh5i/QoQI/V4p1ekipVpEj7x/i1DBwSImiJ07d3Z7RNqg9E2dOtU8/vjj//GHR3bihJYEIf00qFcYTL/l/VtkFbx/t27d2m0JERZHHnmkjcst0kNKtYgeOm04pxMiNFhTjUIm7/WVx9atW829995rTemYteIPr9UPPfSQjWFbkqMtjnn66afdlkhCfOp69eq5LSGyA1ZC9evX14C8CBLkl3DCCqmVLtX/+wDud6Wybc9Ms2PvAvPRR+XrCbRl/RGmcZ3eBwRMXr6rKtu2bTPTpk0zgwcPdnuECIMPP/zQrFmzxobF6NGjh9sr0oSwOhs3brShGEeNGmXbkf79+5stW7aYTZs2ma5du1rHl/htuOaaa8zzzz9vtm/fbmcJqLvbb7/dKuR00JnZnjt3rmnZsqU95/XXX7dtE5YImEK//PLLVgHnN2vp58yZY2bNmmXuu+8+q8wT1zkmJfSpp54yrVq1UnhLkTlYk7phwwY7KNa3b1+3V4gwQH4ffvhh06tXL2txIdJBM9UiegiLoVioIkQI+UeHbtiwYW6PyAKY1DVp0sTOUvOHwy2UZ0I1nnTSSXZ2+5VXXrHHoIB3797dhnBkP7Pcfp0bpuEozrRRK1euNC+99JLtBA0dOtQq5n/4wx+s0sl12X7xxRejijvKmlWeXYgsgmzKkZ4IFfq9CqmVLlKqRfQ0b97cdnSFCA1mqlG2Fi1a5PaILIBXYJRjZo0Z+HjggQfMySefbOOJMwDCjPa6detspxzzURRjZpkxySsOjhswYIBdrkKMcj+gMmTIENOtWzc7ax6T4xnCFWnNqsgivKu8s2PGjHF7hAgH5PeUU06xjk5FekipFtGDGSWKiRChgQkX3us1W1K5YJZNrPvRo0ebkSNHmsmTJ1sHiOyj80L78o1vfMN2wPn7/Oc/b027ywLXQUHHOZ0HE3GUa9L8fmQiFjCPl/dvkUV4z5BNBseECA3kFwuq0jjTFOWHlGoRPSglilMtQgRlitlQjTZXLsOHDzePPPKINb++4YYbrHLNWmrMwFF2cQZz9dVXWy/h/u9Xv/qV9W4tiobBCCnVIqsoTrUImTfeeEMhtVJGSrWIHmZ71LkVIYLC1qFDB7smV1Q+DHKgTI8bN84899xzZt68eXZ2uV+/fua1116z652ZIWDtNLOwyVkCzkX5Zg02x/F/8+bNLrVqgrk7M/5CZBEih+BUUIgQYfmCvH+ni5RqET3M9NERFiI0cDLCaDMeo0U2oJPCGmfCQTF7vX79euuzAU/BzGLfeuut5v777zfLly+3ijOerZmRxcs3HXSUcEJ0cQwexKsyhHzBK7oQWYNBMCyEGNQUIjSQX/xwMKkk0kMhtUT0MGs0ffp0hdQSwaGQWpUPSjCKMdYu/AZmVwmZhUKIoy3S6Hyz1AST8C5duphBgwbZAb2GDRvaddEcy+AejhOpV7ZxaMZ1cGZG2BOuxewt9+E6zDS0a9fOWiwwa5ZMjwHCh/E8CqklsgYWJ4TSU0gtESLILyG1evbsqZBaKVLtQMFnwuvJkq3XmpXb7zD7P9zr9pQPvVtdaTo2OdccUU0mEFUVZomYGfr2t7/t9ggRBihfb731lvUijYIlREwQ13vChAm24ydElqBrTNQFLEymTJni9goRBvQdrrrqKnPZZZdpCUOKyPxbRA8zQ3TchAgNP1O9bNkyt0eIeBg7dqydqRYia2A+iwUK1iRChAbyy7IkOTlNFynVInownV27dq3bEiIcmC3BO/Lbb7/t9ggRD6xD37Nnj9sSIjvQ9rKcAxNwIUID+V29erW1chPpIaVaRA9KCc6ehAgNRptZS6s1USJGcOamGOwiqxBSi+VjQoTIkiVL7KSSSA8p1SJ68H4oE0MRIjiowulV79693R4h4oGlOfJOK7IKDgmRUSFChH6vQmqli5RqET144JUjHBEihNRavHixmT17ttsjRDwQ8gXv6EJkDayEGjVqZDp37uz2CBEOyO/RRx+tQcuUkVItogfzwvnz57stIcICxZo/IWKDASP5CxBZhDWpO3bs0NIxESTI77x582T+nTJSqkX04KiBj6MQoUE84l69epmBAwe6PULEw7/+9S/z3nvvuS0hsgWyqUEfESrbt283H3zwgdsSaSClWkRPs2bNzPHHH++2hAgHQmrhIXnVqlVujxDxMHr0aMVQFZkE89nWrVubESNGuD1ChAPySyhZhdRKFynVInr27dtnFRMhQgMTLjzQytJCxMimTZvM3r173ZYQ2YG2F9ncvHmz2yNEOCC/69evV0itlJFSLaKHkFqEFhAiRHA0ghdaIWJj2bJlCqklMgum3ytWrHBbQoQFPiu0pjpdpFSL6KlZs6bCYogg+djHPma6d+9ujjnmGLdHiHho2rSpbZ+FyCIMaDZp0sRtCREWLVq0sH0IkR5SqkX01K9f3/Tp08dtCREOOBlZtGiRmTVrltsjRDwQ6pCwRUJkDdakNm7c2A5qChEayG/fvn1l5ZYyUqpF9GD+vWDBArclRFgQTksePEWMKKSWyCqsScU7vUJqiRBRSK3KQUq1iB7CYrz11ltuS4hwIKRWjx49TP/+/d0eIeIBB3wKqSWyCk5OUayFCBH6vRqQTxcp1SJ6WLc3btw4tyVEOBBSC++z69atc3uEiAfCFbHuT4isgflsq1atzLBhw9weIcIB+R0/frxd/ijSQ0q1iB5CCmzZssVtCREOmHBhHitLCxEj27Zts7OBQmQN2l5MZ9X2ihBBfhmQ10x1ukipFtFDyBacPQkRInjvrFGjhtsSIh6WLl1q47ALkUUY0Fy+fLnbEiIsXn/9da2pThkp1SJ6UEgUFkOECAr10UcfbQYPHuz2CBEPeFdWSC2RVZBNeacXocLSR4XUShcp1SJ6GjZsKEdPIkgw3WK0eebMmW6PEPFAqEMUayGyBmtSGYxnUFOI0EB+Bw4cqJBaKSOlWkQP5t8KqSVCBcVa66JEjLAsR96VRRbxIbWWLFni9ggRDsjv3LlzZf6dMlKqRfQQsgWHOEKEBiG1unXrZvr27ev2CBEP27dvV0gtkVlwokfYNyFChH6vBuTTRUq1iB5MuEaPHu22hAgHQmrhfXbTpk1ujxDxMHz4cNO8eXO3JUR2wHy2ZcuWZsiQIW6PEOGA/BJKViG10kVKtYgeRuqYEREiNDDhYqZk69atbo8Q8YBsa6ZaZBHaXmRTyxNEiCC/mqlOHynVInpYU42zJyFC5IgjjrBm4ELExhtvvKGQWiKzoFAvW7bMbQkRFgsXLtSa6pSRUi2ih5BaCoshQoRwGP369TPHHnus2yNEPDRo0EAx2EVmQTaRUSFChH6vBuTTRUq1iB5CainOrwgRTLfwXP/yyy+7PULEA6EO8XkhRNZgTWqzZs3kJFIECfI7dOhQU7duXbdHpIGUahE9u3btMvPnz3dbQoQFirXWRYkYIaTW22+/7baEyA4KqSVCBvmdN2+e2bt3r9sj0kBKtYgewmLI0ZMIEUy3unTpYnr37u32CBEPeLanfRYii7AeVU5ORahs2bJFA/IpI6VaRA/mhSNHjnRbQoQDIbWYLVGcdREjhCvCxFaIrIH5bIsWLcygQYPcHiHCAfkllGy9evXcHpEGUqpF9DBSJxNDESKYcDFTwoizELHB0hzNpIgsQtv7/vvv2+ghQoQG8ku/d//+/W6PSAMp1SJ6+CgSWkAIIUR2WLx4sQY8RWbBSmjp0qVuS4iwwJeQQmqli5RqET2EJapfv77bEiIckN2BAwdaMy4hYgPTRGRciCyCbMp7sggVwsEppFa6SKkW0UOsvuHDh7stIcIB01g8eM6YMcPtESIeWK+qNdUii7AmtXnz5mbAgAFujxDhgPwee+yxGhRKGSnVInpYt0esXyFCBMVa605FjGD+jYmtEFnDh9R644033B4hwsGH1JL5d7pIqRbRQ8iWzZs3uy0hwgHTrU6dOplevXq5PULEA6EOFVJLZBUUEkVeEKFCvxdneyI9pFSL6GncuLHMv0WQMNqMpYWcOYkYkfm3yDKYf/fv399tCREOmH+PGDFCIbVSJnqlupp9xGq5DVElIdbvnj173JYQ4YDsMlPy5ptvuj1CxMPevXu1tEFkFsIRyXxWhAgD8rt377Z9CJEemVGq69Zoa46oVsNtlR+1a7Q21appQr4qQ0gtrakWocLHkT8hYmPRokWywhCZZceOHVpTLYJFIbXSJzPaZov6x5o6H2vltg4fZqib1R1sGtXu7marRVXliCOOMLVr13ZbQoQDIV0GDx5sxo0b5/YIEQ+0ywr5IrIKslmrVi23JURY1KlTx5qBi/TIjLaJQt2r1VdNg1pdTPUj6ri9h0b1arVM4zp9TNdmF5aroi7CpEmTJmbUqFFuS4hwwDR27ty5Zvr06W6PEPEwbNgwu25ViKyBMtKyZUs7qClEaCC/Y8aM0ZrqlKn2UcbsCv/17iKz+Z0Xze731pmPzH63t/QwK40peasG40yj2j3NEdU+5lJEVWXDhg3m6aefNp/5zGfcHiHCAM+dKNQ7d+40kyZNcnuFiIN77rnHKtYdO3Z0e4TIBnSNV61aZQc1zzrrLLdXiDBgLfVNN91kZZeJJZEOmVOqc3xkPvhw74FG7RCU6mrVzcfsTLdMHkSOlStXmnvvvdd8+9vfdnuECAMc5axdu9aGHerZs6fbK0QcXHPNNWbChAmSbZE56Bqz5n/atGlmypQpbq8QYYBSfdVVV5nLLrvMWlyIdMjoYuNqBxTjuqZG9QZl/uM8KdQiSaNGjcyQIUPclhBhgaMRea8XMUK4oqZNm7otIbIF4d769evntoQIB8y/sQKqWxedSKSFPHiJ6GHE+b333nNbQoQDo81btmyxSxiEiA2WNyjki8gqyCYyKkRo0O/Fwi2TxsgRI6VaRI9CaomQ4aOoD6OIkcWLF5t//etfbkuIbIFsKqSWCBWF1EofKdUiejCDqVGj/GOgC1HREFJr6NChZvz48W6PEPGAfBPyUIgsQt8BGRUiROj3IsMiPfQ1E9HDmj3F+RUhQkit2bNnm6lTp7o9QsTDiBEj5ERHZBKUkVatWtl1qUKEBvLLYLxCaqWLlGoRPbt27bJmMEKECIq11vWJGJH5t8gqLLmR+bcIFeR33rx5Mv9OGSnVInpoVN588023JUQ4YBp75JFHmq5du7o9QsTD5s2b1ekTmWXv3r3WUaQQIbJx40YNyKeMlGoRPYTUGjRokNsSIiyYqZb3ehEjhCtq0qSJ2xIiW7B0rE+fPm5LiHDA/JtQsgqplS5SqkX0YAajsC0iRJDbTZs2mXXr1rk9QsQD8i3P9iLLqO8gQoR2df/+/WpfU0ZKtYgeQmppTbUIFT6K+jCKGGFN9dtvv+22hMgWO3bs0JpqESxaU50+UqpF9GAGo7ACIkQI5zJ8+HBzwgknuD1CCCGEEMWjfm/6SKkW0dOsWTMpJSJIWE89a9Ys88ILL7g9QsTD2LFjbdgiIbIGCkmbNm3MyJEj3R4hwgH5nThxomnQoIHbI9JASrWIHsy/FyxY4LaECAu8d8qDp4iRRYsWyfxbZBKW3CiklggV5Hfu3LnWg71IDynVInpYU7Jhwwa3JUQ4EFKrXbt2plOnTm6PEPGAEz51+kRW2bNnjw37JkSI0O/VgHy6SKkW0dOwYUPTv39/tyVEeMhRmYiR3r17m8aNG7stIbIF4d569erltoQIB8y/Bw4caOrUqeP2iDSQUi2ih8aFGT8hQoNwLm+++aZZs2aN2yNEPNAuy5mOyCrqO4iQUduaPmotRPRoTbUIGcXyFbFCSC3WrQqRRbSmWoQKfQZCySqkVrpIqRbRQ+OCF2UhQoOQWiNGjLBePIWIjf3792vASGQWBjSRUSFCRP3e9JFSLaKnefPm5qSTTnJbQoQDH8WZM2eaZ5991u0RIh7Gjx9vWrdu7baEyA6YzrZt29aMGTPG7REiHJDfU089VSG1UkZKtYieXbt2yfxbBItCaolYUUgtkVWwoJD5twgV5HfevHmKrpAyUqpF9NCorF+/3m0JEQ44yWnTpo3p0KGD2yNEPOCET50+kVUIqUXYNyFCZN26dRqQTxkp1SJ6MH/p27ev2xIiLKpXr27/hIgNwhU1atTIbQmRLQj31qNHD7clRDhg/n3MMccopFbKSKkW0cNsX82aNd2WEOGAo5yNGzea1atXuz1CxAPtskIWiazCYGaNGjXclhBhQfuqsFrpoq+ZiB6F1BIhg2LNnxCxoTXVIsvs2LFDa6pFkPg11QqplS5SqkX0oJC89957bkuIcFBILREzrPfTgJHIKsim1qSKUKHfq/Y1Xap9pCCRInKYqV6zZo3p06eP2yNEGNChe/XVV83OnTvNySef7PYKEQeLFy+2YYu0rlpkEbx/b9myxXTv3t3tESIMUO2w0ER2a9eu7faKikYz1SJ6CKk1f/58tyVEWKBYa7ZExIjMv0VWQSlBqV6yZInbI0Q4yPy7cpBSLaKHkC2EFhAiNHDi1Lp1a9O+fXu3R4h4wAkfYYuEyCK7d++2Yd+ECJG1a9dq6WPKSKkW0VO/fn3Tu3dvtyVEWODBU2ExRIwQrqhhw4ZuS4hswbKEbt26uS0hwgGv3yx5lOl3ukipFtFDWAwpJSJEcDKyfv16s2LFCrdHiHigXVYMdpFVcBQppUSESt26dRWyMGVU2iJ6WFOtkFoiVFCs5cFTxIjWVIssw5pqhdQSIcKaanwJaU11ukipFtGzf/9+s2/fPrclRDgwUzJ8+HBzwgknuD1CxINCvogsQ99Ba1JFqKBQq31NF4XUEtHDTDUhtbSuWoSGD6lFWLiTTjrJ7RUiDvCs3KZNG4XUEpmEmeqtW7dqXbUIDlS7119/3XTt2lVLGFJEM9UielBIZP4tQgXFWrMlIkaIUy3zb5FFUEoUUkuECvI7d+5cmX+njJRqET2E1GKmWojQwMlIixYtTNu2bd0eIeIBJ3wKqSWyCiG1CPsmRIjQ79WAfLpIqRbRQ0itnj17ui0hwqJevXqmQYMGbkuIeMA0UbItsgrh3rp06eK2hAgHQmodffTRMv1OGSnVInpw9qRYqCJEcDKydu1as2zZMrdHiHhAoa5Ro4bbEiJb1KxZ0w7KCxEi9HsVUitdVNoierSmWoSMQmqJWNGaapFlduzYoZBaIkhYUz1v3jytqU4ZKdUiegiLwbpqIUIDK4uhQ4ea8ePHuz1CxAMdPtpnIbIIsimlRIQK/V4NyKeLQmqJ6CGkFia0rC8RIiQUUkvEzNKlS03r1q21PEdkEqwoCKnF2n8hQgLVbtGiRVZ2a9Wq5faKikYz1SJ6UKpl/i1CRSG1RKzQ6SNskRBZA6VEIbVEqCC/hNSSlWa6SKkW0UPIltWrV7stIcIBD57Nmze3s3lCxMa6desUUktkFgbkN2zY4LaECAv6vRqQTxcp1SJ6CEnUrVs3tyVEOOC5E9PYJk2auD1CxEPnzp3lXVlkFrzTd+zY0W0JERY9evSQ6XfKSKkW0UPIlqZNm7otIcIBRzmMNssDrYiRxo0b27BFQmQNrIRQSJBRIUID+aXfW716dbdHpIGUahE9CqklQkYhtUSsKKSWyCp+TbUGNEWIIL8KqZU+UqpF9DDbp3V7IkQIqTV48GAzduxYt0eIeMCJjkJqiazywQcfyNGTCBb6vRqQTxeF1BLRg7OR9evXm549e7o9QoSBQmqJmFm2bJlp1aqVQmqJTIIVxbZt20yXLl3cHiHCANUOz/X4rdC66vTQTLWIHpTq+fPnuy0hwkIhtUSsEFJL5t8ii8j8W4QM8quQWukjpVpEDyYwq1atcltChIN3NtKiRQu3R4h4WLt2rdm9e7fbEiJbMCBP2DchQmTlypUakE8ZKdUieurWrSvzLREkhNQinFbLli3dHiHioUOHDjbkoRBZhHBvRx11lNsSIiy6du0q0++UkVItooeQLVJKRIjgxAkrC9ZGCREbWGDUrl3bbQmRHbASQjabNWvm9ggRDsgv/V6cnYr0kFItokdrqkXI4L1THpJFjGhNtcgqWlMtQgb5pd+rkFrpIqVaRA9hMbRuT4QIo8wDBw40o0ePdnuEiAf8XdA+C5FFkE2F4xShwoSSBuTTRSG1RPQopJYIFTx/z5w504bUmjhxotsrRBwopJbIMgqpJUIF1U4htdJHM9UielCqFy5c6LaECAu8d+7bt89tCREPjz/+uNm4caPbEiI7oJSgVC9dutTtESIckN958+bJ/DtlpFSL6MF8a8WKFW5LiHDA2Ujjxo3lLEdEyZFHHmmjMwiRRbAQIuybECFCv1cD8ukipVpET506dUzHjh3dlhDhQEgtPCS3bdvW7REiHiZPnqyQRSKzEO6tffv2bkuIsOjUqZONfiPSQ0q1iB7CYkgpESGCk5GVK1daL8lCCCHSASshrCgUjlOECPLbrl07U6NGDbdHpIGUahE9mHAtWLDAbQkRFijW8uAphBDpwZpUhdQSoaI11ZWDlGoRPYTFQLEWIjQIqdW/f38zcuRIt0cIIUQaEH1B4ThFqNDv1YB8ukipFtGD+dZpp53mtoQIBz6IhMWYPXu22yOEEKKi8eaz48ePd3uECAfk94wzzlC4wpSRUi2ih5FmFBMhQgMTLsy39u7d6/YIIYSoaGh7d+7cqcghIkiQX3yxyPt3ukipFtGDUr18+XK3JUQ4MNrMSDNhtYQQQqQH5rNr1qxxW0KExbJly6RUp4yUahE9hNRS2BYRIoTUatOmjenQoYPbI4QQIg0IqaXIISJU6DcopFa6SKkW0UNIrSOPPNJtCREOrKnGymLhwoVujxBCiIrGh9RiUFOI0EB+mUxSSK10kVItomfXrl0KqSWCRSG1hBAiXRRSS4SMQmpVDlKqRfQQFgOHI0KEBiG1+vXrZ4YPH+72CCGESAP6DgzKCxEi9Hs1IJ8uUqpF9LRo0cKcfPLJbkuIcPDm37K0EEKI9MB8lvXUY8eOdXuECAfkl1CyCqmVLlKqRfQwWjdr1iy3JUQ4YMK1Z88e68FeCCFEOtD2Mkst798iRJDfpUuXyvt3ykipFtGDCdeOHTvclhDhwGhz/fr1NdoshBApw4D86tWr3ZYQYSGlOn2kVIvoQSEZNGiQ2xIiHAiphef6rl27uj1CCCHSAO/frVq1cltChEX79u3l/TtlpFSL6GnatKnWRYkgYU01o8148RRCCJEO3kpI4ThFiCC/Xbp0UZzqlJFSLYQQGUYhtYQQIl0UUkuEjEJqVQ5SqoUQIqNUr17d9OnTxwwdOtTtEUIIkQbvvfeeeeedd9yWEGHBoJAG5NNFSrUQQmSUDz/80DrKWbJkidsjhBCiosF8tk2bNmb06NFujxDhgPwSSrZBgwZuj0gDKdVCCJFRfFgXvNAKIYRIB9peZqlXrlzp9ggRDsgvsou1hUgPKdVCCJFRGG3GAy0Oc4QQQqQHA5obNmxwW0KEBf4AFFIrXaRUCyFERvnYxz5mBg4caMaMGeP2CCGESANMZzt06OC2hAgLli8opFa6VPsIGwEhhBBCCCGEEEGDajdjxgwzYMAAa+0m0kEz1UIIIYQQQggRASjVhNTau3ev2yPSQEq1EEIIIYQQQkTCjh07FFIrZaRUCyGEEEIIIUQE4OR04sSJCqmVMlKqRfaYOdP9yDBz5hhz0UXGKFyBSLJ5szGrV7uNjPL++8bcdZcxP/0pgbDdTiEOA+R+xw63kWEeecSY//ovYz74wO0Q0YAM8l3OOi+8YMxnP2vMu++6HUKUP5h/r1279sDn/sD3XqSGlGqRLWbNyn1wnngimwornbGXXjLm29825vjjcc/sEkSVZ/funLL6v/9rzNKl2VRY6cjdcYcxN95ozKmnHvgC6BMgyoGnnjLmE58wZtmybMo935KHHzbm5ptzcl+9uksQUcB3efp0Y666yphXX83moAnKzXPPGfPjHxtz/vnG1K7tEoSoGBYvXnzgk6/BmzSp/t8HcL+FqHzatjWmZ09jfvUr4lkY07GjMVkJCUDHDIX62mtzHbPzzjOmZk2XKKo8yELnznzJjHnxxdzvpk2xw3IHVDI7dxpzyy3G3HOPMb/+tTH9+7sEIQ6Tfv1ycn7DDcZ06mRMq1bZGbChU/n008b885/GXHihMaNHS6mODWTtyCNzbRzWCK1b5/6yIoM4i3rssVy7+93v5gbkhahAmKleunSp6dOnj6lTp47bKyoaKdUie9ApQ7m+887crAfKSWUrr36G+qabjBk5MjfSXK+eSxTCgUz06mXM/Pk5M7/u3Y1p1swlViLbt+cUnuefN+bnPzfmmGNcghDlBIo17eQDDxjTuHGuDa9spYaBUGbRsXw6/XRjxo/PziCtKF/oI9DebtmSq2+U6nbtKn9QEwumBx/MvRdf/7oxxx3nEoSoOFhT3e6A/Ddp0uRAMyyLtLSQUi2yCaPOdMww2du3z5guXSpXsZ4xw5jrrzdm1KjcDHXDhi5BiDzq1zemd29jFi0y5r77cspGZSrWb71lzJ//nDPNZZakb1+XIEQ5061bzswVpYb3AKWmMjt0zFryh0LN7GCtWi5BRAkm1T165Nq8e+815qijcjJYWaBQ8w2YOjXng2XsWJcgRMVT/0AbLIU6XaRUi2yCeV779jkTcEZ4mbHu2rVy1jCzRut//seYSZNy6walUIuSQKFAeV23zpjrrjNmyBBjmjd3iSnCDPWf/mTM2rXGXHGFMX36ZMccXcQH7TNLdpghfvTR3PKHypqx5rvBUocLLjBm3Dgp1FUFFGuWkGH2f/XVuYEe+hJps2ePMf/4R25AHsu2ESO07ECIyJFSLbILHTQ/Y41jJUxrMe9Ks4OGyTeO077yFWPOOUcm36L01K2bW7fMOr/f/96YoUPTVay5LzPUS5YY8+Uv5xRqdepERYN5NUt4UKxx3MdvTHHTHMz5+9+NueYaY37wA2OGD5fJd1UDqzYUawblf/azXL+BvkRaIPuYfLOOmhlqFGrJoBDRI6VaZBuUAGY+GGkmFArrq5mxTgMU6ksvzTlNO+OMyl/XLcKD2bGBA435179ynfxhw9IxBWfJBANROGjC2yzm6DIDE2mBAoEZ7v79ufaTZTNNmrjECgZzW5xJ/uUvGkiqyjAoj2KNtQSKNb/TmLH+6KOcMs1ysW98I+eDRVFChKgSSKkW2YcZjg4dch2kKVNyMx8o1xXVWfLhOX70I2O+9a2cQi2TWXGo0KFCdrduNeZvfzPm6KNzinVFyZRXqLkXM+TcT/Ir0oZBHAZzkP/vfS83Y1yRcs9a7oceys2Oo0RJ7gX1jz8WrIZoE5mtrsjlCMjgk0/mQnsxmMlgkmRQiCqDlGoRDjgdGTTImB/+MGfWxceyvE2qMNtCoWYd6sc/bsyZZ2qUWRw+zFijYKxYYcwzz+QGhTAFL+8O19tv52boMH9lLTf3FKIyYUAJpYb1rT7cVnkPiBKy6PHHczOEn/tc7jshywwByBrtLQovYdVatDCmTZvylw/WUHN9LDOIsEDoNiFElUJKtQgLFGscj9x8c+4jiWJdXg5ouB4K9R135EKvnH22MYrvJ8oLZMl7BX/uuZzs0sErL7Ztyw0GETYLU3Nm6oTIAijWDIBiPdGoUc4jc3kp1jikYnbw2WdzbbbMbUU+yB7Lxhh0xDM9FhPlGW7rnXdyA5k4JqNLjQwKIaocUqpFeLAuqmXLnCMQQlbwsTxcxZp1UIS9uPVWY8aMyTklw4OzEOUJju5QMN54Iye/KL7l4byM2Kys4WMm/Cc/ya0fFCJLMBgKzCbjoRlT3MNVrIkKQdhFrD8mT87NDsohlCiEj2ONfws8w9OHKA/nZTiEZLCIAfnLL885JRNCVEmkVIvwwGyLUWa8gqOYYPqHU5zD6UxNm5YzTzztNGPOOksKtag4MIUl3NaGDbmZZeJYYxJ7qLBWm+ts2pTzUo9CrXV8ImugQON0EudlKNa8B4erWDM7iFJN2CxmB6VQi+LwijVWaURGoB+Bv5ZDZdcuY+6+25iZM3NevvEboGUHQlRZpFSLMKEjxow1ZlyYgvMhY9bvUD5omMt+85u5OL6nn66wWaLiwRT8mGNyA0J/+MOhK9Y7duRmqImH/cUv5hRqdepEVkHpRbHGMogY0oTaoh0/lEEglunwR1QI1lDL5FuUBhRrrCYaNjTm17/OLSlDJssKbTcz1PQfiBJCZAcN6ghRpZFSLcIFxdp/EHFehlLSq5dLLCV8EK+80phf/MKYE08sv/XZQpQEnTuUaZzjoVgT0xqTxNKCYxwU6jlzjPn+93PWGodrTitERYPiwZIdZPX//i8n92UdULrzzpxCTegs5F4DSaIsMACDDOIJnG8/s9VlmbFm2QHrp2+/PRchBIVagzpCVHmkVIuwoTOFCSGxgD/72ZySjXlXSZ0sTBBffDG3/vQHP8gp1OqYibShI8ZAEA50UBL8GuuSZu4wX0ShxkHTb36Tm3mRybcIBdparCqwCvJKCU77SpJhwh0Sh5o/5B5v4pJ7cSgggwzIEz+d5TNYTJTGagIZxMs3yjiDQsiu+g5CiANIqRZxwNoonNR8+9u59dCMQjMTWAhmBlGoiVvJOqiTTtIMn6g8mLlDsd64MRcWiI5ecQoGCjgzdCjUzHB7B1BChAZyj6z/9Kc5uWfmsKi2GHPbRx4x5umnjfna13LnSqEWh4NXrJE5Zp5ZTka4raJkEOsgTL4Jm0UbPHSoSxBCCCnVIibokA0YkHNAwmhyoXBbXqHmw4gyjWMymXyLygZvyCgJeO8mNBCmiIVMYnFKxgw1nmZ///vc4JEQIcOMNWG2brvNmAYNcpZH+aa0hM1iwIkIDZ/6lOJQi/IDWaOvwKANDvRwgMqMdb584eWbZQc4x2OGesgQlyCEEDmkVIu4YJSZDyIhM/gIonSgsADroFhDjUJNHOpJk3IeaIXIAjgvw/x71SpjHnoo19FLrrHGuzdmijglY2avc2eXIETgIOtYFiH3KDks4/GKNUt1MLclQgOhDuVhWZQ3fp0/M9HIIIp1co01YbgY9HnppdxyBSnUQogCSKkWcYE5IDPWrEvFVBBTWRzZ0GFjBvCvf83NTvMnhVpkDRTr3r2N2bzZmL/8JTeLx0ARCjUWGMjzl76kGWoRFyjJKDH8f/TRnJLDNoo1IYuee86YCy/U+lVRcXjFmkGcW27JmYKzZp82F4V63jxjPve5nEItGRRCFEBKtYgP1kOhWDPLx6z0vn25mMCsg+KjiNk3yosQWQTLChRrljBcd12uc8fsCeGzpkyRUzIRJ36GmvabdpvZQiyLULKZHSQEnZQZUZGgWGM1gexdfXVu4H3GDGNeeSXX9g4e/G8LCiGEyKPaRwdwv4WIC0acZ8/OhczCCdRNNxlz7LH6KIowYP0/s3SEixs3LuelnpkTKRYiZvBs/8QTxvz85zlZ9/GsNZAk0oK+A34rGITHYoLlNvhrKcqBmRBCHEC9MxEvdMJYC8Vaaky4mK2WQiJCAVl9882cco1/gN27pViI+EFxod1myQ5tNn9CpAntLL4rWHZDO7xrl/oOQogSUSsh4gRFhNArN99szPe/nws/9Otf59ZG4YxEiCyDEo284hjnqaeMOe64XPis+fNzsyhCxAgemPGuzCwhXu6vuSbnQwB/GLTpQlQ09A/oN/zyl7m29/LLjbn99lzUEKwohBCiCLSmWsQHa6hZi3f//cZMnmzMhAk5j+B4jcXZE+FZWDflvYILkSW2bMnFQJ0zx5jf/S63hhqHZczYMVBEyCHMYYWICZQZ1k+//LIxl1yS8yuA7Ldrl/N6T7gt1lyz7lWIigALiVtvza3pR+YGDszFsWaVJI5PGzYsHG5LCCEOIKVaxAWzeMxqPPigMSeemHNK5pVnHJexJpXwLNu3/2e4LSGyAIrzDTfkvH+zjg8FGpBT4lhjkkjnDuVCirWIBWYAaZdffdWYT34yp8x4GABFoWaQFLNc1rhKsRblDX0CvH7jlOx//ifnGA/wwYIMIqM4jEQWUbSFECIPKdUiLjDzxrHN6af/p0INdMhatcop15h1vfVWbiakVi13gBCViFeoMYHF5BXFOQmyTBzrrVtz5onEqcbLvRChc+edOWWGsFlJhRq8Ik07zYASMDgqh5OivCCyAgr14sXGXHFFzilZ0n+FV6zZd8cdxtSvn9sWQogEUqpFPDz8cG4d3qWXGnP88YVnoTHbYoYPxZqZERyYYWaoDpqoTJiZZmkC60Y/+9ncTEiyU+dBsUCxBo7nOMwRhQgV4rG/8IIxX/+6MX36uJ150D4zyITzMtZc07YzqCRvzOJwwX8FCvXChTlv30V5+UYGkbmmTXP+LTAFZ1BeCCEcUqpFHKAg//a3ObOtESNyna+i4IPZpk2uk8bMIGuw82dHhEgLBnZYQ81sCU5xUJSLW7OHbLPGGhNYBpGYtWPdqRChgfzi/+L//i83G10cKDW8G5jf4sAMKw3NForDgUFMrH4Y1CH0Zv/+xQ+w03eg34Ay/fvf52RRirUQwiGlWoQPzm1QqHHqNGhQ6ZyIcAyKNaPS3/qWMXXq5D6oQqTJBx/kFIo33jDmJz/JzToXmqHOh85d9+65Y5mx5jfyLEQoMKCJ/wtmqpn9Kw3IPb4wkHUGoAYP/rffASHKCgr1TTflFOS+fUvfd/ADOldfbUyzZhrcEUJYpFSLcGGU+YkncmucvvnNnEJdGoUkSfPmxowfb8x//VfuXD8DKERF8847ubBZixYZ85vflN3xmFcwsLTAiRPKBcsaStMxFKKyIPoCfi+8QyhktqxghssyiC98IafQMHvI+yBEacDT/F//asyNN+aUapxAlgX6CrTX+Gi5667cjDUDopJBIao0UqpFmKBIMMuBN87zzjNm1KhDXxfNSPPYsbkZk127cp20QuuxhSgvWEPNurxly3Iz1YfqyZsBoB49cs7LGGBiBoVrlXVwSYg0QJlhqc5rrxkzZcrhmc6iWKMMMSCFUiOv4KI0EDaLGeoHHsiFzSqrQu1h8JKBTPxc0A+pVy+3rUFNIaosUqpFeGAyS7zexx835tRTczPNxa2hLg0o1nTw+Dhu25brsGESLkR5s359bgCHNdT/+7+52Y7Dwa+x3rQptxQCxVqm4CJrYFmEIjN7tjGf/rQx/fq5hMOANdbMdN99dy6WMP4FDvdbIOKFbztxqJFBQhYeqkLtQYFGBgFHqfQZ6DsIIaokUqpFeBBWBeX3jDNyXr7LqxPVokVOIWEGnJlExbEW5c26dTmzww8/NObLXy4/5Zd3gA4iivrtt+ccl8kruMgSyCXKzAUXlJ//CiwymB0kxBHfBAZcsTTSjLXIxyvUK1YY88Uv5qJ+lIdFDybfKNLIHIM7tMVyXiZElURKtQgL1o6yhunii3Mm2+U5K8GoM7MezBwS7xrFmnV7mvkQ5cHGjbk1fMjZRReV3ilZaUFOmbHmmijuKOz5sa6FqAz++EdjZs36tzJTnqDUoFjXrZsLt8X7hVKj9a3Cg8k3YbNWrsyF3CytU7LSwrWwksDiDY/2DMazLEcIUaWQUi3CgQ4TSskPfmDM0KGHvoa6OPg4olSjjDDqzMf4UBygCZHkrbeMue663EzaZZfllICKkClmS/AEzvo+TMyxvJBiLSoTPCvPnJnzbo/iURHwLWBNdZMmufB0/JdSI2Dv3twg47x5xnzpS7lY6BUx4ELfgXadgXgGkfwgpxCiyiClWoTBP/6RU6jpoPHRKs9R5ny4NjPWhNu66qqct1pCtwhxKOBU75e/zCnW3/lObga5IgdpvDkiijWOeFjzpzjWojJAucApGYous3gVCXKP0o5yzYw43wmtbxW0gY89ZszPfpZTciuy70C7Tt8B2SOWOtYTDHIKIaoEUqpFtnn//dwaamapv//93McqjVlj7sFsx7hxxvzwhzknO5iMVcTsuIiX3btznTlMvxmgIYRbGngFAzn+299ySrW8gou0YCDpttuMmTPHmB//uOIVag/yjVLNgOj55+cUGhRrmYJXPRgMxxSbvgOx/PGRklbfAf8sWAjhRwDFGpmsSGVeCJEJpFSL7MJH8amncl6+WUPNbHHaH6bGjY058cScKe327bm1enJeJkoDa/IJ94NXbmaqmzZ1CSmBIkFHkjBxeAVnWYMUa1HREDYL3xeY215xRcWZfBcHCs2IEbk42Dgx846kRNUAh41YttF3YKY6bYsF2liW3jRqlPN4j1dwTMM1uCNE1EipFtmEmWGchT3zjDFnnZWLQ11ZHyQ+jKzDYsYcBYkPNKPPQhTF2rW52REGhlhLitVDZYBlBWtL6WQivyjWMgUXFQXy7hXqCy/MWRZVFigxLH3A4/P+/Tmv4HI6GT/E7Mcp2euvG/Pzn1feEgBvNYHM4Zme/8igECJapFSLbMJHiFjUZ55pzOjRlW92zSwjsx8vvGDMhg25j6PiWItCrF5tzM0352bGCJuVlulrUZAP1hK+844x99zzb9NEIcobTL7nz88p1CyXqWzwsE/bzWwhCj+WG1Ks42XLlpwM8o1mXX1aJt9Fwb1R6mvVypmhs6011kJEi5RqkT1YA4pSjck3JnxZWMfMx5D1sDiZev55Y9avz8UF5mMphIcZ6ptuyjkJ+8xnck5rKrNT5/Ez1vzHEy6yzCyeEOXF1Vcbs2iRMVOmlH/YrEMF6yYUa6yNmEHHR4d/D0Rc4AgSqwSsyS65JFfPWVjHTPtPW8u3AOsltivTgkMIUWFIqRbZgjXUKCU4JcPZTJbWIPGBRhnBpOvBB3POpypjnbfIJoRfI4b6hx/m4lBnbf0yigQWFsyc33BD7r8Ua1Ee/Pa3xixcaMz3vld55rZFgdxjCu7lnoHQtBxeinTAMR4D8QsWGPP5z+cU6iz1HZA1lt3065dznsY3IisDT0KIcqPaRwdwv4WofFj7iZLasGF2Oz28MoyK49mTmMPMSgrBus2dO3Pm1shEVuWXfC5ebMySJcaccYYcOInDhxlqlOksO3FEkVmxIueng3ZbTqPigW8yDhkx8WfgO8sDJpioP/usMaedlnOiJ4SIBinVQgghhBBCCCHEISK7VSGEEEIIIYQQ4hCRUi2EEEIIIYQQQhwiUqqFEEIIIYQQQohDREq1EEIIIYQQQghxiEipFkIIIYQQQgghDhEp1UIIIYQQQgghxCEipVoIIYQQQgghhDhEpFQLIYQQQgghhBCHiJRqIYQQQgghhBDiEJFSLYQQQgghhBBCHCJSqoUQQgghhBBCiEPCmP8HO7mPQrBECjQAAAAASUVORK5CYII=;movable=1;resizable=1;rotatable=1;deletable=1;editable=1;locked=0;connectable=1;" vertex="1" parent="1">
            <mxGeometry x="140" y="30" width="911.38" height="646.73" as="geometry" />
          </mxCell>
        </object>
      </root>
    </mxGraphModel>
  </diagram>
</mxfile>
